<svg version="1.1" xmlns="http://www.w3.org/2000/svg" xmlns:xlink="http://www.w3.org/1999/xlink" width="92.87059" height="38.39821" viewBox="0,0,92.87059,38.39821"><g transform="translate(-195.00237,-106.32584)"><g data-paper-data="{&quot;isPaintingLayer&quot;:true}" fill-rule="nonzero" stroke-linejoin="miter" stroke-miterlimit="10" stroke-dasharray="" stroke-dashoffset="0" style="mix-blend-mode: normal"><path d="M207.64686,121.16879c0.4707,-1.59347 1.36258,-3.09551 2.48382,-4.32169c0.58798,-0.64301 -0.77481,-4.52821 0.32355,-5.80673c3.38967,-3.94564 9.45872,-3.50755 14.00215,-3.53825c8.06637,-0.0545 16.12417,-0.73047 24.19048,-0.66667c2.68794,0.02126 5.2538,1.82837 7.84701,2c4.23997,0.28061 13.12571,-0.60127 15.31966,1.95833c0.57522,0.67109 1.44914,1.10047 1.875,1.875c0.91051,1.65596 1.73289,12.41982 0.04687,13.85992c-3.2735,2.79603 -8.06893,2.42613 -11.99127,1.44555c-8.75431,-2.18858 -14.38406,0.3396 -21.95254,0.52786c-7.80487,0.19414 -15.85589,0.70769 -23.01243,-2.42437c-1.04686,-0.45816 -3.83963,0.50364 -4.47597,0.07941z" fill="#000000" stroke="none" stroke-width="0.5" stroke-linecap="butt"/><path d="M199.64686,136.83545c1.01872,-2.72078 2.61232,-4.1863 4.61318,-4.98526c2.41255,-0.96335 5.41721,-0.95761 8.72015,-1.01474c11.20934,-0.19389 22.42293,0.14159 33.63306,0c1.33337,-0.01684 2.66137,-0.97439 4.03361,-1c6.70716,-0.12516 7.33551,0.10527 11.61553,0.33333c4.16352,0.22185 8.07242,1.93583 12.19586,2c1.05683,0.01645 3.55744,-0.17283 4.35528,0.625c1.18768,1.18768 2.5,2.69536 2.5,4.375c0,3.72493 -2.36698,4.68149 -5,5c-3.53508,0.42763 -10.24232,-1.92531 -13.09476,-2c-4.04699,-0.10597 -7.3449,-0.37334 -11.76052,-0.33333c-1.35125,0.01224 -2.73652,0.99274 -4.14472,1c-10.71414,0.05522 -21.42858,-0.01388 -32.14286,0c-1.05873,0.00137 -10.84701,1.53607 -11.56825,0.89075z" fill="#333333" stroke="none" stroke-width="0.5" stroke-linecap="butt"/><path d="M206.9802,131.16878v-7.66666h69v7.66666z" fill="#ffffff" stroke="none" stroke-width="0" stroke-linecap="butt"/><path d="M284.31353,142.16878l-86.33334,-1.33333l1.66667,-9.33333l81,0.33333z" fill="none" stroke="#000000" stroke-width="5" stroke-linecap="round"/><path d="M204.31353,130.16878l8.33334,-21.33333l59.33333,0.33334l6.33333,21" fill="none" stroke="#000000" stroke-width="5" stroke-linecap="round"/></g></g></svg>