<svg version="1.1" xmlns="http://www.w3.org/2000/svg" xmlns:xlink="http://www.w3.org/1999/xlink" width="267.5" height="200.70876" viewBox="0,0,267.5,200.70876"><g transform="translate(-108.52661,-77.7785)"><g data-paper-data="{&quot;isPaintingLayer&quot;:true}" fill-rule="nonzero" stroke-linecap="butt" stroke-linejoin="miter" stroke-miterlimit="10" stroke-dasharray="" stroke-dashoffset="0" style="mix-blend-mode: normal"><path d="M117.52661,201.9873v-91.5h227.5v91.5z" fill="#000000" stroke="none" stroke-width="0"/><path d="M119.52661,199.9873v-87.5h223.5v87.5z" fill="#ffffff" stroke="none" stroke-width="0"/><path d="M119.02661,266.98726v-57.5h22v57.5z" fill="#f26161" stroke="none" stroke-width="0"/><path d="M330.02661,268.48726v-57h22v57z" fill="#f26161" stroke="none" stroke-width="0"/><text transform="translate(153.52661,138.51925) scale(0.96025,-0.96025)" font-size="40" xml:space="preserve" data-paper-data="{&quot;index&quot;:null}" fill="#000000" fill-rule="nonzero" stroke="#000000" stroke-width="3" stroke-linecap="butt" stroke-linejoin="miter" stroke-miterlimit="10" stroke-dasharray="" stroke-dashoffset="0" font-family="Sans Serif" font-weight="normal" text-anchor="start" style="mix-blend-mode: normal"><tspan x="0" dy="0">cool text</tspan></text><path d="M212.52661,185.4873v-32h35v32z" fill="#ffd966" stroke="none" stroke-width="0"/><path d="M140.52661,269.98726v-93h190v93z" fill="#ff6666" stroke="none" stroke-width="0"/><path d="M117.02661,278.48726v-12h238.5v12z" fill="#903a3a" stroke="none" stroke-width="0"/><path d="M248.44081,192.57309l3.79967,-25.72086l57.87193,8.54926l-3.79967,25.72086z" fill="#ffd966" stroke="none" stroke-width="0"/><path d="M373.52661,100.88289c0,11.3795 -58.76263,20.60439 -131.25,20.60439c-72.48737,0 -131.25,-9.2249 -131.25,-20.60439c0,-11.37949 58.76263,-20.60439 131.25,-20.60439c72.48737,0 131.25,9.2249 131.25,20.60439z" fill="#ffffff" stroke="#000000" stroke-width="5"/><path d="M218.47239,144.11467l-16.24476,-23.58272l45.33844,2.9686z" fill="#ffffff" stroke="#000000" stroke-width="5"/><path d="M207.42104,125.49291l-0.31943,-13.69884l31.53056,1.6876l0.31943,13.69884z" fill="#ffffff" stroke="none" stroke-width="0"/><text transform="translate(140.02661,106.11229) scale(0.36703,0.40249)" font-size="40" xml:space="preserve" fill="#000000" fill-rule="nonzero" stroke="#000000" stroke-width="3" stroke-linecap="butt" stroke-linejoin="miter" stroke-miterlimit="10" stroke-dasharray="" stroke-dashoffset="0" font-family="Sans Serif" font-weight="normal" text-anchor="start" style="mix-blend-mode: normal"><tspan x="0" dy="0">i cant afford rn maybe lator</tspan></text></g></g></svg>