<svg version="1.1" xmlns="http://www.w3.org/2000/svg" xmlns:xlink="http://www.w3.org/1999/xlink" width="207" height="284.21323" viewBox="0,0,207,284.21323"><g transform="translate(-136.5,-34.09446)"><g data-paper-data="{&quot;isPaintingLayer&quot;:true}" fill-rule="nonzero" stroke-linejoin="miter" stroke-miterlimit="10" stroke-dasharray="" stroke-dashoffset="0" style="mix-blend-mode: normal"><path d="M136.5,315.63284v-281.53838h207v281.53838z" fill="#484848" stroke="none" stroke-width="0" stroke-linecap="butt"/><path d="M146,182.59452v-29.5h186v29.5z" fill="#484848" stroke="#000000" stroke-width="1.825" stroke-linecap="butt"/><path d="M163,151.59451v-37.756h154.5v37.756z" fill="#484848" stroke="#000000" stroke-width="2.5" stroke-linecap="butt"/><text transform="translate(173.59507,140.96951) scale(0.68418,0.68418)" font-size="40" xml:space="preserve" fill="#ffffff" fill-rule="nonzero" stroke="#000000" stroke-width="2" stroke-linecap="butt" stroke-linejoin="miter" stroke-miterlimit="10" stroke-dasharray="" stroke-dashoffset="0" font-family="Sans Serif" font-weight="normal" text-anchor="start" style="mix-blend-mode: normal"><tspan x="0" dy="0">key house</tspan></text><text transform="translate(146.5,173.59452) scale(0.3653,0.5)" font-size="40" xml:space="preserve" fill="#ffffff" fill-rule="nonzero" stroke="none" stroke-width="1" stroke-linecap="butt" stroke-linejoin="miter" stroke-miterlimit="10" stroke-dasharray="" stroke-dashoffset="0" font-family="Sans Serif" font-weight="normal" text-anchor="start" style="mix-blend-mode: normal"><tspan x="0" dy="0">use this to unlock the door</tspan></text><path d="M151,260.5945v-64h175.5v64z" fill="#29ff00" stroke="none" stroke-width="0" stroke-linecap="butt"/><text transform="translate(157.5,244.19965) scale(2.26562,1.275)" font-size="40" xml:space="preserve" fill="#000000" fill-rule="nonzero" stroke="none" stroke-width="1" stroke-linecap="butt" stroke-linejoin="miter" stroke-miterlimit="10" stroke-dasharray="" stroke-dashoffset="0" font-family="Sans Serif" font-weight="normal" text-anchor="start" style="mix-blend-mode: normal"><tspan x="0" dy="0">buy</tspan></text><path d="M163.37085,313.12252v-49.70539h150.62241v49.70539z" fill="#757575" stroke="#000000" stroke-width="0.5" stroke-linecap="butt"/><text transform="translate(166.35944,304.19249) scale(1.60823,1.14276)" font-size="40" xml:space="preserve" fill="#29ff00" fill-rule="nonzero" stroke="#000000" stroke-width="1" stroke-linecap="butt" stroke-linejoin="miter" stroke-miterlimit="10" stroke-dasharray="" stroke-dashoffset="0" font-family="Sans Serif" font-weight="normal" text-anchor="start" style="mix-blend-mode: normal"><tspan x="0" dy="0">2000</tspan></text><path d="M278.07469,72.91012c3.90653,8.76279 -3.23273,20.461 -15.94597,26.12868c-12.71325,5.66767 -26.18624,3.15858 -30.09277,-5.60421c-3.90653,-8.76279 3.23273,-20.461 15.94597,-26.12868c12.71325,-5.66767 26.18624,-3.15858 30.09277,5.60421z" fill="none" stroke="#ffd200" stroke-width="10" stroke-linecap="butt"/><path d="M228.82057,76.98371l-42.11229,-11.31704l13.00942,-18.8581" fill="none" stroke="#ffd200" stroke-width="10" stroke-linecap="round"/><path d="M205.36126,68.70614l13.22057,-18.38447" fill="none" stroke="#ffd200" stroke-width="10" stroke-linecap="round"/></g></g></svg>