<svg version="1.1" xmlns="http://www.w3.org/2000/svg" xmlns:xlink="http://www.w3.org/1999/xlink" width="147.5" height="203" viewBox="0,0,147.5,203"><defs><linearGradient x1="246" y1="279.83333" x2="246" y2="178.33333" gradientUnits="userSpaceOnUse" id="color-1"><stop offset="0" stop-color="#3e3e3e" stop-opacity="0"/><stop offset="1" stop-color="#3e3e3e"/></linearGradient></defs><g transform="translate(-166.25,-78.5)"><g data-paper-data="{&quot;isPaintingLayer&quot;:true}" fill-rule="nonzero" stroke-linejoin="miter" stroke-miterlimit="10" stroke-dasharray="" stroke-dashoffset="0" style="mix-blend-mode: normal"><path d="M312.75,178.33333v101.5h-133.5v-101.5z" data-paper-data="{&quot;index&quot;:null}" fill="url(#color-1)" stroke="none" stroke-width="none" stroke-linecap="butt"/><path d="M222.75,145.23251v-60.86005h10v60.86005z" fill="#ffffff" stroke="none" stroke-width="0" stroke-linecap="butt"/><path d="M171.75,178.33183v-12.81264h49.5v12.81264z" fill="#ababab" stroke="none" stroke-width="0" stroke-linecap="butt"/><path d="M295.75,172.99323v-4.80474h10v4.80474z" fill="#ababab" stroke="none" stroke-width="0" stroke-linecap="butt"/><path d="M278.25,172.45937v-4.80474h12v4.80474z" fill="#ababab" stroke="none" stroke-width="0" stroke-linecap="butt"/><path d="M255.25,172.99323v-6.40632h13.5v6.40632z" fill="#ababab" stroke="none" stroke-width="0" stroke-linecap="butt"/><path d="M234.25,175.12867v-8.54176h13v8.54176z" fill="#ababab" stroke="none" stroke-width="0" stroke-linecap="butt"/><path d="M230.25,177.79797v-7.47404h79.5v7.47404z" fill="#b5b5b5" stroke="none" stroke-width="0" stroke-linecap="butt"/><path d="M183.25,281.5v-78.71219h28.5v78.71219z" fill="#b56000" stroke="none" stroke-width="0" stroke-linecap="butt"/><path d="M274.75,280.43228v-78.71219h28v78.71219z" fill="#b56000" stroke="none" stroke-width="0" stroke-linecap="butt"/><path d="M171.25,208.76185v-30.96388h142.5v30.96388z" fill="#b56000" stroke="none" stroke-width="0" stroke-linecap="butt"/><path d="M188.25,172.45937v-24.55756h17.5v24.55756z" fill="#ababab" stroke="none" stroke-width="0" stroke-linecap="butt"/><path d="M177.25,150.57111v-72.07111h53v72.07111z" fill="#ababab" stroke="none" stroke-width="0" stroke-linecap="butt"/><path d="M166.25,143.09707l0.5,-58.19074l12.5,-5.3386l-0.5,71.53725z" fill="#ababab" stroke="none" stroke-width="0" stroke-linecap="butt"/><path d="M180.25,142.56321v-57.12302h42.5v57.12302z" fill="#9c9c9c" stroke="none" stroke-width="0" stroke-linecap="butt"/><path d="M217.25,95.58352h-33" fill="none" stroke="#828282" stroke-width="2.5" stroke-linecap="round"/><path d="M186.25,113.2009l27.5,-0.53386" fill="none" stroke="#828282" stroke-width="2.5" stroke-linecap="round"/><path d="M186.75,131.886l28,-1.60158" fill="none" stroke="#828282" stroke-width="2.5" stroke-linecap="round"/></g></g></svg>