<svg version="1.1" xmlns="http://www.w3.org/2000/svg" xmlns:xlink="http://www.w3.org/1999/xlink" width="207" height="284.65329" viewBox="0,0,207,284.65329"><g transform="translate(-136.5,-34.09446)"><g data-paper-data="{&quot;isPaintingLayer&quot;:true}" fill-rule="nonzero" stroke-linecap="butt" stroke-linejoin="miter" stroke-miterlimit="10" stroke-dasharray="" stroke-dashoffset="0" style="mix-blend-mode: normal"><path d="M136.5,315.63284v-281.53838h207v281.53838z" fill="#484848" stroke="none" stroke-width="0"/><path d="M146,182.59452v-29.5h186v29.5z" fill="#484848" stroke="#000000" stroke-width="1.825"/><path d="M163,151.59451v-37.756h154.5v37.756z" fill="#484848" stroke="#000000" stroke-width="2.5"/><text transform="translate(165.03248,140.0207) scale(0.54454,0.68418)" font-size="40" xml:space="preserve" fill="#ffffff" fill-rule="nonzero" stroke="#000000" stroke-width="2" stroke-linecap="butt" stroke-linejoin="miter" stroke-miterlimit="10" stroke-dasharray="" stroke-dashoffset="0" font-family="Sans Serif" font-weight="normal" text-anchor="start" style="mix-blend-mode: normal"><tspan x="0" dy="0">fishing worker</tspan></text><path d="M151,260.5945v-64h175.5v64z" fill="#29ff00" stroke="none" stroke-width="0"/><text transform="translate(157.5,244.19965) scale(2.26562,1.275)" font-size="40" xml:space="preserve" fill="#000000" fill-rule="nonzero" stroke="none" stroke-width="1" stroke-linecap="butt" stroke-linejoin="miter" stroke-miterlimit="10" stroke-dasharray="" stroke-dashoffset="0" font-family="Sans Serif" font-weight="normal" text-anchor="start" style="mix-blend-mode: normal"><tspan x="0" dy="0">buy</tspan></text><path d="M163.37085,313.12252v-49.70539h150.62241v49.70539z" fill="#757575" stroke="#000000" stroke-width="0.5"/><text transform="translate(171.79265,304.63255) scale(1.47482,1.14276)" font-size="40" xml:space="preserve" fill="#29ff00" fill-rule="nonzero" stroke="#000000" stroke-width="1" stroke-linecap="butt" stroke-linejoin="miter" stroke-miterlimit="10" stroke-dasharray="" stroke-dashoffset="0" font-family="Sans Serif" font-weight="normal" text-anchor="start" style="mix-blend-mode: normal"><tspan x="0" dy="0">1000</tspan></text><path d="M200.9362,109.4357v-38.60865h71.22461v38.60865z" fill="#00bed0" stroke="#000000" stroke-width="2.5"/><path d="M217.21611,69.24467v-33.06857h39.2396v33.06857z" fill="#e8dd00" stroke="#000000" stroke-width="2.5"/><path d="M301.53743,105.30114l-74.48102,6.18753l-1.85724,-12.65227l74.48102,-6.18753z" fill="#a65600" stroke="#000000" stroke-width="2.5"/><path d="M211.51529,111.46968l-16.88005,-36.38679l22.5236,-3.95514l16.88005,36.38679z" fill="#e8dd00" stroke="#000000" stroke-width="2.5"/><path d="M277.50131,108.64512l-27.84424,-26.21263l19.47463,-13.49806l27.84424,26.21263z" fill="#e8dd00" stroke="#000000" stroke-width="2.5"/><text transform="translate(148.53524,174.55533) scale(0.47318,0.5)" font-size="40" xml:space="preserve" fill="#ffffff" fill-rule="nonzero" stroke="none" stroke-width="1" stroke-linecap="butt" stroke-linejoin="miter" stroke-miterlimit="10" stroke-dasharray="" stroke-dashoffset="0" font-family="Sans Serif" font-weight="normal" text-anchor="start" style="mix-blend-mode: normal"><tspan x="0" dy="0">this guy fish for you</tspan></text></g></g></svg>