<svg version="1.1" xmlns="http://www.w3.org/2000/svg" xmlns:xlink="http://www.w3.org/1999/xlink" width="438.11446" height="197.06857" viewBox="0,0,438.11446,197.06857"><g transform="translate(166,-9.58333)"><g data-paper-data="{&quot;isPaintingLayer&quot;:true}" fill-rule="nonzero" stroke-linejoin="miter" stroke-miterlimit="10" stroke-dasharray="" stroke-dashoffset="0" style="mix-blend-mode: normal"><path d="M-166,13.33333c0,-2.07107 1.67893,-3.75 3.75,-3.75c2.07107,0 3.75,1.67893 3.75,3.75c0,2.07107 -1.67893,3.75 -3.75,3.75c-2.07107,0 -3.75,-1.67893 -3.75,-3.75z" fill="#cebe7c" stroke="none" stroke-width="0.5" stroke-linecap="butt"/><path d="M272.11445,180c0,14.71944 -14.37813,26.6519 -32.11445,26.6519c-17.73632,0 -32.11446,-11.93246 -32.11446,-26.6519c0,-14.71944 14.37814,-26.6519 32.11446,-26.6519c17.73633,0 32.11446,11.93246 32.11446,26.6519z" fill="#4c4c4c" stroke="none" stroke-width="0" stroke-linecap="butt"/><path d="M255.38553,193.8666l-36.5,-15.03779l36,-13.78464z" fill="none" stroke="#c2c2c2" stroke-width="5" stroke-linecap="round"/><path d="M235.42702,172.81542c1.1525,-0.53356 2.18716,-1.30845 3.45751,-1.60069c1.13718,-0.26161 2.39486,0.23245 3.5385,-0.00872c0.89833,-0.18944 1.56971,-0.82267 2.35457,-1.23401c1.53598,-0.73756 2.86166,-2.46214 4.60794,-2.21267c10.40325,1.48618 3.97076,9.86167 5.18983,15.10539c0.32464,1.3964 1.96779,2.68486 1.55502,4.06492c-0.63037,2.10761 -1.99126,4.53915 -4.38327,5.39116c-3.47718,1.23853 -5.43861,-2.61404 -7.42591,-3.77535c-0.66393,-0.38797 -1.56971,-0.38348 -2.27288,-0.71976c-0.52446,-0.25081 -0.76632,-0.8772 -1.34864,-1.01217c-0.90441,-0.20962 -1.911,0.25749 -2.81515,0.04709c-4.09195,-0.9522 -8.06724,-3.78566 -12.499,-3.64577c0,0 -3.75,0 -3.75,-3.13287c0,-3.13287 3.75,-3.13287 3.75,-3.13287c1.38596,0.02441 2.81858,0.19266 4.25544,0.45642c0.06844,-1.06834 0.77755,-1.99454 1.81212,-2.51527l3.94495,-2.05984l0.00466,0.00623z" fill="#c2c2c2" stroke="none" stroke-width="0.5" stroke-linecap="butt"/></g></g></svg>