<svg version="1.1" xmlns="http://www.w3.org/2000/svg" xmlns:xlink="http://www.w3.org/1999/xlink" width="64.22892" height="53.3038" viewBox="0,0,64.22892,53.3038"><g transform="translate(-207.88554,-153.3481)"><g data-paper-data="{&quot;isPaintingLayer&quot;:true}" fill-rule="nonzero" stroke-linejoin="miter" stroke-miterlimit="10" stroke-dasharray="" stroke-dashoffset="0" style="mix-blend-mode: normal"><path d="M207.88554,180c0,-14.71944 14.37813,-26.6519 32.11446,-26.6519c17.73632,0 32.11446,11.93246 32.11446,26.6519c0,14.71944 -14.37814,26.6519 -32.11446,26.6519c-17.73632,0 -32.11445,-11.93246 -32.11445,-26.6519z" data-paper-data="{&quot;index&quot;:null}" fill="#4c4c4c" stroke="none" stroke-width="0" stroke-linecap="butt"/><path d="M225.11447,165.04417l36,13.78464l-36.5,15.03779z" data-paper-data="{&quot;index&quot;:null}" fill="none" stroke="#c2c2c2" stroke-width="5" stroke-linecap="round"/><path d="M244.59729,172.83664l0.00466,-0.00623l3.94495,2.05984c1.03457,0.52073 1.74368,1.44693 1.81212,2.51527c1.43686,-0.26376 2.86948,-0.43201 4.25544,-0.45642c0,0 3.75,0 3.75,3.13287c0,3.13287 -3.75,3.13287 -3.75,3.13287c-4.43176,-0.13989 -8.40705,2.69357 -12.499,3.64577c-0.90415,0.2104 -1.91074,-0.25671 -2.81515,-0.04709c-0.58232,0.13497 -0.82418,0.76136 -1.34864,1.01217c-0.70317,0.33628 -1.60895,0.33179 -2.27288,0.71976c-1.9873,1.16131 -3.94873,5.01388 -7.42591,3.77535c-2.39201,-0.85201 -3.7529,-3.28355 -4.38327,-5.39116c-0.41277,-1.38006 1.23038,-2.66852 1.55502,-4.06492c1.21907,-5.24372 -5.21342,-13.61921 5.18983,-15.10539c1.74628,-0.24947 3.07196,1.47511 4.60794,2.21267c0.78486,0.41134 1.45624,1.04457 2.35457,1.23401c1.14364,0.24117 2.40132,-0.25289 3.5385,0.00872c1.27035,0.29224 2.30501,1.06713 3.45751,1.60069z" data-paper-data="{&quot;index&quot;:null}" fill="#c2c2c2" stroke="none" stroke-width="0.5" stroke-linecap="butt"/></g></g></svg>