<svg version="1.1" xmlns="http://www.w3.org/2000/svg" xmlns:xlink="http://www.w3.org/1999/xlink" width="82.02087" height="72.55555" viewBox="0,0,82.02087,72.55555"><defs><linearGradient x1="239.66667" y1="234.88889" x2="239.66667" y2="196.88889" gradientUnits="userSpaceOnUse" id="color-1"><stop offset="0" stop-color="#000000" stop-opacity="0"/><stop offset="1" stop-color="#000000"/></linearGradient></defs><g transform="translate(-198.66667,-162.33333)"><g data-paper-data="{&quot;isPaintingLayer&quot;:true}" fill-rule="nonzero" stroke-linejoin="miter" stroke-miterlimit="10" stroke-dasharray="" stroke-dashoffset="0" style="mix-blend-mode: normal"><path d="M279.83333,196.88889v38h-80.33333v-38z" data-paper-data="{&quot;index&quot;:null}" fill="url(#color-1)" stroke="none" stroke-width="0" stroke-linecap="butt"/><path d="M208.52387,170.7558c4.13204,-1.95728 8.45503,-1.82539 12.92454,-2.20025c2.59594,-0.21772 5.80276,-1.54727 8.39243,-2.19469c1.38272,-0.34568 5.07349,-0.09471 5.62555,-0.13864c6.58825,-0.52431 20.60116,-1.01355 26.77934,3.2436c5.00355,3.44776 16.93429,2.72211 14.77165,12.45399c-1.65189,7.4335 -13.35855,11.012 -19.92023,11.81978c-15.41569,1.89776 -33.11909,2.7183 -45.55499,-5.92351c-2.17805,-1.51354 -6.29999,-0.93897 -8.01353,-3.10742c-1.84473,-2.33447 -2.04521,-4.27579 -1.33728,-5.98641c0.21219,-2.13732 1.77027,-3.87871 3.81474,-4.36465c0.49599,-0.39846 1.87133,-3.39641 2.50186,-3.55404z" fill="#ae602f" stroke="none" stroke-width="0.5" stroke-linecap="butt"/><path d="M222.38984,209.64507c-0.21704,-0.07967 -0.43565,-0.15501 -0.65621,-0.22496c0.07195,0.03689 0.14634,0.0695 0.2236,0.09707c0.1429,0.05098 0.28715,0.09326 0.4326,0.12789zM206.69742,187.99228c2.8193,-0.76112 5.99224,1.47008 8.48886,2.15931c1.09226,0.30154 2.24201,0.36177 3.33333,0.66667c5.46223,1.52605 10.69937,4.64297 16.45197,4.90778c1.78454,0.08215 3.61114,0.41605 5.35908,0.04723c0.82797,-0.1747 1.49986,-0.85381 2.33333,-1c5.26641,-0.92373 10.88941,-0.72671 16.25632,-0.70556c4.18879,-0.79195 8.96687,-5.60465 13.50014,-4.56694c0.44841,-0.67043 1.21242,-1.1119 2.07954,-1.1119c1.38071,0 2.5,1.11929 2.5,2.5v3.33333h-0.08716c0.00638,0.04622 0.01233,0.09258 0.01788,0.13909l0.05055,0.16637c-0.00826,0.02879 -0.01634,0.05766 -0.02426,0.08661c0.08209,0.91987 0.02982,1.89658 0.04299,2.94126c0.0123,0.97544 0.04947,6.75538 -0.23603,7.39372c-1.20167,2.68682 -5.25711,3.94396 -7.41316,5.59304c-0.8379,0.64088 -1.35665,1.68913 -2.28574,2.18873c-3.8139,2.05086 -7.8355,0.11856 -11.72908,0.94011c-0.82797,0.1747 -1.49916,0.85788 -2.33333,1c-2.95497,0.50343 -6.69809,0.05087 -9.71146,0.04795c-4.5539,0.45539 -8.62751,0.22697 -13.09666,-0.34896c-3.08452,-0.3975 -6.83979,0.8347 -9.81844,-0.10956c-1.74166,-0.55212 -3.02792,-2.39983 -4.84822,-2.55711c-3.42339,-0.29579 -3.84964,0.68327 -7.04801,-1.37933c-1.05645,-0.6813 -1.64648,-1.93219 -2.66667,-2.66667c-1.01792,-0.73284 -2.72862,-0.59888 -3.36802,-1.67795c-0.81192,-1.37021 -0.34985,-3.16747 -0.44519,-4.75732c-0.23776,-3.96486 0,-8.02662 0,-12c0,0 0,-2.5 2.5,-2.5c1.26338,0 1.8883,0.63845 2.19742,1.27006z" fill="#ff6666" stroke="none" stroke-width="0.5" stroke-linecap="butt"/><path d="M277.83333,180c0,8.37632 -16.93856,15.16667 -37.83334,15.16667c-20.89478,0 -37.83333,-6.79035 -37.83333,-15.16667c0,-8.37632 16.93855,-15.16667 37.83333,-15.16667c20.89478,0 37.83334,6.79035 37.83334,15.16667z" fill="none" stroke="#000000" stroke-width="5" stroke-linecap="butt"/><path d="M277.83335,179.88889l0.33333,27.33333l-18.66667,7.33333h-39l-18.66667,-6.66667l-0.66667,-28.33333" fill="none" stroke="#000000" stroke-width="5" stroke-linecap="round"/><path d="M210.66667,175.88889c0,-1.38071 1.11929,-2.5 2.5,-2.5c1.38071,0 2.5,1.11929 2.5,2.5c0,1.38071 -1.11929,2.5 -2.5,2.5c-1.38071,0 -2.5,-1.11929 -2.5,-2.5z" fill="#955228" stroke="none" stroke-width="0.5" stroke-linecap="butt"/><path d="M213,183.88889c0,-1.38071 1.11929,-2.5 2.5,-2.5c1.38071,0 2.5,1.11929 2.5,2.5c0,1.38071 -1.11929,2.5 -2.5,2.5c-1.38071,0 -2.5,-1.11929 -2.5,-2.5z" fill="#955228" stroke="none" stroke-width="0.5" stroke-linecap="butt"/><path d="M224,184.88889c0,-1.38071 1.11929,-2.5 2.5,-2.5c1.38071,0 2.5,1.11929 2.5,2.5c0,1.38071 -1.11929,2.5 -2.5,2.5c-1.38071,0 -2.5,-1.11929 -2.5,-2.5z" fill="#955228" stroke="none" stroke-width="0.5" stroke-linecap="butt"/><path d="M238.66667,188.22222c0,-1.38071 1.11929,-2.5 2.5,-2.5c1.38071,0 2.5,1.11929 2.5,2.5c0,1.38071 -1.11929,2.5 -2.5,2.5c-1.38071,0 -2.5,-1.11929 -2.5,-2.5z" fill="#955228" stroke="none" stroke-width="0.5" stroke-linecap="butt"/><path d="M254,182.22222c0,-1.38071 1.11929,-2.5 2.5,-2.5c1.38071,0 2.5,1.11929 2.5,2.5c0,1.13232 -0.7528,2.08882 -1.78521,2.39632c0.85717,0.39638 1.45188,1.26391 1.45188,2.27034c0,1.38071 -1.11929,2.5 -2.5,2.5c-1.38071,0 -2.5,-1.11929 -2.5,-2.5c0,-1.13232 0.7528,-2.08882 1.78521,-2.39632c-0.85717,-0.39638 -1.45188,-1.26391 -1.45188,-2.27034z" fill="#955228" stroke="none" stroke-width="0.5" stroke-linecap="butt"/><path d="M264.33333,183.22222c0,-1.38071 1.11929,-2.5 2.5,-2.5c1.38071,0 2.5,1.11929 2.5,2.5c0,1.38071 -1.11929,2.5 -2.5,2.5c-1.38071,0 -2.5,-1.11929 -2.5,-2.5z" fill="#955228" stroke="none" stroke-width="0.5" stroke-linecap="butt"/><path d="M260.66667,176.55555c0,-1.38071 1.11929,-2.5 2.5,-2.5c1.38071,0 2.5,1.11929 2.5,2.5c0,1.38071 -1.11929,2.5 -2.5,2.5c-1.38071,0 -2.5,-1.11929 -2.5,-2.5z" fill="#955228" stroke="none" stroke-width="0.5" stroke-linecap="butt"/><path d="M236.66667,180.22222c0,-1.38071 1.11929,-2.5 2.5,-2.5c1.38071,0 2.5,1.11929 2.5,2.5c0,1.38071 -1.11929,2.5 -2.5,2.5c-1.38071,0 -2.5,-1.11929 -2.5,-2.5z" fill="#955228" stroke="none" stroke-width="0.5" stroke-linecap="butt"/><path d="M246.33333,184.22222c0,-1.38071 1.11929,-2.5 2.5,-2.5c1.38071,0 2.5,1.11929 2.5,2.5c0,1.38071 -1.11929,2.5 -2.5,2.5c-1.38071,0 -2.5,-1.11929 -2.5,-2.5z" fill="#955228" stroke="none" stroke-width="0.5" stroke-linecap="butt"/><path d="M250,174.88889c0,-1.38071 1.11929,-2.5 2.5,-2.5c1.38071,0 2.5,1.11929 2.5,2.5c0,1.38071 -1.11929,2.5 -2.5,2.5c-1.38071,0 -2.5,-1.11929 -2.5,-2.5z" fill="#955228" stroke="none" stroke-width="0.5" stroke-linecap="butt"/><path d="M237.33333,172.55555c0,-1.38071 1.11929,-2.5 2.5,-2.5c1.38071,0 2.5,1.11929 2.5,2.5c0,1.38071 -1.11929,2.5 -2.5,2.5c-1.38071,0 -2.5,-1.11929 -2.5,-2.5z" fill="#955228" stroke="none" stroke-width="0.5" stroke-linecap="butt"/><path d="M222.66667,176.55555c0,-1.38071 1.11929,-2.5 2.5,-2.5c1.38071,0 2.5,1.11929 2.5,2.5c0,1.38071 -1.11929,2.5 -2.5,2.5c-1.38071,0 -2.5,-1.11929 -2.5,-2.5z" fill="#955228" stroke="none" stroke-width="0.5" stroke-linecap="butt"/><path d="M231.33333,188.55555c0,-1.38071 1.11929,-2.5 2.5,-2.5c1.38071,0 2.5,1.11929 2.5,2.5c0,1.38071 -1.11929,2.5 -2.5,2.5c-1.38071,0 -2.5,-1.11929 -2.5,-2.5z" fill="#955228" stroke="none" stroke-width="0.5" stroke-linecap="butt"/><path d="M230.66667,178.55555c0,-1.38071 1.11929,-2.5 2.5,-2.5c1.38071,0 2.5,1.11929 2.5,2.5c0,1.38071 -1.11929,2.5 -2.5,2.5c-1.38071,0 -2.5,-1.11929 -2.5,-2.5z" fill="#955228" stroke="none" stroke-width="0.5" stroke-linecap="butt"/></g></g></svg>