<svg version="1.1" xmlns="http://www.w3.org/2000/svg" xmlns:xlink="http://www.w3.org/1999/xlink" width="310.07385" height="296.38136" viewBox="0,0,310.07385,296.38136"><g transform="translate(-83.34673,-79)"><g data-paper-data="{&quot;isPaintingLayer&quot;:true}" fill-rule="nonzero" stroke-linecap="butt" stroke-linejoin="miter" stroke-miterlimit="10" stroke-dasharray="" stroke-dashoffset="0" style="mix-blend-mode: normal"><text transform="translate(85.81558,361.20833) scale(0.98754,0.98754)" font-size="40" xml:space="preserve" fill="#ff0000" fill-rule="nonzero" stroke="#ff0000" stroke-width="5" stroke-linecap="butt" stroke-linejoin="miter" stroke-miterlimit="10" stroke-dasharray="" stroke-dashoffset="0" font-family="Sans Serif" font-weight="normal" text-anchor="start" style="mix-blend-mode: normal"><tspan x="0" dy="0">already brought</tspan></text><path d="M136.5,320.56607v-241.56607h207v241.56607z" fill="#484848" stroke="none" stroke-width="0"/><path d="M146,227.5v-29.5h186v29.5z" fill="#484848" stroke="#000000" stroke-width="1.825"/><path d="M163,196.5v-37.756h154.5v37.756z" fill="#484848" stroke="#000000" stroke-width="2.5"/><text transform="translate(187.46586,186.45806) scale(0.68418,0.68418)" font-size="40" xml:space="preserve" fill="#ffffff" fill-rule="nonzero" stroke="#000000" stroke-width="2" stroke-linecap="butt" stroke-linejoin="miter" stroke-miterlimit="10" stroke-dasharray="" stroke-dashoffset="0" font-family="Sans Serif" font-weight="normal" text-anchor="start" style="mix-blend-mode: normal"><tspan x="0" dy="0">BROOM</tspan></text><text transform="translate(148.5,219.28094) scale(0.30082,0.54947)" font-size="40" xml:space="preserve" fill="#ffffff" fill-rule="nonzero" stroke="none" stroke-width="1" stroke-linecap="butt" stroke-linejoin="miter" stroke-miterlimit="10" stroke-dasharray="" stroke-dashoffset="0" font-family="Sans Serif" font-weight="normal" text-anchor="start" style="mix-blend-mode: normal"><tspan x="0" dy="0">fill floppa food and clean POOP</tspan></text><path d="M151,305.5v-64h175.5v64z" fill="#29ff00" stroke="none" stroke-width="0"/><text transform="translate(157.5,289.10514) scale(2.26562,1.275)" font-size="40" xml:space="preserve" fill="#000000" fill-rule="nonzero" stroke="none" stroke-width="1" stroke-linecap="butt" stroke-linejoin="miter" stroke-miterlimit="10" stroke-dasharray="" stroke-dashoffset="0" font-family="Sans Serif" font-weight="normal" text-anchor="start" style="mix-blend-mode: normal"><tspan x="0" dy="0">buy</tspan></text><path d="M164.16798,106.15271c0.09062,-0.05684 0.1932,-0.10552 0.30445,-0.14713c-0.34939,-0.66311 -1.33012,-1.56212 -0.85792,-2.22405c0.70069,-0.98223 3.34322,-1.03896 4.98664,-1.75983c0.40847,-0.17916 0.26637,-0.42305 0.64613,-0.60678c0.47843,-0.23146 1.33529,-0.39157 1.87506,-0.61294c0.97883,-0.40146 1.31797,-0.90367 2.35294,-1.29469c2.47666,-0.93574 5.81597,-1.73222 8.92149,-2.52853c0.90927,-0.23315 4.79534,-1.24009 5.30452,-1.30927c0.97274,-0.13217 2.16519,-0.06182 3.24778,-0.09274c3.72709,0.03101 8.92758,0.24757 11.87959,0.95302c1.12551,0.26897 2.57275,0.55288 2.80196,0.95431c0.17846,0.31255 -2.94336,1.71564 -3.65224,1.96449c-2.07724,0.72925 -5.25341,1.35461 -7.72796,1.98913c-6.35012,1.62829 -12.96421,3.0992 -19.30828,4.7227c-1.99182,0.41733 -4.15587,0.77506 -6.36619,1.10222l-3.21362,-0.29729c0,0 -2.09964,-0.24481 -1.19434,-0.8126zM169.01123,105.85396c0.97304,-0.2146 1.96102,-0.42428 2.95358,-0.63222c6.92992,-1.7808 14.17159,-3.40768 21.13009,-5.19196c2.6778,-0.68663 4.80946,-1.27318 6.9215,-2.07907c0.29928,-0.11419 1.0466,-0.16144 1.08236,-0.30107c0.02473,-0.09659 -0.64933,-0.08164 -0.97385,-0.12253c-0.64329,-0.08107 -1.27958,-0.16632 -1.92955,-0.24339c-2.49968,-0.2964 -4.44425,-0.45511 -7.16058,-0.47056c-2.79833,-0.01909 -5.2484,1.00062 -7.26134,1.51677c-2.32696,0.59668 -4.73039,1.21623 -6.6101,1.9085c-1.00311,0.36943 -1.28176,0.85478 -2.20906,1.23842c-0.47054,0.19467 -1.26879,0.32463 -1.68746,0.52777c-0.41888,0.20324 -0.30287,0.4711 -0.77287,0.66599c-0.95973,0.39794 -4.12495,0.77791 -4.37356,1.32196c-0.25729,0.56307 0.60215,1.30101 0.88861,1.85645c0,0 0.00088,0.0017 0.00222,0.00495z" fill="#955228" stroke="none" stroke-width="0.5"/><path d="M168.98305,105.85919c-0.28646,-0.55545 -1.15469,-1.29551 -0.89739,-1.85858c0.24862,-0.54406 3.4117,-0.92476 4.37143,-1.3227c0.47,-0.19488 0.35017,-0.46442 0.76905,-0.66766c0.41867,-0.20315 1.21451,-0.33462 1.68506,-0.52929c0.92729,-0.38364 1.20752,-0.87828 2.21063,-1.24771c1.87971,-0.69227 4.3341,-1.31875 6.66106,-1.91543c2.01292,-0.51615 4.47772,-1.53425 7.27604,-1.51516c2.71633,0.01545 4.67249,0.17694 7.17217,0.47334c0.64997,0.07707 1.28861,0.16318 1.9319,0.24426c0.32452,0.0409 0.99961,0.02636 0.97487,0.12296c-0.03576,0.13963 -0.78266,0.18708 -1.08195,0.30127c-2.11204,0.80589 -4.23893,1.39557 -6.91673,2.0822c-6.95851,1.78428 -14.26815,3.42484 -21.19808,5.20564c-0.99257,0.20794 -1.98279,0.41723 -2.95582,0.63183c-0.00134,-0.00325 -0.00224,-0.00496 -0.00224,-0.00496z" data-paper-data="{&quot;noHover&quot;:false,&quot;origItem&quot;:[&quot;Path&quot;,{&quot;applyMatrix&quot;:true,&quot;segments&quot;:[[[86.74678,219.58828],[0.01594,-0.02106],[2.73804,0.20484]],[[94.95122,220.32256],[-2.73198,-0.2733],[20.90488,-0.02256]],[[157.36882,221.64968],[-20.9696,0],[8.06958,0]],[[179.9199,219.86422],[-7.8354,1.55102],[1.1103,-0.21978]],[[183.3126,219.72612],[-0.83366,0.76554],[0.5767,-0.52956]],[[182.44904,217.5418],[0.2874,0.72828],[-0.56968,-1.44364]],[[180.74142,213.21034],[0.60256,1.43022],[-2.31736,-5.50034]],[[171.99712,199.67512],[4.22434,4.17776],[-4.33424,-4.32244]],[[152.03548,197.64968],[6.066,0],[-7.01234,0]],[[130.9276,198.90278],[6.83452,-1.2339],[-3.64726,0.65848]],[[120.53164,202.84592],[3.60602,-0.85592],[-1.82978,0.4343]],[[114.91744,203.40382],[1.79466,-0.56208],[-1.79548,0.56232]],[[109.9855,206.14886],[1.83016,-0.43638],[-3.73708,0.89104]],[[95.69004,207.32542],[3.42164,-2.8184],[-3.54124,2.91692]],[[86.77082,219.55588],[2.63594,-3.69032],[0,0]]],&quot;closed&quot;:true,&quot;fillColor&quot;:[0,0,0,1],&quot;strokeWidth&quot;:0.5}]}" fill="#ae602f" stroke="none" stroke-width="0.25"/><path d="M182.3802,108.59763c2.01254,0.49493 3.80402,1.14352 5.61206,1.65916c5.07311,1.44682 10.40234,2.84922 14.46042,4.49507c2.2751,0.92272 2.62309,2.02772 4.18563,3.02002c0.20219,0.0972 0.47024,0.18817 0.70891,0.28193c0.23977,-0.08066 0.49352,-0.15963 0.69527,-0.24553c0.6658,-0.28344 1.18727,-0.59336 1.95021,-0.85829c0.56689,-0.19685 1.41001,-0.32526 2.0064,-0.51563c1.65607,-0.52862 2.21141,-1.23675 3.84103,-1.78019c5.20169,-1.73462 11.55005,-3.68359 18.35906,-5.04843c1.39745,-0.28011 2.9181,-0.52103 4.18036,-0.8447c1.48443,-0.22657 2.6527,-0.58484 4.12333,-0.81789c0.86351,-0.13684 1.97137,-0.1322 2.83009,-0.27124c0.75373,-0.12203 1.17043,-0.36137 1.89841,-0.49434c0.79889,-0.14593 1.81239,-0.18882 2.62033,-0.33106c1.1433,-0.20127 2.28517,-0.83096 3.74002,-0.97327c-0.45028,-0.10958 -0.77844,-0.2607 -1.2074,-0.3785c-1.75853,-0.48292 -3.91985,-0.39531 -6.41292,-0.4133c-5.22853,-0.03772 -10.45685,-0.31316 -15.27237,-0.91947c-2.83836,-0.35737 -4.47036,-0.88965 -7.19776,-1.28327c-3.61961,-1.01077 -7.18175,-2.03658 -10.76182,-3.05759c-2.38378,-0.67983 -5.53219,-1.45779 -6.50438,-2.39907c-0.11984,-0.11603 0.46546,-0.23744 0.31755,-0.35108c-0.09515,-0.0731 -0.34641,0.12373 -0.53866,0.1812c-0.40492,0.12104 -0.82161,0.23931 -1.25143,0.3539c-1.16393,0.3103 -2.5328,0.56738 -3.5699,0.909c-1.06344,0.35031 -1.62809,0.79862 -2.70052,1.14691c-2.21465,0.71925 -5.19674,1.33892 -7.71259,1.98403c-4.75242,1.2186 -9.58559,2.85524 -15.19244,3.76315c-1.07056,0.17336 -2.34745,0.24264 -3.39804,0.42471c-1.43517,0.24871 -2.61063,0.60677 -4.08475,0.83459c0.07038,0.0076 0.12798,0.01329 0.17014,0.01625c0.7298,0.05123 1.51915,0.08841 2.33281,0.12229c0.58837,-0.03594 1.13359,0.01149 1.50068,0.06046c1.87191,0.0763 3.75893,0.169 5.25761,0.40135c1.05671,0.16383 1.86422,0.42408 2.7963,0.63612l1.75857,0.50042c0,0 0.26231,0.07481 0.45976,0.1923zM170.45724,108.08291c-1.90067,-0.09025 -3.85467,-0.16599 -5.73706,-0.39687c-1.50943,-0.18514 -3.97451,-0.20127 -4.38141,-0.63577c-0.98394,-1.05065 5.311,-1.32377 7.21335,-1.71421c2.5284,-0.51892 5.38154,-0.86137 7.77692,-1.4314c4.23163,-1.007 8.21266,-2.10693 12.30401,-3.15602c2.37944,-0.61013 5.23431,-1.19411 7.33072,-1.87334c2.32538,-0.75342 3.9063,-1.48367 6.6523,-2.1666c2.0317,-0.50529 3.81794,-1.12214 7.3868,-0.68189c1.14656,0.14144 0.93898,0.63306 1.48451,0.94027c0.64011,0.36047 1.30802,0.72203 2.18424,1.04414c3.81104,1.401 9.23429,2.60235 13.60122,3.88384c1.54766,0.22336 2.82975,0.56096 4.22974,0.84683c2.9327,0.59883 7.24932,0.77564 10.70987,1.02508c3.58957,0.25872 7.97619,-0.13689 11.44636,0.21864c1.71405,0.17561 7.42174,1.67826 7.10771,2.19175c-0.24346,0.3981 -2.42705,0.4706 -3.5796,0.72687c-4.86419,1.08158 -9.64002,2.0196 -15.08985,2.85141c-1.26226,0.32367 -2.77549,0.56731 -4.18037,0.8447c-3.26573,0.6448 -6.13808,1.5803 -9.07694,2.33387c-1.6729,0.42896 -4.14586,0.8839 -5.48105,1.39176c-2.37733,0.90426 -4.19828,2.0288 -6.83119,2.89505c-0.57564,0.18939 -1.4165,0.31247 -1.97566,0.50544c-1.59425,0.55019 -3.74826,2.26021 -7.44413,2.10138c-0.53917,-0.02317 -3.02165,-1.24701 -3.5732,-1.51036c-1.43224,-0.92093 -1.73344,-2.02891 -3.86137,-2.86947c-4.00128,-1.58056 -9.0789,-2.93709 -13.99926,-4.34034c-1.96011,-0.55901 -3.93129,-1.33483 -6.22938,-1.78817c-0.77885,-0.15364 -1.78656,-0.2096 -2.55159,-0.36825c-0.6174,-0.12803 -0.83848,-0.3793 -1.52666,-0.47746c-0.66233,-0.09447 -1.55316,0.02408 -2.23574,-0.05917c-0.63209,-0.07709 -1.15236,-0.20455 -1.67327,-0.33172z" fill="#a16d3d" stroke="none" stroke-width="0.5"/><path d="M181.87613,108.40839l-1.75926,-0.50127c-0.93211,-0.21204 -1.74014,-0.47331 -2.79684,-0.63714c-1.49869,-0.23234 -3.38587,-0.32569 -5.25777,-0.40198c-0.36709,-0.04896 -0.91233,-0.09648 -1.5007,-0.06054c-0.81366,-0.03388 -1.60303,-0.07121 -2.33282,-0.12244c-0.04217,-0.00296 -0.09977,-0.00866 -0.17014,-0.01627c1.47413,-0.22781 2.64964,-0.58683 4.08481,-0.83554c1.05059,-0.18206 2.32766,-0.25197 3.39822,-0.42532c5.60685,-0.90792 10.451,-2.55139 15.20341,-3.77c2.51585,-0.64511 5.51193,-1.26772 7.72659,-1.98697c1.07244,-0.34829 1.64303,-0.79727 2.70647,-1.14758c1.03709,-0.34162 2.41193,-0.59912 3.57587,-0.90943c0.42982,-0.11459 0.84843,-0.23296 1.25336,-0.35399c0.19225,-0.05747 0.44436,-0.25432 0.53949,-0.18123c0.14791,0.11365 -0.43806,0.23508 -0.31821,0.35111c0.97218,0.94128 4.13036,1.71913 6.51414,2.39897c3.58007,1.02101 7.17065,2.05025 10.79027,3.06102c2.7274,0.39361 4.36987,0.93003 7.20822,1.2874c4.81551,0.60631 10.04694,0.88482 15.27548,0.92254c2.49307,0.01799 4.65467,-0.06891 6.41322,0.41401c0.42897,0.1178 0.75722,0.26935 1.20749,0.37893c-1.45485,0.14231 -2.59671,0.77309 -3.74001,0.97437c-0.80794,0.14224 -1.82153,0.18558 -2.62043,0.33151c-0.72798,0.13298 -1.14497,0.37301 -1.8987,0.49505c-0.85871,0.13904 -1.9669,0.13492 -2.83041,0.27177c-1.47064,0.23305 -2.64034,0.59288 -4.12477,0.81945c-1.26226,0.32367 -2.78576,0.56645 -4.18321,0.84656c-6.80901,1.36483 -13.19091,3.32037 -18.39261,5.055c-1.62962,0.54344 -2.19089,1.25172 -3.84696,1.78034c-0.59639,0.19037 -1.44192,0.31878 -2.00881,0.51563c-0.76293,0.26493 -1.28642,0.57483 -1.95221,0.85826c-0.20175,0.08589 -0.45618,0.16486 -0.69594,0.24551c-0.23866,-0.09375 -0.50755,-0.18475 -0.70976,-0.28195c-1.56255,-0.99229 -1.918,-2.09767 -4.19311,-3.02039c-4.05808,-1.64585 -9.41399,-3.05366 -14.4871,-4.50047c-1.80803,-0.51564 -3.60464,-1.16736 -5.61719,-1.66229c-0.19745,-0.11749 -0.46008,-0.19262 -0.46008,-0.19262z" data-paper-data="{&quot;noHover&quot;:false,&quot;origItem&quot;:[&quot;Path&quot;,{&quot;applyMatrix&quot;:true,&quot;segments&quot;:[[[46.34754,127.90159],[0.1702,-0.49325],[0.21986,2.96618]],[[46.18441,136.99151],[0,-2.87307],[0,8.06146]],[[45.15213,161.05863],[1.35904,-7.8818],[-0.76192,4.41881]],[[40.07136,173.06812],[1.52082,-4.08687],[-0.10998,0.43729]],[[39.84949,174.42859],[0.07146,-0.45461],[0.41462,-0.05626]],[[41.08418,174.2313],[-0.39901,0.10021],[1.31677,-0.3307]],[[45.01924,173.1803],[-1.34236,0.20332],[0.99742,-0.15107]],[[48.04562,173.17691],[-1.00279,0.10986],[2.78455,-0.30506]],[[56.04562,170.84358],[-2.80478,0.36842],[8.95279,-1.17599]],[[84.65653,169.84358],[-9.19927,-1.11818],[1.88802,0.22949]],[[90.3232,170.51024],[-1.90192,0],[1.80807,0.45202]],[[95.87005,171.21264],[-1.81517,-0.42262],[1.06581,0.24815]],[[98.87005,172.54597],[-1.0681,-0.23811],[0.93751,0.209]],[[101.75153,172.52379],[-0.94752,-0.15753],[1.03982,0.17287]],[[104.75153,173.52379],[-1.03673,-0.19051],[1.46705,0.26959]],[[110.42654,173.48193],[-1.5502,-0.67696],[-0.0524,-0.66024]],[[110.52157,171.4631],[0.01263,0.66833],[-0.05176,-2.73982]],[[106.58331,165.42594],[1.92798,1.92836],[-4.0434,-4.04419]],[[97.02406,151.23864],[2.13391,5.40166],[-1.25777,-3.18385]],[[94.88336,142.05863],[1.0689,3.2067],[-0.05987,-5.68864]],[[94.85107,124.99151],[0,5.68894],[0,-3.78796]],[[96.36466,113.05942],[-1.84731,3.49307],[0.22773,-0.43061]],[[97.59333,112.26827],[-0.19881,0.4447],[0.12788,-0.28605]],[[96.66187,112.39463],[0.31241,-0.02398],[-0.65801,0.0505]],[[94.68441,112.49151],[0.65982,-0.01284],[-1.78674,0.03478]],[[89.3232,112.47278],[1.77323,-0.22208],[-1.81829,0.22773]],[[83.98987,113.80611],[1.81983,-0.21506],[-3.75806,0.44411]],[[72.35107,113.82484],[3.7908,0],[-7.16075,0]],[[49.82819,113.43622],[6.97434,1.55434],[-1.33166,-0.29678]],[[45.95062,112.1259],[1.34005,0.25621],[-1.83059,-0.34999]],[[40.38792,111.50151],[1.80336,0.44062],[0.03467,0.07526]],[[40.4777,111.67718],[-0.02522,-0.0404],[0.43652,0.69934]],[[41.98836,113.79098],[-0.55131,-0.71154],[0.5668,0.33719]],[[43.01082,115.09734],[-0.15503,-0.41983],[1.27293,1.63212]],[[46.06569,120.23028],[-0.54268,-1.80918],[0.38264,1.27563]],[[46.51464,124.20031],[-0.14965,-1.32334],[0,0]],[46.51774,126.99151]],&quot;closed&quot;:true}]}" fill="#de9754" stroke="none" stroke-width="0.5"/><text transform="translate(198.7484,111.70874) rotate(-18.21667) scale(0.21292,0.1289) skewX(45.50555)" font-size="40" xml:space="preserve" fill="#ffffff" fill-rule="nonzero" stroke="#000000" stroke-width="1" stroke-linecap="butt" stroke-linejoin="miter" stroke-miterlimit="10" stroke-dasharray="" stroke-dashoffset="0" font-family="Sans Serif" font-weight="normal" text-anchor="start" style="mix-blend-mode: normal"><tspan x="0" dy="0">floppa</tspan></text><path d="M191.00306,135.09593c-0.04475,0.7465 0.54772,1.48925 0.07308,2.25969c-1.06842,1.73424 -4.88933,3.63121 -9.41712,5.01157c0.11583,-0.53872 0.47999,-0.97797 1.30669,-1.25317c2.41294,-0.80326 2.56148,-1.54394 1.67375,-2.2664c0.91872,-0.56696 1.59448,-1.14155 1.923,-1.69048c0.48208,-0.80551 -0.13345,-1.56654 -0.04125,-2.35753l-0.00002,0c-0.60505,-0.09546 -1.3857,-0.2978 -1.01144,-0.68229c0.58203,-0.59795 2.7932,-0.44056 2.7932,-0.44056l2.47339,0.17988c4.34217,0.05279 7.44029,0.55002 10.87224,1.23565c0.84053,0.06852 1.75336,0.09069 2.52161,0.20558c0.61666,0.09222 0.85663,0.33141 1.51646,0.39831c0.75394,0.07644 1.64032,-0.05846 2.41559,0.00036c2.39998,0.18208 4.43389,0.64501 6.84916,0.81166c1.54585,0.10665 3.18958,0.02403 4.78376,0.04073c3.45256,0.03617 6.90511,0.07233 10.35766,0.10849c2.09887,0.02199 5.33567,0.20902 7.39327,0.094c0.8297,-0.04638 1.47896,-0.23636 2.30071,-0.29214c2.12183,-0.14403 4.3732,-0.05667 6.54742,-0.12212c3.79214,-0.11417 7.44788,-0.41366 11.25509,-0.37378c2.92463,-0.23003 5.1465,-0.07665 8.04327,-0.16661c3.02427,-0.09392 5.85111,-0.29026 8.81799,-0.3993c2.38126,-0.08752 5.1897,0.04477 7.53043,-0.08064c0.98178,-0.0526 1.80268,-0.25474 2.78894,-0.3008c0.75846,-0.03543 5.54939,0.06842 6.3434,0.05598c4.17717,-0.06547 10.08866,-0.56966 13.95397,0.07522c1.20785,0.20152 1.62671,0.62936 2.38593,0.95362c2.08472,0.89038 4.78172,1.76362 5.6626,2.76862c2.79363,2.2848 2.50905,4.50541 2.16755,6.88954c-0.08667,0.60505 0.39866,1.99254 -0.5382,2.54129c-0.50198,0.29404 -1.76599,0.44044 -2.53005,0.68983c-2.00142,0.65326 -3.87981,1.29941 -7.20592,1.5463c-0.94635,0.07024 -1.963,-0.0157 -2.94392,-0.0078c-3.52012,0.02833 -6.96914,0.01045 -10.49595,-0.02649c-5.7881,-0.06063 -11.57623,-0.12126 -17.36433,-0.18189c-2.53067,-0.02651 -5.50772,0.04903 -7.98077,-0.09159c-1.59744,-0.09083 -3.1471,-0.2752 -4.7786,-0.28958c-1.90065,-0.01675 -7.02348,0.10178 -9.14515,-0.40013c-1.50407,0.22277 -2.99223,0.45661 -4.64406,0.56593c-3.31253,0.21922 -8.45439,-0.06877 -11.84753,-0.10432c-6.22151,-0.06517 -13.05399,0.07308 -19.16601,-0.2054c-1.65988,-0.07563 -5.52707,-0.40603 -7.05881,-0.71357c-0.60023,-0.12052 -1.38253,-0.23124 -2.03026,-0.36165c-0.65604,0.05701 -1.30336,0.10023 -1.93408,0.1267c-7.979,0.3349 -16.24793,-0.53401 -23.68766,-1.20549c0.22333,-0.39914 0.30269,-0.83092 0.29962,-1.27681c7.13306,0.60993 14.90384,1.54734 22.64264,1.2622c1.30608,-0.04812 2.76755,-0.2088 4.22278,-0.425c1.10478,-0.22305 2.34167,-0.42258 3.31231,-0.57925c0.69502,-0.13829 1.35491,-0.27954 1.95746,-0.41592c0.33833,-0.12323 0.66425,-0.24809 1.18493,-0.27938c0.03215,-0.00791 0.06401,-0.01578 0.09557,-0.02361c0.4583,-0.11469 2.43756,-0.61001 2.43756,-0.61001c0.42948,-0.10748 1.01058,-0.17065 1.64151,-0.16404c1.26184,0.01322 2.24516,0.30056 2.19628,0.64179c-0.02444,0.17061 -0.30229,0.3224 -0.73177,0.42988l-2.5315,0.63352c-0.52366,0.21424 -1.30174,0.36019 -2.14834,0.48807c-1.08408,0.2318 -2.27223,0.46409 -3.50852,0.67579c-0.09826,0.03223 -0.20293,0.06435 -0.31267,0.09438c0.50829,0.07547 0.98752,0.17467 1.52722,0.23025c1.02604,0.10568 2.07555,0.20471 3.15974,0.25153c2.61751,0.11303 5.29802,0.05086 7.94671,0.07861c4.77265,0.04999 9.54529,0.09999 14.31795,0.14998c1.97933,0.02074 5.14938,0.22866 7.03999,0.09352c1.89544,-0.13548 3.49435,-0.48196 5.28232,-0.69946c1.91001,-0.34705 3.59089,-0.78896 5.60616,-1.08934c0.70477,-0.10504 1.57546,-0.12203 2.32458,-0.19854c0.36072,-0.09383 0.82196,-0.21347 1.26792,-0.3213c0.17415,-0.11378 0.28425,-0.24158 0.48246,-0.35009l0.35219,-0.04291l-0.10343,-0.03023l2.21507,-0.55433l0.79046,0.23099l2.17028,-0.26441c-0.13759,0.21465 -0.2011,0.4352 -0.2837,0.65423l0.87995,0.13073l-1.31295,0.64628l-0.09922,-0.01474c-0.05097,0.04021 -0.10696,0.08003 -0.16864,0.11939c-0.81159,0.51789 -4.80074,0.96878 -6.38471,1.27826c-0.20092,0.03925 -0.55445,0.15901 -0.99401,0.28107c0.05836,0.00107 0.11659,0.0019 0.17466,0.00239c3.11865,0.02657 5.28562,0.16228 8.25,0.34192c2.20698,0.13374 4.98418,0.04422 7.2511,0.06796c5.7881,0.06063 11.57623,0.12126 17.36433,0.18189c3.44031,0.03603 6.8141,0.03336 10.24298,0.02573c0.64561,-0.00143 1.30604,0.08783 1.93028,0.04325c2.34226,-0.16724 3.37535,-0.70443 4.7715,-1.13338c0.53987,-0.16587 1.52002,-0.22322 1.90008,-0.41883c0.291,-0.14977 -0.10055,-0.33762 -0.10159,-0.5068c-0.00322,-0.52213 0.14947,-1.04349 0.22421,-1.56524c0.32436,-2.26442 0.6479,-4.35395 -2.01355,-6.51999c-0.54551,-0.87349 -3.55926,-1.64883 -5.18201,-2.46026c-0.37263,-0.18633 -0.40428,-0.45055 -1.05731,-0.56754c-1.55753,-0.27902 -3.7096,0.00822 -5.23752,0.03852c-1.94437,0.03856 -3.88929,0.07574 -5.83597,0.10456c-1.94645,0.02882 -3.92799,-0.17149 -5.84209,-0.07166c-0.98275,0.05125 -1.80598,0.24984 -2.78893,0.3008c-2.43626,0.12631 -5.29024,-0.00223 -7.74865,0.08933c-0.95506,0.03557 -1.82189,0.18323 -2.77713,0.21842c-4.64198,0.17103 -9.5734,-0.00727 -14.08411,0.3475c-3.8564,-0.04039 -7.58632,0.2644 -11.42969,0.37866c-1.88628,0.05608 -3.85157,-0.05231 -5.68527,0.07976c-0.93808,0.06757 -1.71343,0.26792 -2.66789,0.31585c-2.46556,0.12382 -5.92406,-0.04551 -8.44787,-0.07194c-4.96487,-0.05201 -11.12165,0.14689 -15.93158,-0.17627c-2.45255,-0.16477 -4.51713,-0.63479 -6.95175,-0.81799c-0.98753,-0.07431 -2.10921,0.04104 -3.06788,-0.05707c-0.82638,-0.08458 -1.24565,-0.3493 -2.02118,-0.4638c-0.70055,-0.10343 -1.53692,-0.11666 -2.30538,-0.17499c-2.90524,-0.5591 -5.21658,-1.01265 -8.635,-1.10707z" fill="#c9ad79" stroke="none" stroke-width="0.5"/><path d="M199.59823,136.19694c0.76846,0.05833 1.68423,0.08384 2.38478,0.18727c0.77553,0.1145 1.11544,0.36692 1.94182,0.45149c0.95868,0.09812 2.08119,-0.01761 3.06871,0.0567c2.43462,0.1832 4.50007,0.65285 6.95262,0.81762c4.80993,0.32316 10.98267,0.12028 15.94754,0.17228c2.52382,0.02643 6.00378,0.19422 8.46933,0.0704c0.95447,-0.04793 1.73715,-0.24815 2.67523,-0.31572c1.83371,-0.13208 3.81218,-0.0226 5.69846,-0.07867c3.84337,-0.11426 7.58686,-0.41635 11.44326,-0.37596c4.51072,-0.35477 9.44826,-0.17424 14.09024,-0.34527c0.95524,-0.03519 1.82246,-0.18267 2.77751,-0.21824c2.45841,-0.09156 5.31388,0.03776 7.75014,-0.08855c0.98296,-0.05096 1.80626,-0.24952 2.78901,-0.30077c1.91409,-0.09982 3.89649,0.10102 5.84294,0.07221c1.94668,-0.02882 3.89211,-0.06567 5.83647,-0.10423c1.52792,-0.03029 3.68038,-0.31724 5.2379,-0.03822c0.65303,0.11699 0.68518,0.38161 1.05781,0.56794c1.62275,0.81143 4.63797,1.5885 5.18348,2.462c2.66144,2.16603 2.33769,4.25969 2.01333,6.52411c-0.07473,0.52175 -0.22819,1.04404 -0.22498,1.56617c0.00104,0.16918 0.39229,0.35731 0.10129,0.50708c-0.38007,0.19561 -1.36057,0.25329 -1.90044,0.41916c-1.39616,0.42896 -2.43045,0.96704 -4.77272,1.13428c-0.62423,0.04457 -1.28482,-0.04459 -1.93043,-0.04315c-3.42888,0.00762 -6.80391,0.01103 -10.24422,-0.025c-5.7881,-0.06063 -11.58004,-0.11955 -17.36816,-0.18018c-2.26691,-0.02374 -5.04712,0.06679 -7.25411,-0.06695c-2.96438,-0.17964 -5.1361,-0.31411 -8.25475,-0.34068c-0.05807,-0.0005 -0.17492,-0.0203 -0.23328,-0.02138c0.43955,-0.12205 0.79151,-0.24144 0.99243,-0.2807c1.58398,-0.30947 5.56595,-0.75811 6.37754,-1.276c0.06168,-0.03936 0.11732,-0.07904 0.16829,-0.11925l0.09922,0.01475l1.31103,-0.6454l-0.87997,-0.13073c0.0826,-0.21903 0.14464,-0.43877 0.28223,-0.65342l-2.08799,0.27517l-0.79017,-0.23113l-2.21738,0.55543l0.1034,0.03024l-0.35248,0.04303c-0.1982,0.10852 -0.30955,0.23681 -0.48371,0.35058c-0.44596,0.10783 -0.90893,0.22808 -1.26966,0.32191c-0.74912,0.07651 -1.62218,0.0942 -2.32695,0.19925c-2.01527,0.30038 -3.70557,0.7443 -5.61557,1.09135c-1.78797,0.2175 -3.39624,0.56512 -5.29168,0.7006c-1.89061,0.13513 -5.07278,-0.0722 -7.05211,-0.09294c-4.77265,-0.04999 -9.56929,-0.10151 -14.34194,-0.1515c-2.64869,-0.02775 -5.33756,0.03282 -7.95507,-0.08021c-1.0842,-0.04682 -2.13663,-0.14663 -3.16266,-0.25231c-0.53969,-0.05559 -1.02043,-0.15524 -1.52872,-0.23071c0.10974,-0.03002 0.28414,-0.07815 0.3824,-0.11038c1.23629,-0.2117 2.42407,-0.4441 3.50815,-0.67591c0.8466,-0.12788 1.5557,-0.25759 2.07935,-0.47183l2.53137,-0.63356c0.42948,-0.10748 0.70634,-0.25959 0.73078,-0.43021c0.04888,-0.34123 -0.93827,-0.63007 -2.20013,-0.64329c-0.63093,-0.00661 -1.13286,0.04418 -1.56234,0.15166c0,0 -1.97991,0.49502 -2.43821,0.60971c-0.03157,0.00782 -0.06345,0.01568 -0.0956,0.0236c-0.52069,0.03129 -0.84685,0.15605 -1.18517,0.27929c-0.60255,0.13638 -1.26264,0.27753 -1.95767,0.41582c-0.97064,0.15667 -2.28475,0.36944 -3.38953,0.5925c-1.45523,0.21621 -2.91726,0.37662 -4.22335,0.42475c-7.72284,0.28456 -15.48223,-0.65138 -22.60343,-1.26154c-0.00687,-1.38858 -0.81683,-2.91497 -0.56956,-4.01862c4.5071,-1.38019 8.30648,-3.27338 9.37107,-5.00141c0.47464,-0.77044 -0.11509,-1.51482 -0.07034,-2.26132c3.41842,0.09442 5.73004,0.54784 8.63528,1.10694z" data-paper-data="{&quot;noHover&quot;:false,&quot;origItem&quot;:[&quot;Path&quot;,{&quot;applyMatrix&quot;:true,&quot;segments&quot;:[[[171.06552,222.5038],[3.7496,0.23681],[0.06794,3.01789]],[[171.49901,231.6303],[0.398,-3.13281],[-1.05292,8.28788]],[[159.43986,255.10484],[5.83466,-5.82979],[-2.58087,2.57872]],[[150.85287,260.3235],[2.81824,-2.00101],[-0.84247,0.59817]],[[148.83106,262.67303],[0.82171,-0.62637],[-1.31015,0.9987]],[[144.52364,265.10055],[1.39392,-0.87512],[0.95367,-0.01044]],[[147.35941,265.25103],[-0.92034,-0.22425],[1.04911,0.25563]],[[150.27269,266.66759],[-1.00307,-0.39978],[4.038,1.60936]],[[162.72168,268.25933],[-4.21912,-1.12889],[8.02939,2.14839]],[[188.18174,272.54257],[-8.59712,1.51238],[1.41944,-0.2497]],[[192.72886,270.64677],[-1.55608,0.93509],[1.17213,-0.94793]],[[196.2571,268.16634],[-1.03596,0.67403],[0.73771,-0.58813]],[[198.33065,266.4031],[-0.63698,0.57651],[0.35036,-0.51221]],[[199.58154,265.22421],[-0.56399,0.14846],[0.03389,-0.03332]],[[199.68226,265.12479],[-0.03326,0.03296],[0.48277,-0.48277]],[[202.24997,262.55708],[0,0],[0.45241,-0.45241]],[[204.01774,261.82484],[-0.69036,0],[1.38071,0]],[[206.51774,264.32484],[0,-1.38071],[0,0.69036]],[[205.78551,266.09261],[0.45241,-0.45241],[0,0]],[[203.11884,268.75928],[0,0],[-0.5386,0.88774]],[[200.84804,270.8221],[0.90494,-0.55251],[-1.14814,0.9824]],[[197.12054,273.70088],[1.31758,-0.90764],[-0.10231,0.13435]],[[196.79369,274.09541],[0.1152,-0.12596],[0.56714,0.28341]],[[198.4983,274.96104],[-0.59835,-0.20175],[1.13754,0.38355]],[[201.98987,275.84358],[-1.19188,-0.14327],[2.87747,0.34589]],[[210.68441,275.82484],[-2.89819,0],[5.22222,0]],[[226.35107,275.82484],[-5.22222,0],[2.16578,0]],[[234.0573,275.90477],[-2.04446,0.62598],[2.04968,-0.62757]],[[239.71908,272.85528],[-1.91942,0.95439],[2.03248,-1.48297]],[[245.67366,268.2169],[-2.15479,1.29887],[0.75356,-0.45423]],[[248.18232,267.31639],[-0.80648,0.34081],[0.37942,-0.39433]],[[249.51732,265.96461],[-0.47036,0.45452],[0.17247,-0.46705]],[[249.98964,264.52974],[-0.19957,0.4468],[0,0]],[250.36771,264.34148],[250.24997,264.22374],[252.58331,261.89041],[253.48308,262.79018],[[255.81285,261.63007],[0,0],[-0.11674,0.87305]],[[255.60528,264.28528],[0.05597,-0.88841],[0,0]],[256.58714,264.77621],[255.25381,267.44288],[[255.14309,267.38752],[0,0],[-0.0494,0.16463]],[[254.97752,267.87702],[0.06123,-0.16164],[-0.80566,2.1267]],[[248.20189,273.31161],[1.68215,-1.31737],[-0.21337,0.1671]],[[247.15987,274.48922],[0.46114,-0.51173],[0.06393,0.00188]],[[247.35107,274.49151],[-0.06352,0.00046],[3.41147,-0.02464]],[[256.4182,275.52379],[-3.26687,-0.60032],[2.43219,0.44694]],[[264.35107,275.49151],[-2.48045,0],[6.33333,0]],[[283.35107,275.49151],[-6.33333,0],[3.76437,0]],[[294.54616,275.162],[-3.74505,0.1759],[0.70514,-0.03312]],[[296.66187,275.25506],[-0.67504,0.20649],[2.53288,-0.77481]],[[301.69764,270.47403],[-1.45825,1.79214],[0.56388,-0.69299]],[[303.70804,268.70147],[-0.38463,0.80638],[0.29449,-0.61741]],[[303.51774,266.65818],[0.02762,0.68349],[-0.08523,-2.10939]],[[303.51774,260.32484],[0,2.11111],[0,-9.16242]],[[300.29746,234.06812],[3.24676,8.63855],[-0.7327,-3.50598]],[[294.25079,224.34753],[1.89993,3.20966],[-0.43628,-0.73703]],[[293.00679,222.09933],[0.73178,0.44502],[-1.74536,-1.0614]],[[287.29053,222.47658],[1.6646,-0.18707],[-2.1183,0.23805]],[[280.93075,223.14601],[2.12235,-0.19882],[-2.1221,0.1988]],[[274.53672,223.10372],[2.07564,-0.4843],[-1.06569,0.24866]],[[271.53672,224.43705],[1.06596,-0.2475],[-2.64198,0.61342]],[[263.08486,225.1259],[2.67162,-0.47396],[-1.03789,0.18413]],[[260.08486,226.1259],[1.03815,-0.18262],[-5.04486,0.88746]],[[244.75153,228.1259],[4.8727,-1.62423],[-4.21966,0]],[[232.3232,230.13945],[4.18122,-0.62429],[-2.05209,0.3064]],[[226.12418,230.7023],[1.98276,-0.61123],[-1.01433,0.31269]],[[223.25879,232.0913],[1.03531,-0.23406],[-2.67439,0.60461]],[[214.01774,232.15818],[2.76155,0],[-5.43254,0]],[[196.58398,232.12026],[5.3057,1.10204],[-2.70534,-0.56192]],[[188.86078,229.10963],[2.68863,0.6371],[-1.09056,-0.25842]],[[185.50001,229.00886],[1.06277,0.35586],[-0.91611,-0.30675]],[[183.21917,227.22059],[0.86523,0.42979],[-0.78158,-0.38824]],[[180.67302,226.61113],[0.84872,0.20315],[-3.26164,-2.13593]]],&quot;closed&quot;:true}]}" fill="#c9ad79" stroke="none" stroke-width="0.5"/><path d="M188.05295,135.46482c-0.01343,1.1906 0.27912,2.48951 -0.59135,3.60905c-0.19837,0.25513 -0.80931,0.47746 -1.02012,0.73185c-1.1127,1.34276 0.48669,2.85226 -0.60182,4.20143c-0.69357,0.85966 -4.34032,1.98695 -1.76488,2.82121c1.38315,0.08767 2.64773,0.28766 4.03348,0.37229c2.42076,0.14783 5.22366,0.09158 7.64368,0.24778c1.55695,0.10049 3.08604,0.26962 4.68585,0.28396c1.55586,0.01395 3.07808,0.12936 4.60076,0.21689c0.04522,0.0026 0.09627,0.00533 0.15,0.00767c-0.15362,-0.54328 0.405,-1.11914 0.50217,-1.75256c0.0681,-0.47542 0.1362,-0.95083 0.2043,-1.42625l0.2432,-0.13098c0.54163,-0.07148 1.40009,0.03631 2.05928,0.03134l2.26708,0.14751c-0.08972,0.62632 -0.09708,1.26099 -0.18938,1.89172c-0.04472,0.08672 -0.08858,0.16595 -0.12893,0.23507c-0.23568,0.40382 -1.21214,0.86584 -0.07887,1.21686c-0.01774,0.16281 -0.11936,0.31621 -0.4862,0.4376c-0.89923,0.29755 -1.63443,0.45979 -2.31098,0.53812c-1.44114,-0.3847 -1.9654,-0.77723 -2.08167,-1.18842c0.24001,0.01043 0.53345,0.01292 0.59861,-0.04007c0.42025,-0.34173 -0.2387,-0.71936 -0.18715,-1.07923c0.03024,-0.21109 0.06047,-0.42218 0.09071,-0.63327c0.00132,-0.00858 0.00255,-0.01718 0.00369,-0.02578c0.06574,-0.49434 -0.97576,-1.10676 0.21241,-1.48286c0.06782,-0.02147 0.14564,-0.03728 0.2314,-0.0486l2.23628,-1.20437c0.70062,0.43361 1.65482,0.84335 2.10187,1.30084c0.44466,0.45504 0.10192,1.38641 -0.20118,1.9741c-0.04456,0.30445 -0.10889,0.608 -0.21183,0.90923c-0.05883,0.17215 0.0236,0.36315 0.00403,0.5427c0.13631,0.04222 0.30315,0.08283 0.50546,0.12155c1.25404,0.23997 2.41806,0.53035 3.83354,0.69182c0.62167,0.07092 1.34911,-0.01282 2.02376,-0.01056c2.5369,0.00851 5.08062,0.05322 7.61593,0.07978c6.09275,0.06382 12.18549,0.12765 18.27824,0.19146c2.98532,0.03769 6.09892,-0.054 8.90023,-0.26926c0.19366,-0.01488 0.44356,0.00067 0.67001,0.00798c0.14022,-0.26106 0.39072,-0.54123 0.65231,-0.81409c-0.06501,-0.11686 -0.11929,-0.23324 -0.10353,-0.34497c0.10079,-0.71399 0.20454,-1.42793 0.30681,-2.1419l2.05861,-1.24733c1.13467,0.39804 2.62924,0.73731 3.404,1.19415c0.39562,0.23328 -0.04242,0.51316 -0.07353,0.76967c-0.08616,0.71053 -0.06359,0.92905 -0.5671,1.65321c-0.13157,0.18923 -0.41624,0.37315 -0.68496,0.55682c-0.12997,0.2716 -0.11863,0.56541 -0.40221,0.82394c0.45798,0.08059 1.61669,-0.01853 2.28977,-0.01591c1.7274,0.00672 3.45256,0.03616 5.17884,0.05425c8.99023,0.09418 17.98095,0.18542 26.97057,0.28372c4.90687,-0.11391 9.37532,-0.22777 13.95425,-0.70869c1.58609,-0.16658 3.45641,-0.10853 4.96372,-0.322c2.39584,-0.33931 2.01531,-1.56403 1.97118,-2.13718c-0.15422,-2.00301 -0.00483,-4.04772 0.6456,-6.04893c-1.87423,-0.82467 -2.77092,-1.72064 -4.0827,-2.59408c-0.38588,-0.25693 -2.36277,-0.82229 -2.7636,-1.03188c-0.47163,-0.24661 -0.41385,-0.56041 -1.00582,-0.78725c-0.65838,-0.2523 -3.45019,0.02765 -3.71588,0.03378c-2.57508,0.05942 -4.67609,0.23889 -7.21105,0.33075c-4.3163,0.15642 -8.88944,-0.21253 -13.22867,-0.13328c-1.65091,0.03016 -3.07359,0.34806 -4.69752,0.4339c-1.78878,0.09456 -3.66591,0.01889 -5.44991,0.11984c-5.00573,-0.04952 -9.37262,0.44811 -14.23595,0.66687c-1.88297,0.0847 -3.82244,-0.00841 -5.72526,0.03253c-2.70371,0.05817 -5.20578,0.23206 -7.82033,0.32437c-4.57965,0.16169 -9.80468,-0.09277 -14.4224,-0.14114c-5.31616,-0.05569 -10.91481,0.02969 -16.06632,-0.337c-2.32091,-0.02316 -4.05106,0.00061 -6.36509,-0.27303c-3.26015,-0.38553 -5.814,-1.18377 -9.28189,-1.47548c-2.46563,-0.2074 -5.62597,-0.20491 -8.33357,-0.24126zM186.57702,134.24276l0.07934,-0.00781c3.51012,0.02147 7.72208,0.0111 11.07409,0.2891c3.68481,0.30561 6.41866,1.10975 9.81368,1.52969c1.39948,0.1731 3.66774,0.16136 5.16393,0.17775c4.99464,0.35553 10.41362,0.27039 15.56876,0.32439c4.30969,0.04514 9.35162,0.31815 13.60423,0.15243c2.71594,-0.10584 5.33292,-0.27462 8.13882,-0.3335c1.74997,-0.03672 3.53639,0.06454 5.26529,-0.01736c4.97401,-0.23564 9.49857,-0.7377 14.63595,-0.68078c1.62124,-0.09173 3.32891,-0.01591 4.95496,-0.10119c1.78524,-0.09363 3.38076,-0.4101 5.19247,-0.45255c4.23606,-0.09924 8.77732,0.30039 12.97015,0.14116c4.27755,-0.16245 10.89338,-1.01645 14.757,-0.02647c1.03935,0.26631 1.08602,0.71851 1.78095,1.05704c0.85572,0.41686 2.32354,0.7361 3.02235,1.17384c1.46996,0.92079 2.48498,1.86712 4.3012,2.77403c-0.06851,1.8798 -0.87,3.77427 -0.72539,5.65234c0.07923,1.02896 0.85268,2.20534 -1.35174,3.13431c-2.37063,0.99902 -4.72065,0.78657 -8.24109,1.16375c-5.10733,0.54719 -10.0868,0.67051 -15.55053,0.79736c-8.17145,-0.08221 -16.34216,-0.16999 -24.51313,-0.25558c-2.63781,-0.02763 -5.28515,-0.04211 -7.92058,-0.08297c-1.04449,-0.01619 -2.18603,0.0596 -3.13013,-0.06231c-0.90952,-0.11744 -1.87798,-0.26453 -2.59246,-0.46188c-0.00442,0.00052 -0.00884,0.00103 -0.01325,0.00155c-3.15258,0.36987 -7.29293,0.38032 -10.71457,0.35032c-6.90511,-0.07233 -13.81023,-0.14467 -20.71534,-0.21699c-5.20993,-0.05457 -9.5884,-0.02715 -13.73172,-1.00902c-0.15169,-0.03595 -0.29491,-0.07195 -0.43006,-0.10803c-1.51621,0.17556 -2.73784,-0.07035 -4.85084,-0.15931c-1.86685,-0.0786 -3.81374,0.03793 -5.66256,-0.06731c-0.75734,-0.04311 -1.34496,-0.22012 -2.09706,-0.26948c-2.36886,-0.15547 -5.15511,-0.09314 -7.54099,-0.24129c-1.93615,-0.12023 -3.70971,-0.38589 -5.59691,-0.55364c-0.88077,-0.30563 -2.13102,-0.55492 -2.64232,-0.91689c-1.63039,-1.15423 1.66272,-2.14839 2.47794,-3.17551c0.84192,-1.06076 0.28664,-2.35691 0.46373,-3.44372c0.08259,-0.50689 0.74793,-0.99446 1.1582,-1.48956c0.81807,-0.98721 0.55836,-2.16547 0.51748,-3.24545c-0.30095,-0.06064 -0.57378,-0.15326 -0.77057,-0.29204c-0.65136,-0.45935 0.567,-0.69336 1.09217,-0.76983c0.2962,-0.15778 0.8904,-0.31945 2.08055,-0.30698c0.25427,0.00267 0.47914,0.01269 0.67801,0.02839z" data-paper-data="{&quot;index&quot;:null}" fill="#927e58" stroke="none" stroke-width="0.5"/><path d="M214.81929,136.33391c1.1035,0.00078 2.27848,-0.09059 3.37224,-0.04498c2.22443,0.09275 5.09951,0.39255 7.42553,0.25565c2.09885,-0.12353 3.91546,-0.52477 6.04269,-0.6053c0.34165,-0.01293 4.75485,0.04549 5.26613,0.05181c4.28316,-0.24236 8.50424,0.13629 12.73107,-0.0283c5.12517,-0.19958 9.91028,-0.40842 15.13892,-0.50575c2.78672,-0.05187 5.03638,-0.49438 7.72748,-0.64732c6.20506,-0.35263 13.18892,-0.45152 19.51925,-0.39103c1.58231,0.01657 3.18659,0.13654 4.74517,0.06087c1.07727,-0.0523 2.01169,-0.25279 3.09357,-0.29761c1.70772,-0.07074 3.43985,0.12739 5.16649,0.11153c0.96509,-0.00886 -0.37413,-0.5981 -1.25291,-0.70634c-0.47735,-0.0588 -1.04496,0.02999 -1.56949,0.03066c-2.63158,0.00337 -5.29096,-0.05542 -7.92057,-0.08297c-3.01089,-0.03154 -6.67444,-0.22666 -9.64395,-0.11095c-0.85938,0.03349 -1.61266,0.18901 -2.47251,0.22162c-3.52805,0.13381 -6.96799,-0.11492 -10.54051,0.06083c-3.29582,-0.04545 -4.13394,0.29099 -7.00594,0.61584c-2.51854,0.28486 -5.05607,0.28138 -7.62262,0.37975c-0.97736,0.03746 -1.85559,0.24988 -2.83928,0.2276c-1.38888,-0.03145 -2.76059,-0.17879 -3.9366,-0.38106c-2.24364,-0.38591 -2.8369,-0.89582 -4.13658,-1.45734c-1.91731,-0.82835 -3.26826,-1.53507 -2.42802,-2.56239c0.65705,-0.80333 2.60435,-1.57112 3.05923,-2.39428c0.49921,-0.9034 0.25428,-1.89486 0.38508,-2.80801c0.12499,-0.85049 -0.23029,-1.68434 -0.24517,-2.5345c-0.01811,-1.03432 0.99415,-2.19613 0.48904,-3.22165c-0.12729,-0.25843 -0.68291,-0.49249 -0.80771,-0.75101c-0.35908,-0.7438 -0.14146,-1.69367 -0.2819,-2.44366c-0.09284,-0.49573 0.60235,-1.0001 0.25512,-1.4875c-0.1815,-0.25477 -0.87158,-0.46786 -1.08746,-0.72065c-0.4956,-0.58036 -0.05086,-1.26911 -0.37112,-1.84703c-0.36319,-0.65538 -1.59882,-1.32274 -2.12992,-1.97147c-0.09479,-0.11578 -0.85079,-1.62618 -0.94243,-1.80731c-1.49078,-0.99503 -2.51481,-2.1232 -4.27253,-3.07024c-0.57315,-0.30881 -1.8304,-0.52249 -2.1599,-0.85632c-0.57818,-0.58579 0.97088,-1.24312 0.25392,-1.81758c-0.28986,-0.23225 -1.25441,-0.36682 -1.61406,-0.59183c-0.56702,-0.35475 -0.64388,-0.75478 -1.12065,-1.11911c-0.62796,-0.47986 -1.93474,-0.88055 -2.57073,-1.35963c-0.39704,-0.29909 -0.43001,-0.62687 -0.80053,-0.92844c-0.74402,-0.60556 -1.66268,-0.9056 -2.8446,-1.44801c-0.22112,-0.10148 -0.22479,-0.26065 -0.61793,-0.31135c-1.20821,-0.15582 -2.62811,0.14659 -3.96186,0.17729c-2.4019,0.05529 -4.7406,-0.28552 -1.81461,0.41697c2.61714,1.68863 5.38226,3.41453 6.8983,5.20739c0.71442,0.84488 0.12836,1.79342 1.09296,2.60221c0.79391,0.66566 1.64969,1.30921 1.94623,2.01055c0.26905,0.63635 -0.5111,1.28338 -0.25787,1.9202c0.19439,0.48884 1.38218,0.9209 1.62168,1.40827c0.13159,0.26779 -0.25712,0.54191 -0.126,0.80972c0.50825,1.03808 2.18593,1.83922 2.03762,2.9343c1.1849,1.10171 0.84351,2.26028 1.34727,3.40435c0.58086,1.31914 1.55943,2.59957 2.18386,3.89304c0.57819,1.19769 -0.34262,2.5982 -0.51569,3.80642c-0.27022,1.88644 0.07454,3.73951 -0.19315,5.60828c-0.11588,0.30629 0.23617,0.65453 -0.34765,0.91886c-2.3624,1.06958 -7.90589,0.65962 -11.69766,0.87447c-4.29931,0.24361 -8.70185,0.05615 -12.94735,0.28278c-0.98191,0.05241 -1.80268,0.25473 -2.78893,0.3008c-2.2412,0.10468 -3.2844,-0.09354 -5.37524,-0.04746c-2.0375,0.0449 -3.80682,0.33813 -5.69886,0.49891c5.2729,0.49907 10.0868,1.23382 15.13241,1.8822zM189.79609,133.06132c1.94509,-0.08793 3.94595,-0.05366 5.89535,-0.13431c2.4736,-0.10233 4.66678,-0.52871 7.28243,-0.59175c1.65595,-0.03992 3.34999,0.14617 4.98243,0.06104c0.98275,-0.05125 1.8061,-0.24968 2.78894,-0.3008c3.29782,-0.17155 6.9014,0.06313 10.18573,-0.06381c2.0805,-0.08041 4.08461,-0.28189 6.17167,-0.34872c0.03141,-0.001 4.91534,0.01188 5,-0.09347c0.1051,-0.1308 -0.1059,-0.26616 -0.15885,-0.39924c0.26733,-1.8663 -0.07688,-3.72315 0.19315,-5.60828c0.16159,-1.1281 1.13958,-2.4938 0.54634,-3.60786c-0.69049,-1.29671 -1.59788,-2.58356 -2.19038,-3.9082c-0.5095,-1.13906 -0.1623,-2.29347 -1.34075,-3.38918c0.16392,-1.0837 -1.47139,-1.84736 -2.01054,-2.88342c-0.14402,-0.27675 0.2338,-0.56044 0.11001,-0.83791c-0.22111,-0.49559 -1.42545,-0.93494 -1.63276,-1.43097c-0.25899,-0.61969 0.56702,-1.25037 0.28494,-1.86932c-0.2923,-0.64138 -1.11049,-1.22192 -1.77588,-1.82364c-0.99238,-0.89741 -0.404,-1.78774 -1.19818,-2.70207c-1.44346,-1.66182 -3.99522,-3.25038 -6.30826,-4.83149c-0.67284,-0.22261 -1.84441,-0.38419 -2.01852,-0.66781c-0.9955,-1.62172 3.3006,-1.55221 7.30714,-1.64597c2.5051,-0.05863 3.62974,-0.40481 6.44301,-0.04373c1.04776,0.13448 1.6016,0.45609 2.28683,0.70913c2.31735,0.85575 2.92402,1.69387 4.17669,2.65575c0.61412,0.47156 1.91268,0.86324 2.53514,1.334c0.44959,0.34002 0.48528,0.71624 1.00963,1.04833c0.44245,0.28023 1.53737,0.47204 1.85278,0.76456c0.62406,0.57877 -0.8836,1.22796 -0.2653,1.80718c0.28856,0.27032 1.41981,0.42057 1.89262,0.67121c1.90625,1.01045 3.02751,2.22618 4.57905,3.29282c0.33283,0.61402 0.47597,1.23726 0.97546,1.84297c0.55304,0.67065 1.79835,1.35554 2.17785,2.03387c0.33056,0.59084 -0.19279,1.20978 0.32822,1.79049c0.24577,0.27393 0.95926,0.51 1.13724,0.78774c0.81707,1.27505 -0.62271,2.71006 0.05894,3.99016c0.13741,0.25804 0.69116,0.4922 0.80771,0.751c0.48936,1.08661 -0.47411,2.27611 -0.45498,3.36881c0.01518,0.86699 0.3631,1.71803 0.24176,2.58589c-0.13733,0.95873 0.12925,2.01193 -0.44094,2.95864c-0.37298,0.61928 -1.48912,1.36269 -2.17397,1.96106c-0.63092,0.55125 -1.6784,0.93691 -0.65722,1.55282c0.36332,0.21913 1.0768,0.38262 1.55508,0.58496c1.01888,0.43104 1.30128,0.77101 2.82071,1.09068c0.94334,0.19846 2.40064,0.00447 3.5818,-0.04496c2.20186,-0.09215 4.33468,-0.04872 6.5087,-0.29727c3.07061,-0.35105 4.87394,-0.73463 8.43834,-0.70746c3.44525,-0.16949 6.86823,0.09022 10.22202,-0.0517c0.85782,-0.0363 1.61154,-0.19121 2.4725,-0.22161c4.15357,-0.14665 9.01209,0.08447 13.20385,0.12838c1.99604,0.02091 6.75845,-0.11546 8.48355,0.13596c4.02869,0.58716 6.12188,2.19268 1.27424,2.95033c-1.46078,0.22831 -4.7426,-0.08542 -6.40972,-0.00973c-1.07939,0.049 -2.01324,0.25013 -3.09357,0.29761c-0.25765,0.01132 -4.98167,-0.04101 -5.6125,-0.04762c-5.93966,-0.06856 -12.59715,0.03892 -18.42099,0.3666c-2.92861,0.16478 -5.24829,0.59738 -8.32608,0.66959c-2.30306,0.05403 -4.85547,-0.01759 -7.12354,0.08145c-2.57982,0.11266 -5.13772,0.32486 -7.7808,0.41817c-4.32213,0.15258 -8.57415,-0.21192 -12.90567,0.03317c-1.69769,-0.01518 -3.4076,-0.11693 -5.09154,-0.05669c-2.02442,0.07243 -3.72107,0.4817 -5.72234,0.59153c-2.96155,0.16253 -6.12519,-0.12253 -8.97768,-0.2462c-1.61796,-0.07014 -4.195,0.05966 -5.64802,-0.08722c-0.98976,-0.10005 -1.52709,-0.41121 -2.48337,-0.53276c-0.68885,-0.08755 -1.52188,-0.03075 -2.26821,-0.07116c-2.68329,-0.14526 -6.0418,-0.44794 -8.44767,-0.80308c-3.57996,-0.52845 -5.98837,-1.19595 -10.11155,-1.19806c0,0 -1.38734,-0.01453 -1.95801,-0.31329c-0.52752,-0.11864 -0.85255,-0.29992 -0.82395,-0.49965c0.0322,-0.22476 0.50419,-0.41685 1.18326,-0.51801l2.46174,-0.38106l0.06975,0.03296z" fill="#754718" stroke="none" stroke-width="0.5"/><path d="M212.76682,135.95932c-5.04561,-0.64838 -9.86681,-1.38458 -15.13971,-1.88364c1.89204,-0.16078 3.72113,-0.47272 5.75863,-0.51762c2.09085,-0.04608 3.13203,0.15172 5.37322,0.04703c0.98625,-0.04606 1.80622,-0.24855 2.78814,-0.30096c4.2455,-0.22663 8.64209,-0.04013 12.9414,-0.28374c3.79178,-0.21485 9.32871,0.1944 11.69111,-0.87519c0.58382,-0.26433 0.20338,-0.58906 0.31926,-0.89534c0.26769,-1.86877 -0.08453,-3.72273 0.18568,-5.60916c0.17307,-1.20822 1.0842,-2.61064 0.50601,-3.80833c-0.62443,-1.29347 -1.61651,-2.58084 -2.19737,-3.89998c-0.50377,-1.14406 -0.15866,-2.30987 -1.34356,-3.41158c0.1483,-1.09508 -1.52175,-1.89931 -2.03,-2.93739c-0.13112,-0.2678 0.25987,-0.54256 0.12829,-0.81035c-0.2395,-0.48738 -1.42507,-0.91997 -1.61946,-1.40881c-0.25323,-0.63681 0.531,-1.28468 0.26196,-1.92103c-0.29653,-0.70134 -1.1504,-1.34521 -1.94431,-2.01087c-0.96462,-0.80879 -0.37585,-1.75773 -1.09027,-2.60261c-1.51604,-1.79286 -4.27984,-3.51892 -6.89699,-5.20755c-2.92598,-0.70249 -0.58609,-0.36182 1.81581,-0.41711c1.33375,-0.0307 2.75573,-0.33334 3.96395,-0.17752c0.39315,0.0507 0.39691,0.20986 0.61804,0.31134c1.18193,0.54241 2.10107,0.84241 2.84508,1.44797c0.37053,0.30157 0.40324,0.62937 0.80028,0.92846c0.63598,0.47908 1.94324,0.87973 2.5712,1.35959c0.47678,0.36433 0.5534,0.76438 1.12043,1.11913c0.35965,0.225 1.35449,0.38291 1.64435,0.61516c0.71696,0.57446 -0.83001,1.23159 -0.25183,1.81737c0.3295,0.33383 1.55366,0.52446 2.12681,0.83327c1.75772,0.94705 2.81408,2.09835 4.30486,3.09338c0.09164,0.18113 0.84994,1.69128 0.94473,1.80706c0.53109,0.64873 1.76882,1.31582 2.13201,1.9712c0.32027,0.57792 -0.11676,1.26534 0.37884,1.8457c0.21588,0.2528 0.90847,0.46532 1.08997,0.72008c0.34724,0.4874 -0.33552,0.98665 -0.2427,1.48238c0.14045,0.74998 -0.08577,1.68775 0.2733,2.43156c0.1248,0.25852 0.67251,0.49061 0.7998,0.74904c0.5051,1.02551 -0.5193,2.18565 -0.50118,3.21997c0.01488,0.85016 0.36561,1.68366 0.24061,2.53415c-0.1308,0.91315 0.09616,1.92886 -0.40307,2.83226c-0.45488,0.82316 -2.38494,1.56666 -3.04199,2.36999c-0.84026,1.02732 0.50746,1.73389 2.42476,2.56224c1.29969,0.56152 1.88955,1.07135 4.13319,1.45726c1.17601,0.20227 2.54494,0.34959 3.93382,0.38104c0.98369,0.02228 1.85993,-0.19012 2.83729,-0.22759c2.56655,-0.09837 5.09867,-0.09473 7.61721,-0.37959c2.872,-0.32485 3.70503,-0.66098 7.00084,-0.61553c3.57252,-0.17575 7.00597,0.07364 10.53402,-0.06018c0.85984,-0.03261 1.61155,-0.18792 2.47093,-0.22141c2.96952,-0.11572 6.6285,0.08013 9.63939,0.11167c2.62962,0.02755 5.28592,0.08695 7.91751,0.08357c0.52452,-0.00067 1.09156,-0.08933 1.56889,-0.03054c0.87878,0.10824 2.27557,0.7167 1.31049,0.72556c-1.72665,0.01585 -3.46053,-0.18192 -5.16825,-0.11117c-1.08188,0.04482 -2.01783,0.2456 -3.0951,0.2979c-1.55858,0.07567 -3.16484,-0.04396 -4.74716,-0.06053c-6.33033,-0.06048 -13.32509,0.03967 -19.53015,0.3923c-2.6911,0.15294 -4.94603,0.59576 -7.73274,0.64763c-5.22863,0.09733 -10.02376,0.30631 -15.14893,0.50589c-4.22682,0.16459 -8.45592,-0.21439 -12.73908,0.02796c-0.51129,-0.00632 -4.9276,-0.06498 -5.26925,-0.05204c-2.12723,0.08053 -3.94667,0.4815 -6.04551,0.60503c-2.32601,0.1369 -5.20491,-0.16336 -7.42934,-0.25611c-1.09376,-0.0456 -2.27022,0.04556 -3.37371,0.04478z" data-paper-data="{&quot;noHover&quot;:false,&quot;origItem&quot;:[&quot;Path&quot;,{&quot;applyMatrix&quot;:true,&quot;segments&quot;:[[[197.27987,226.49758],[0,0],[1.20576,-0.04357]],[[200.9572,226.17311],[-1.20214,-0.13795],[2.44484,0.28056]],[[209.11003,226.89172],[-2.51987,0.65154],[2.27378,-0.58791]],[[215.61729,224.19046],[-2.31152,0.41541],[0.37125,-0.06672]],[[221.37895,224.17691],[-0.55961,-0.00389],[4.64167,-1.16042]],[[235.28395,223.52379],[-4.59229,0.84388],[5.56831,-1.02323]],[[251.74495,220.83977],[-5.69735,0.61449],[3.03653,-0.32751]],[[260.08636,217.89743],[-2.91625,0.73178],[6.7242,-1.68732]],[[281.35107,215.49151],[-6.92572,0.02354],[1.73136,0]],[[286.54497,215.53662],[-1.69099,0.3717],[1.1688,-0.25692]],[[289.87831,214.20329],[-1.175,0.22686],[1.85471,-0.3581]],[[295.54045,214.43526],[-1.88398,0.13712],[1.05303,-0.07664]],[[294.06103,211.63454],[0.97706,0.40012],[-0.53073,-0.21734]],[[292.35107,211.82484],[0.57296,-0.02491],[-2.87463,0.12499]],[[283.68441,211.82484],[2.87732,0],[-3.29451,0]],[[273.13047,211.78473],[3.22626,-0.5932],[-0.93368,0.17167]],[[270.4638,212.78473],[0.93432,-0.16815],[-3.83365,0.68994]],[[258.9572,213.47658],[3.87568,-0.86126],[-3.60798,-0.04415]],[[251.39919,216.26119],[3.08699,-1.43397],[-2.70707,1.25749]],[[243.13047,218.11806],[2.78871,-0.50605],[-1.06196,0.19271]],[[240.06401,219.15775],[1.07822,0.04838],[-1.52235,-0.06831]],[[235.70341,217.7848],[1.31651,0.76746],[-2.5117,-1.46419]],[[230.95589,212.07195],[1.50786,2.21362],[-2.22441,-3.26556]],[[227.90213,201.82218],[-0.75725,4.18614],[0.59214,-3.27341]],[[230.86981,192.01939],[-0.36816,3.34499],[0.40404,-3.67104]],[[230.85107,180.65818],[0,3.69484],[0.00346,-3.44141]],[[230.18657,170.42874],[0.14931,3.43417],[-0.18166,-4.17809]],[[230.21669,157.39197],[0.71235,4.12189],[-0.17951,-1.0387]],[[229.21669,154.39197],[0.17681,1.03916],[-0.50872,-2.98992]],[[228.52626,144.53105],[0.27082,3.02413],[-0.17901,-1.99891]],[[228.5722,138.51049],[0.45565,1.9545],[-0.23817,-1.02161]],[[227.27131,135.64493],[0.27542,1.0122],[-0.6323,-2.32378]],[[226.57679,128.19831],[0.44035,2.32133],[-0.49938,-2.63251]],[[223.94119,120.32335],[0.68178,2.59851],[-0.12168,-0.46377]],[[222.62869,113.06135],[0.12847,0.72795],[-1.78449,-3.95702]],[[217.48022,100.83782],[2.06862,3.75184],[-0.67452,-1.22338]],[[214.98639,97.46952],[0.41224,1.3348],[-0.72337,-2.34221]],[[214.97937,90.11541],[0.87322,2.29057],[-0.35304,-0.92608]],[[213.12329,87.79262],[0.42815,0.89384],[-0.67502,-1.40926]],[[211.72377,83.31867],[0.57792,1.45178],[-0.76118,-1.91213]],[[208.70232,77.93429],[0.76982,1.90867],[-0.4806,-1.19159]],[[207.68239,74.2171],[0.45202,1.20272],[-0.90766,-2.41508]],[[204.34788,68.48725],[1.37621,2.1414],[-0.25747,-0.40064]],[[203.62402,67.25548],[0.43747,0.18821],[-1.34443,-0.5784]],[[199.3232,68.13945],[1.4524,-0.18048],[-2.61556,0.32503]],[[197.40589,69.90086],[-3.30675,-2.71436],[3.12365,6.71162]],[[205.75763,90.64772],[-1.93695,-7.17932],[0.91277,3.38321]],[[207.359,101.11487],[-1.18047,-3.22682],[0.97157,2.65579]],[[209.80002,109.15551],[-0.43373,-2.82098],[0.39354,2.55956]],[[209.81879,116.92439],[-0.37633,-2.56214],[0.28889,1.96678]],[[211.81096,122.54545],[-0.33794,-1.95895],[0.18568,1.07635]],[[211.80002,125.82218],[-0.18517,-1.07644],[0.71775,4.17251]],[[214.48546,137.59106],[-0.00935,-4.4306],[1.46699,4.40098]],[[216.49021,151.28821],[-0.72945,-4.60091],[0.84107,5.30497]],[[219.48546,166.92439],[-0.88465,-5.19943],[0.81915,4.81444]],[[219.51774,182.32484],[0,-4.88877],[0,7.63298]],[[220.18441,204.99151],[0,-7.56152],[-0.07868,1.24235]],[[219.94838,208.71857],[0.59649,-1.09263],[-2.41367,4.42129]],[[207.30486,212.74663],[4.10911,-1.02851],[-4.65912,1.16618]],[[193.20339,214.43705],[4.60298,-1.0953],[-1.06459,0.25333]],[[190.20339,215.77038],[1.07033,-0.22786],[-2.43225,0.51779]],[[184.3232,215.80611],[2.27716,-0.27465],[-2.21906,0.26765]],[[178.17493,218.06296],[2.042,-0.72966],[5.83905,1.79317]],[[195.00254,225.02698],[-5.61409,-2.40604],[0,0]]],&quot;closed&quot;:true}]}" fill="#a06122" stroke="none" stroke-width="0.5"/><path d="M236.16974,98.41875l2.19678,-0.01306c1.82868,0.40907 3.41311,0.91434 4.59249,1.47127c0.42311,0.53754 1.43695,1.40925 0.24391,1.9391c-0.60026,0.26659 -4.78079,0.85035 -6.08481,1.0662c-4.09542,0.67789 -8.48118,1.17798 -13.30398,1.35965c-0.79143,0.02981 -1.60379,-0.05701 -2.39514,-0.02703c-1.59906,0.06058 -3.04359,0.29271 -4.5865,0.42143c-0.52854,0.04409 -3.44545,0.22152 -4.14155,0.40319c-1.26379,0.32984 -1.8615,0.88326 -3.02471,1.23023c-0.63925,0.19068 -1.58679,0.29217 -2.23364,0.48096c-2.6673,0.7785 -5.04443,1.64866 -8.24302,2.30025c-2.19076,0.98794 -3.85656,2.05096 -6.40948,2.94543c-0.77838,0.27272 -1.24553,0.63255 -2.30234,0.82492c-1.32738,0.24162 -2.98492,0.52147 -4.5411,0.42079c-1.44937,-0.09377 -1.99633,-0.59866 -2.95995,-0.90608c-1.67266,-0.53361 -3.07167,-1.08684 -4.64659,-1.61505c-1.84011,-0.61716 -4.36516,-0.81065 -4.22207,-1.75269c0.05121,-0.3371 0.7677,-0.65357 1.49229,-0.92822c0.50462,-0.19127 1.60254,-0.22875 2.07861,-0.4253c0.46951,-0.19384 0.1866,-0.47218 0.59036,-0.67656c0.58008,-0.29362 1.46763,-0.53588 2.29293,-0.78288c2.44907,-0.73298 5.61641,-1.13522 8.01409,-1.8488c3.8706,-0.8103 7.58519,-1.61844 11.50914,-2.39825c1.85769,-0.36918 2.90407,-0.8831 4.91583,-1.21841c1.01732,-0.16957 2.26333,-0.20937 3.3637,-0.33543c1.75887,-0.20149 3.16625,-0.58036 4.8331,-0.83266c2.51162,-0.38017 5.61738,-0.41801 8.28994,-0.69117c4.7906,-0.48964 8.26755,-0.77464 13.44166,-0.5658c0,0 0.68165,0.02774 1.24007,0.15397z" fill="#d4d4d4" stroke="none" stroke-width="0.5"/><path d="M256.0014,103.47559c0.00678,0.00304 0.01322,0.00598 0.01934,0.00881c3.5691,0.44043 6.96638,0.7882 3.83416,2.13545c-1.74036,0.74858 -6.47094,0.60903 -8.98621,0.84468c-0.80307,0.07524 -1.33877,0.29308 -2.12225,0.38215c-2.44991,0.2785 -5.38522,0.41264 -7.74404,0.78124c-1.1425,0.17853 -2.57597,0.77598 -3.55765,0.98499c-2.84721,0.60622 -6.36137,1.17054 -8.88243,1.9044c-1.81984,0.52975 -3.51352,1.11679 -5.36481,1.65682c-2.85149,0.99148 -6.40422,1.83581 -9.17848,2.84586c-1.80835,0.65838 -3.37858,1.71957 -6.48262,2.04798c-1.68444,0.17821 -6.62847,0.05142 -8.49701,-0.0419c-1.56186,-0.07801 -3.72742,0.03077 -4.60938,-0.32643c-0.90903,-0.36816 1.53876,-1.51401 2.31614,-1.85663c2.12737,-0.93761 4.73431,-1.87754 7.29451,-2.72436c0.47617,-0.15749 1.30514,-0.22819 1.70042,-0.40128c0.45773,-0.20043 0.26862,-0.48168 0.76018,-0.67616c0.53174,-0.21039 1.45296,-0.32461 2.17945,-0.48692c1.38202,-0.4613 3.17136,-0.82178 4.68833,-1.25095c0.80784,-0.22854 1.20269,-0.55549 2.08689,-0.76233c1.50456,-0.35196 3.52636,-0.51514 5.04128,-0.86383c2.94886,-0.67875 5.19697,-1.67146 8.9172,-2.08602c0.70984,-0.0791 1.59841,0.04477 2.29832,-0.04055c0.70804,-0.08631 0.9926,-0.3348 1.6604,-0.44203c0.74656,-0.11988 1.7313,-0.09933 2.47251,-0.22161c1.70575,-0.28142 3.04911,-0.71559 4.83327,-0.95887c2.04493,-0.27884 5.54267,-0.70269 7.85583,-0.81245c0.69413,-0.03294 1.43606,0.10208 2.1078,0.04445c0.73985,-0.06347 1.23092,-0.25579 1.84639,-0.38368c0,0 1.88092,-0.35156 3.18099,0.15708c0.54444,0.21301 0.53101,0.39846 0.33149,0.54209z" fill="#d4d4d4" stroke="none" stroke-width="0.5"/></g></g></svg>