<svg version="1.1" xmlns="http://www.w3.org/2000/svg" xmlns:xlink="http://www.w3.org/1999/xlink" width="175.77525" height="219.05375" viewBox="0,0,175.77525,219.05375"><g transform="translate(-152.11238,-70.47312)"><g data-paper-data="{&quot;isPaintingLayer&quot;:true}" fill-rule="nonzero" stroke-linecap="butt" stroke-linejoin="miter" stroke-miterlimit="10" stroke-dasharray="" stroke-dashoffset="0" style="mix-blend-mode: normal"><path d="M156.30468,115.00784c0.09011,-0.23346 0.19458,-0.43453 0.30961,-0.60735c-0.48551,-2.66427 -1.69771,-6.25495 -1.28539,-8.94927c0.61183,-3.99805 3.49006,-4.33908 5.17277,-7.32107c0.41823,-0.74114 0.22482,-1.72048 0.61098,-2.47883c0.48649,-0.95539 1.39761,-1.63852 1.95268,-2.55577c1.0066,-1.66339 1.29854,-3.70677 2.36809,-5.3304c2.55946,-3.88537 6.08319,-7.2446 9.35154,-10.59327c0.95694,-0.98046 5.04512,-5.21317 5.5906,-5.51422c1.04209,-0.57514 2.35592,-0.3414 3.53387,-0.51209c4.07691,-0.03244 9.79264,0.62241 13.12829,3.34763c1.27178,1.03905 2.89742,2.12486 3.21065,3.73698c0.24388,1.25521 -2.9473,7.05605 -3.68284,8.0915c-2.15538,3.03423 -5.52766,5.69519 -8.13196,8.36349c-6.68305,6.8473 -13.67913,13.07001 -20.35631,19.89772c-2.11087,1.77041 -4.41924,3.30727 -6.78293,4.72255l-3.55759,-1.06507c0,0 -2.33229,-0.90023 -1.43206,-3.23252zM161.54947,113.59588c1.02952,-0.90819 2.07613,-1.79716 3.12802,-2.67927c7.29266,-7.48804 14.94999,-14.36741 22.27332,-21.87073c2.81818,-2.88745 5.05535,-5.34743 7.23677,-8.69275c0.30911,-0.47404 1.11822,-0.69655 1.13544,-1.2622c0.01192,-0.3913 -0.72221,-0.30234 -1.08318,-0.45384c-0.71551,-0.30033 -1.42405,-0.6178 -2.14624,-0.90168c-2.77743,-1.09172 -4.92681,-1.65063 -7.89698,-1.5981c-3.06032,0.04132 -5.57759,4.26477 -7.69606,6.4353c-2.44896,2.50915 -4.9779,5.11399 -6.92324,7.99043c-1.03814,1.53502 -1.26662,3.50774 -2.21971,5.09696c-0.48362,0.8064 -1.33541,1.36524 -1.76105,2.20371c-0.42584,0.83884 -0.25717,1.91614 -0.74018,2.72341c-0.98629,1.64838 -4.38501,3.31747 -4.57149,5.52609c-0.193,2.28582 0.86148,5.2308 1.26138,7.46278c0,0 0.00123,0.00686 0.0032,0.01992z" fill="#955228" stroke="none" stroke-width="0.5"/><path d="M161.51949,113.61819c-0.3999,-2.23198 -1.46431,-5.18524 -1.27132,-7.47106c0.18648,-2.20861 3.58275,-3.88056 4.56904,-5.52894c0.48301,-0.80727 0.3099,-1.89119 0.73573,-2.73003c0.42564,-0.83846 1.27457,-1.40331 1.75819,-2.20971c0.95309,-1.58922 1.18184,-3.59952 2.21997,-5.13454c1.94534,-2.87644 4.52888,-5.51145 6.97783,-8.0206c2.11846,-2.17053 4.65205,-6.38815 7.71237,-6.42948c2.97017,-0.05253 5.13266,0.51715 7.91009,1.60887c0.7222,0.28388 1.43342,0.60476 2.14894,0.90509c0.36096,0.1515 1.09625,0.06422 1.08434,0.45551c-0.01722,0.56565 -0.82582,0.78894 -1.13494,1.26298c-2.18142,3.34533 -4.41288,5.81774 -7.23107,8.70519c-7.32333,7.50332 -15.05279,14.44083 -22.34544,21.92888c-1.0519,0.88211 -2.10101,1.7696 -3.13052,2.67779c-0.00197,-0.01306 -0.00322,-0.01993 -0.00322,-0.01993z" data-paper-data="{&quot;noHover&quot;:false,&quot;origItem&quot;:[&quot;Path&quot;,{&quot;applyMatrix&quot;:true,&quot;segments&quot;:[[[86.74678,219.58828],[0.01594,-0.02106],[2.73804,0.20484]],[[94.95122,220.32256],[-2.73198,-0.2733],[20.90488,-0.02256]],[[157.36882,221.64968],[-20.9696,0],[8.06958,0]],[[179.9199,219.86422],[-7.8354,1.55102],[1.1103,-0.21978]],[[183.3126,219.72612],[-0.83366,0.76554],[0.5767,-0.52956]],[[182.44904,217.5418],[0.2874,0.72828],[-0.56968,-1.44364]],[[180.74142,213.21034],[0.60256,1.43022],[-2.31736,-5.50034]],[[171.99712,199.67512],[4.22434,4.17776],[-4.33424,-4.32244]],[[152.03548,197.64968],[6.066,0],[-7.01234,0]],[[130.9276,198.90278],[6.83452,-1.2339],[-3.64726,0.65848]],[[120.53164,202.84592],[3.60602,-0.85592],[-1.82978,0.4343]],[[114.91744,203.40382],[1.79466,-0.56208],[-1.79548,0.56232]],[[109.9855,206.14886],[1.83016,-0.43638],[-3.73708,0.89104]],[[95.69004,207.32542],[3.42164,-2.8184],[-3.54124,2.91692]],[[86.77082,219.55588],[2.63594,-3.69032],[0,0]]],&quot;closed&quot;:true,&quot;fillColor&quot;:[0,0,0,1],&quot;strokeWidth&quot;:0.5}]}" fill="#ae602f" stroke="none" stroke-width="0.25"/><path d="M176.58522,124.11501c2.27628,1.91445 4.33507,4.45903 6.39115,6.46579c5.76909,5.6307 11.81107,11.07114 16.50233,17.54893c2.63009,3.63167 3.18321,8.08136 5.04568,12.02428c0.23612,0.38414 0.54321,0.74036 0.81863,1.10903c0.24934,-0.33601 0.51422,-0.66584 0.72121,-1.02139c0.68306,-1.17332 1.20429,-2.44753 1.99639,-3.55017c0.58856,-0.81931 1.48961,-1.37378 2.11141,-2.16815c1.72662,-2.20581 2.22255,-5.09033 3.91795,-7.35487c5.41168,-7.22835 12.04262,-15.3712 19.26826,-21.17354c1.48296,-1.19085 3.10666,-2.22855 4.4351,-3.58964c1.58637,-0.9782 2.8067,-2.47512 4.37698,-3.47893c0.92202,-0.58941 2.13316,-0.61756 3.0496,-1.21562c0.80439,-0.52494 1.22221,-1.50954 1.99676,-2.07759c0.85,-0.62339 1.95059,-0.83959 2.81105,-1.44844c1.21762,-0.86158 2.36663,-3.45395 3.93387,-4.0905c-0.50909,-0.42366 -0.89128,-1.02032 -1.37838,-1.4781c-1.99687,-1.87664 -4.34453,-1.43124 -7.07118,-1.39841c-5.71838,0.06886 -11.47372,-0.82267 -16.82983,-3.06847c-3.157,-1.32372 -5.02335,-3.40515 -8.06479,-4.88c-4.11283,-3.93051 -8.16521,-7.92423 -12.23643,-11.89779c-2.71081,-2.64578 -6.27238,-5.65559 -7.48186,-9.4174c-0.1491,-0.46374 0.47138,-0.97899 0.292,-1.43188c-0.11539,-0.29131 -0.35911,0.51453 -0.56016,0.75485c-0.42346,0.50617 -0.86019,1.00165 -1.31187,1.48281c-1.2231,1.30295 -2.67844,2.39949 -3.75805,3.8236c-1.10705,1.4603 -1.6538,3.29549 -2.771,4.74803c-2.30707,2.99961 -5.46819,5.6294 -8.11596,8.34225c-5.00158,5.12451 -10.02598,11.94136 -16.0097,15.84679c-1.14251,0.74569 -2.52675,1.07968 -3.64609,1.85972c-1.52908,1.06558 -2.7573,2.56197 -4.33222,3.54476c0.07807,0.02776 0.14191,0.04828 0.18843,0.05846c0.80537,0.17608 1.67359,0.29289 2.56787,0.39534c0.6372,-0.17011 1.24031,-0.00155 1.64904,0.18074c2.05711,0.22903 4.13329,0.52372 5.80706,1.39902c1.18015,0.61716 2.10312,1.63445 3.15468,2.45167l1.99965,1.94735c0,0 0.2983,0.29114 0.53241,0.75747zM163.47814,122.54004c-2.09071,-0.28418 -4.23743,-0.50751 -6.33018,-1.36066c-1.67812,-0.68411 -4.37389,-0.64497 -4.88645,-2.38318c-1.23943,-4.20316 5.59542,-5.57305 7.61274,-7.231c2.68121,-2.20356 5.74484,-3.70785 8.27271,-6.11225c4.4657,-4.24757 8.64307,-8.85993 12.94892,-13.27162c2.50419,-2.56573 5.53192,-5.04595 7.71606,-7.87889c2.42269,-3.14235 4.03566,-6.1596 6.92895,-9.03499c2.14067,-2.12743 3.99571,-4.69522 7.96379,-3.06757c1.27482,0.52291 1.12496,2.51794 1.76906,3.73602c0.75577,1.42928 1.54209,2.86177 2.54982,4.12609c4.38304,5.49903 10.49626,10.12317 15.46794,15.11583c1.72587,0.8369 3.17945,2.14665 4.75376,3.24237c3.29786,2.29529 8.04169,2.82696 11.86158,3.68823c3.96232,0.89339 8.69302,-0.8906 12.54003,0.39894c1.90018,0.63696 8.37133,6.46637 8.1086,8.55428c-0.20369,1.61871 -2.57804,2.004 -3.79716,3.08818c-5.14515,4.57566 -10.21621,8.56753 -16.04029,12.15883c-1.32844,1.36109 -2.9436,2.4095 -4.4351,3.58964c-3.46709,2.7433 -6.4589,6.64446 -9.55184,9.81342c-1.76061,1.80388 -4.39127,3.74659 -5.77056,5.85495c-2.45586,3.75398 -4.26936,8.37441 -7.01039,11.98564c-0.59928,0.78953 -1.49871,1.32238 -2.07942,2.12568c-1.65569,2.29034 -3.74145,9.2903 -7.80428,8.80502c-0.5927,-0.0708 -3.49649,-4.91025 -4.1403,-5.95091c-1.70893,-3.66014 -2.2114,-8.12381 -4.66784,-11.42977c-4.61898,-6.2164 -10.37888,-11.48216 -15.97426,-16.94331c-2.22902,-2.17555 -4.50406,-5.2266 -7.0858,-6.96093c-0.87499,-0.58779 -1.98472,-0.7712 -2.84539,-1.37978c-0.69459,-0.49114 -0.97545,-1.49699 -1.74269,-1.86443c-0.73841,-0.35364 -1.69314,0.16305 -2.45193,-0.14444c-0.70266,-0.28474 -1.29103,-0.77765 -1.88005,-1.26938z" fill="#a16d3d" stroke="none" stroke-width="0.5"/><path d="M176.00488,123.3718l-2.00055,-1.9508c-1.05156,-0.81722 -1.97527,-1.83862 -3.15541,-2.45577c-1.67376,-0.8753 -3.75023,-1.17253 -5.80734,-1.40156c-0.40873,-0.18229 -1.01187,-0.35121 -1.64907,-0.1811c-0.89428,-0.10245 -1.76255,-0.21989 -2.56791,-0.39597c-0.04653,-0.01017 -0.11036,-0.03077 -0.18843,-0.05853c1.57492,-0.98279 2.80305,-2.48303 4.33213,-3.54861c1.11934,-0.78004 2.50367,-1.11648 3.64619,-1.86217c5.98372,-3.90544 11.01903,-10.7504 16.0206,-15.87491c2.64776,-2.71284 5.82371,-5.35511 8.13079,-8.35472c1.11719,-1.45255 1.67034,-3.2907 2.77738,-4.75099c1.07962,-1.42411 2.5414,-2.52262 3.76452,-3.82557c0.45168,-0.48116 0.89052,-0.97709 1.31398,-1.48326c0.20105,-0.24032 0.44568,-1.04632 0.56106,-0.75501c0.17938,0.45289 -0.44181,0.96827 -0.2927,1.432c1.20948,3.76181 4.78171,6.77083 7.49251,9.41661c4.07122,3.97356 8.1552,7.97991 12.26804,11.91042c3.04143,1.47484 4.91988,3.57254 8.07688,4.89626c5.35611,2.2458 11.11534,3.14963 16.83372,3.08077c2.72665,-0.03283 5.07472,-0.47539 7.0716,1.40126c0.4871,0.45777 0.86946,1.05618 1.37855,1.47984c-1.56723,0.63655 -2.71607,3.23333 -3.93369,4.0949c-0.86046,0.60886 -1.96109,0.82689 -2.81109,1.45028c-0.77455,0.56805 -1.19256,1.55549 -1.99696,2.08043c-0.91644,0.59806 -2.12783,0.62835 -3.04985,1.21776c-1.57029,1.00382 -2.79193,2.50707 -4.3783,3.48527c-1.32844,1.36109 -2.95496,2.40646 -4.43792,3.59731c-7.22564,5.80233 -13.8922,13.97318 -19.30388,21.20153c-1.6954,2.26454 -2.19778,5.14991 -3.9244,7.35572c-0.6218,0.79437 -1.52548,1.34895 -2.11404,2.16826c-0.7921,1.10266 -1.31553,2.37684 -1.9986,3.55016c-0.20698,0.35554 -0.4726,0.68535 -0.72194,1.02137c-0.27542,-0.36867 -0.58345,-0.72495 -0.81958,-1.10908c-1.86247,-3.94292 -2.42382,-8.39382 -5.0539,-12.0255c-4.69127,-6.47779 -10.76322,-11.93891 -16.53231,-17.5696c-2.05608,-2.00676 -4.12097,-4.5638 -6.39725,-6.47824c-0.23411,-0.46632 -0.53281,-0.75876 -0.53281,-0.75876z" data-paper-data="{&quot;noHover&quot;:false,&quot;origItem&quot;:[&quot;Path&quot;,{&quot;applyMatrix&quot;:true,&quot;segments&quot;:[[[46.34754,127.90159],[0.1702,-0.49325],[0.21986,2.96618]],[[46.18441,136.99151],[0,-2.87307],[0,8.06146]],[[45.15213,161.05863],[1.35904,-7.8818],[-0.76192,4.41881]],[[40.07136,173.06812],[1.52082,-4.08687],[-0.10998,0.43729]],[[39.84949,174.42859],[0.07146,-0.45461],[0.41462,-0.05626]],[[41.08418,174.2313],[-0.39901,0.10021],[1.31677,-0.3307]],[[45.01924,173.1803],[-1.34236,0.20332],[0.99742,-0.15107]],[[48.04562,173.17691],[-1.00279,0.10986],[2.78455,-0.30506]],[[56.04562,170.84358],[-2.80478,0.36842],[8.95279,-1.17599]],[[84.65653,169.84358],[-9.19927,-1.11818],[1.88802,0.22949]],[[90.3232,170.51024],[-1.90192,0],[1.80807,0.45202]],[[95.87005,171.21264],[-1.81517,-0.42262],[1.06581,0.24815]],[[98.87005,172.54597],[-1.0681,-0.23811],[0.93751,0.209]],[[101.75153,172.52379],[-0.94752,-0.15753],[1.03982,0.17287]],[[104.75153,173.52379],[-1.03673,-0.19051],[1.46705,0.26959]],[[110.42654,173.48193],[-1.5502,-0.67696],[-0.0524,-0.66024]],[[110.52157,171.4631],[0.01263,0.66833],[-0.05176,-2.73982]],[[106.58331,165.42594],[1.92798,1.92836],[-4.0434,-4.04419]],[[97.02406,151.23864],[2.13391,5.40166],[-1.25777,-3.18385]],[[94.88336,142.05863],[1.0689,3.2067],[-0.05987,-5.68864]],[[94.85107,124.99151],[0,5.68894],[0,-3.78796]],[[96.36466,113.05942],[-1.84731,3.49307],[0.22773,-0.43061]],[[97.59333,112.26827],[-0.19881,0.4447],[0.12788,-0.28605]],[[96.66187,112.39463],[0.31241,-0.02398],[-0.65801,0.0505]],[[94.68441,112.49151],[0.65982,-0.01284],[-1.78674,0.03478]],[[89.3232,112.47278],[1.77323,-0.22208],[-1.81829,0.22773]],[[83.98987,113.80611],[1.81983,-0.21506],[-3.75806,0.44411]],[[72.35107,113.82484],[3.7908,0],[-7.16075,0]],[[49.82819,113.43622],[6.97434,1.55434],[-1.33166,-0.29678]],[[45.95062,112.1259],[1.34005,0.25621],[-1.83059,-0.34999]],[[40.38792,111.50151],[1.80336,0.44062],[0.03467,0.07526]],[[40.4777,111.67718],[-0.02522,-0.0404],[0.43652,0.69934]],[[41.98836,113.79098],[-0.55131,-0.71154],[0.5668,0.33719]],[[43.01082,115.09734],[-0.15503,-0.41983],[1.27293,1.63212]],[[46.06569,120.23028],[-0.54268,-1.80918],[0.38264,1.27563]],[[46.51464,124.20031],[-0.14965,-1.32334],[0,0]],[46.51774,126.99151]],&quot;closed&quot;:true}]}" fill="#de9754" stroke="none" stroke-width="0.5"/><text transform="translate(194.95532,135.99176) rotate(-52.80901) scale(0.34832,0.34832)" font-size="40" xml:space="preserve" fill="#ffffff" fill-rule="nonzero" stroke="#000000" stroke-width="1" stroke-linecap="butt" stroke-linejoin="miter" stroke-miterlimit="10" stroke-dasharray="" stroke-dashoffset="0" font-family="Sans Serif" font-weight="normal" text-anchor="start" style="mix-blend-mode: normal"><tspan x="0" dy="0">floppa</tspan></text><path d="M190.15317,230.80812c0.06794,3.01789 0.83149,5.99369 0.43349,9.1265c-1.05292,8.28788 -6.2245,17.64476 -12.05915,23.47454c-2.58087,2.57872 -5.76875,3.21764 -8.58699,5.21865c-0.84247,0.59817 -1.20009,1.72316 -2.02181,2.34954c-1.31015,0.9987 -2.91351,1.5524 -4.30742,2.42752c0.95367,-0.01044 1.91544,-0.07377 2.83578,0.15048c1.04911,0.25563 1.9102,1.01678 2.91328,1.41656c4.038,1.60936 8.22987,0.46285 12.44899,1.59174c8.02939,2.14839 16.86294,5.79561 25.46006,4.28324c1.41944,-0.2497 2.99103,-0.96071 4.54712,-1.89579c1.17213,-0.94793 2.49228,-1.8064 3.52824,-2.48043c0.73771,-0.58813 1.43657,-1.18673 2.07355,-1.76324c0.35036,-0.51221 0.68691,-1.03043 1.25089,-1.1789c0.03389,-0.03332 0.06746,-0.06646 0.10072,-0.09942c0.48277,-0.48277 2.56771,-2.56771 2.56771,-2.56771c0.45241,-0.45241 1.07741,-0.73223 1.76777,-0.73223c1.38071,0 2.5,1.11929 2.5,2.5c0,0.69036 -0.27982,1.31536 -0.73223,1.76777l-2.66667,2.66667c-0.5386,0.88774 -1.36586,1.51032 -2.2708,2.06282c-1.14814,0.9824 -2.40992,1.97115 -3.7275,2.87879c-0.10231,0.13435 -0.21165,0.26856 -0.32685,0.39453c0.56714,0.28341 1.10626,0.66388 1.70462,0.86563c1.13754,0.38355 2.29969,0.73927 3.49156,0.88254c2.87747,0.34589 5.79635,-0.01873 8.69454,-0.01873c5.22222,0 10.44444,0 15.66667,0c2.16578,0 5.66177,0.70591 7.70623,0.07993c2.04968,-0.62757 3.74236,-2.0951 5.66178,-3.0495c2.03248,-1.48297 3.79979,-3.33951 5.95458,-4.63838c0.75356,-0.45423 1.70218,-0.5597 2.50866,-0.90051c0.37942,-0.39433 0.86463,-0.89725 1.335,-1.35177c0.17247,-0.46705 0.27275,-0.98808 0.47232,-1.43488l0.37807,-0.18826l-0.11773,-0.11773l2.33333,-2.33333l0.89977,0.89977l2.32977,-1.16011c-0.11674,0.87305 -0.1516,1.7668 -0.20757,2.65521l0.98186,0.49093l-1.33333,2.66667l-0.11072,-0.05536c-0.0494,0.16463 -0.10433,0.32786 -0.16556,0.4895c-0.80566,2.1267 -5.09348,4.11722 -6.77563,5.43459c-0.21337,0.1671 -0.58088,0.66589 -1.04202,1.17761c0.06393,0.00188 0.12768,0.00275 0.1912,0.00229c3.41147,-0.02464 5.80025,0.43196 9.06712,1.03228c2.43219,0.44694 5.45243,-0.03228 7.93288,-0.03228c6.33333,0 12.66667,0 19,0c3.76437,0 7.45003,-0.15361 11.19508,-0.32951c0.70514,-0.03312 1.44067,0.29955 2.11571,0.09305c2.53288,-0.77481 3.57752,-2.98889 5.03577,-4.78103c0.56388,-0.69299 1.62577,-0.96618 2.0104,-1.77256c0.29449,-0.61741 -0.16269,-1.3598 -0.1903,-2.04329c-0.08523,-2.10939 0,-4.22222 0,-6.33333c0,-9.16242 0.02647,-17.61818 -3.22029,-26.25672c-0.7327,-3.50598 -4.14674,-6.51093 -6.04667,-9.72059c-0.43628,-0.73703 -0.51221,-1.80318 -1.24399,-2.2482c-1.74536,-1.0614 -4.05166,0.19019 -5.71626,0.37725c-2.1183,0.23805 -4.23743,0.47061 -6.35978,0.66943c-2.1221,0.1988 -4.31839,-0.5266 -6.39403,-0.04229c-1.06569,0.24866 -1.93404,1.08583 -3,1.33333c-2.64198,0.61342 -5.78024,0.21489 -8.45186,0.68885c-1.03789,0.18413 -1.96185,0.81738 -3,1c-5.04486,0.88746 -10.46063,0.37577 -15.33333,2c-4.21966,0 -8.24711,1.38926 -12.42833,2.01355c-2.05209,0.3064 -4.21625,-0.04837 -6.19901,0.56285c-1.01433,0.31269 -1.83009,1.15494 -2.86539,1.389c-2.67439,0.60461 -6.4795,0.06688 -9.24105,0.06688c-5.43254,0 -12.12806,1.06412 -17.43376,-0.03792c-2.70534,-0.56192 -5.03457,-2.37353 -7.7232,-3.01063c-1.09056,-0.25842 -2.29801,0.25508 -3.36077,-0.10077c-0.91611,-0.30675 -1.41561,-1.35847 -2.28084,-1.78826c-0.78158,-0.38824 -1.69743,-0.40631 -2.54615,-0.60946c-3.26164,-2.13593 -5.8579,-3.87052 -9.6075,-4.10733zM185.2101,229.80062c-0.676,-0.36008 -1.56057,-1.14451 -1.21184,-2.71378c0.54233,-2.44047 2.98279,-1.89814 2.98279,-1.89814l2.73047,0.62206c4.75234,0.02951 8.21503,1.9073 12.07193,4.53212c0.92906,0.24129 1.92984,0.2922 2.78718,0.72387c0.68817,0.34649 0.98779,1.30271 1.71916,1.54507c0.83569,0.27693 1.783,-0.30559 2.63923,-0.10077c2.65062,0.63406 4.94523,2.41831 7.61013,2.98937c1.70563,0.36549 3.48856,-0.03792 5.23291,-0.03792c3.77778,0 7.55556,0 11.33333,0c2.29658,0 5.86224,0.61865 8.09228,0.06688c0.89924,-0.22249 1.57886,-1.01753 2.46794,-1.27767c2.29568,-0.6717 4.7691,-0.41401 7.13432,-0.77048c4.12526,-0.62173 8.0725,-1.98645 12.23834,-1.98645c3.15933,-1.05311 5.61085,-0.52751 8.76166,-1.01355c3.28949,-0.50743 6.34725,-1.42031 9.57167,-1.98645c2.58796,-0.45439 5.67706,-0.03876 8.21481,-0.64449c1.06442,-0.25406 1.92967,-1.10548 3,-1.33333c0.82311,-0.17523 6.07374,0.04159 6.9393,-0.04229c4.55356,-0.44129 10.93329,-2.72853 15.25729,-0.28665c1.35119,0.76305 1.87577,2.47386 2.75601,3.7518c2.41702,3.50905 5.50031,6.92298 6.62,10.94608c3.40977,9.11279 3.44638,18.09651 3.44638,27.74328c0,2.4482 0.74739,8.03331 -0.1903,10.29004c-0.50243,1.20921 -1.86052,1.8542 -2.65627,2.89411c-2.08443,2.724 -4.03556,5.41405 -7.63089,6.5523c-1.02295,0.32386 -2.14715,0.01964 -3.21762,0.09305c-3.8415,0.26344 -7.61255,0.33716 -11.47158,0.33716c-6.33333,0 -12.66667,0 -19,0c-2.76906,0 -6.00984,0.43118 -8.73379,-0.03228c-1.75951,-0.29937 -3.48145,-0.97866 -5.26621,-0.96772c-2.07919,0.01275 -7.65764,0.70843 -10.05423,-1.22958c-1.60842,0.96367 -3.19772,1.97142 -4.98533,2.48298c-3.58483,1.02588 -9.24767,0.07993 -12.96044,0.07993c-6.80756,0 -14.25081,0.84771 -20.97212,-0.01873c-1.82535,-0.2353 -6.10219,-1.40651 -7.82383,-2.58419c-0.67465,-0.4615 -1.54669,-0.87576 -2.27478,-1.37523c-0.70784,0.25807 -1.40832,0.46012 -2.09327,0.59377c-9.30369,1.81533 -19.18974,-1.96205 -27.87327,-4.38343c-2.89357,-0.80687 -6.01313,-0.20785 -8.99242,-0.59201c-2.23243,-0.28786 -4.13136,-1.84154 -6.31197,-2.39968c-3.57853,-0.91596 -7.94362,0.95436 -8.12379,-5.82126c-0.04065,-1.52887 2.30024,-2.01626 3.45035,-3.02439c1.41855,-1.00524 3.16232,-1.50951 4.53513,-2.57636c0.80189,-0.62317 1.14705,-1.73354 1.97819,-2.31713c2.67889,-1.881 5.69062,-2.38966 8.07968,-4.78135c5.00534,-5.01085 9.7328,-13.37557 10.60751,-20.52546c0.40064,-3.27482 -0.39097,-6.32344 -0.41402,-9.52309z" fill="#927e58" stroke="none" stroke-width="0.5"/><path d="M199.71619,234.89263c0.84872,0.20315 1.85324,0.26746 2.63482,0.6557c0.86523,0.42979 1.2761,1.43521 2.19221,1.74196c1.06277,0.35586 2.27106,-0.15922 3.36162,0.0992c2.68863,0.6371 5.01876,2.44717 7.7241,3.00909c5.3057,1.10204 12.01803,0.02115 17.45057,0.02115c2.76155,0 6.58987,0.53058 9.26425,-0.07403c1.03531,-0.23406 1.8591,-1.0761 2.87343,-1.38878c1.98276,-0.61123 4.1615,-0.25261 6.21359,-0.559c4.18122,-0.62429 8.22393,-2.00322 12.44359,-2.00322c4.8727,-1.62423 10.29551,-1.1038 15.34037,-1.99126c1.03815,-0.18262 1.96256,-0.81516 3.00044,-0.99929c2.67162,-0.47396 5.81163,-0.0723 8.45362,-0.68572c1.06596,-0.2475 1.93439,-1.08453 3.00008,-1.33318c2.07564,-0.4843 4.27296,0.24323 6.39506,0.04443c2.12235,-0.19882 4.24207,-0.43002 6.36037,-0.66808c1.6646,-0.18707 3.97138,-1.43748 5.71673,-0.37608c0.73178,0.44502 0.80831,1.51278 1.24459,2.24981c1.89993,3.20966 5.31586,6.22158 6.04856,9.72756c3.24676,8.63855 3.2207,17.11099 3.2207,26.27341c0,2.11111 -0.08592,4.22774 -0.0007,6.33713c0.02762,0.68349 0.48452,1.42704 0.19003,2.04445c-0.38463,0.80638 -1.44687,1.0809 -2.01075,1.77388c-1.45825,1.79214 -2.50407,4.0099 -5.03695,4.78471c-0.67504,0.20649 -1.41072,-0.12578 -2.11586,-0.09266c-3.74505,0.1759 -7.43195,0.33252 -11.19632,0.33252c-6.33333,0 -12.67057,0.0071 -19.00391,0.0071c-2.48045,0 -5.50382,0.48346 -7.93601,0.03652c-3.26687,-0.60032 -5.66064,-1.0517 -9.07211,-1.02706c-0.06352,0.00046 -0.19429,-0.07462 -0.25822,-0.0765c0.46114,-0.51173 0.82698,-1.00895 1.04036,-1.17605c1.68215,-1.31737 5.96248,-3.29848 6.76814,-5.42518c0.06123,-0.16164 0.1158,-0.32428 0.1652,-0.48891l0.11072,0.05537l1.33137,-2.66304l-0.98187,-0.49092c0.05597,-0.88841 0.08935,-1.77884 0.20609,-2.65189l-2.23818,1.20012l-0.89948,-0.90039l-2.33569,2.33787l0.1177,0.11779l-0.37837,0.18876c-0.19957,0.4468 -0.30114,0.96986 -0.47361,1.43691c-0.47036,0.45452 -0.95737,0.95995 -1.3368,1.35428c-0.80648,0.34081 -1.75758,0.44926 -2.51114,0.9035c-2.15479,1.29887 -3.93207,3.16395 -5.96455,4.64692c-1.91942,0.95439 -3.62214,2.42694 -5.67182,3.05452c-2.04446,0.62598 -5.55361,-0.07704 -7.71939,-0.07704c-5.22222,0 -10.47089,-0.00513 -15.69311,-0.00513c-2.89819,0 -5.82646,0.35851 -8.70393,0.01262c-1.19188,-0.14327 -2.35734,-0.50197 -3.49487,-0.88552c-0.59835,-0.20175 -1.13918,-0.58398 -1.70632,-0.86739c0.1152,-0.12596 0.29821,-0.3278 0.40052,-0.46215c1.31758,-0.90764 2.57894,-1.89683 3.72708,-2.87924c0.90494,-0.55251 1.65938,-1.10655 2.19797,-1.99429l2.66652,-2.66683c0.45241,-0.45241 0.7311,-1.07867 0.7311,-1.76902c0,-1.38071 -1.12372,-2.50591 -2.50444,-2.50591c-0.69036,0 -1.2308,0.22644 -1.68321,0.67885c0,0 -2.0857,2.08376 -2.56847,2.56653c-0.03326,0.03296 -0.06686,0.06606 -0.10075,0.09938c-0.56399,0.14846 -0.9008,0.6663 -1.25115,1.17851c-0.63698,0.57651 -1.33608,1.17474 -2.0738,1.76287c-1.03596,0.67403 -2.4384,1.58931 -3.61053,2.53724c-1.55608,0.93509 -3.12834,1.6451 -4.54778,1.89481c-8.59712,1.51238 -17.43657,-2.14727 -25.46596,-4.29566c-4.21912,-1.12889 -8.41192,0.01428 -12.44992,-1.59508c-1.00307,-0.39978 -1.86446,-1.16221 -2.91357,-1.41784c-0.92034,-0.22425 -1.8822,-0.16136 -2.83587,-0.15092c1.39392,-0.87512 2.99708,-1.42979 4.30724,-2.42849c0.82171,-0.62637 1.17912,-1.75266 2.02159,-2.35083c2.81824,-2.00101 6.00575,-2.64286 8.58662,-5.22158c5.83466,-5.82979 11.0085,-15.20702 12.06142,-23.49489c0.398,-3.13281 -0.36281,-6.11528 -0.43075,-9.13318c3.7496,0.23681 6.34614,1.97085 9.60778,4.10678z" data-paper-data="{&quot;noHover&quot;:false,&quot;origItem&quot;:[&quot;Path&quot;,{&quot;applyMatrix&quot;:true,&quot;segments&quot;:[[[171.06552,222.5038],[3.7496,0.23681],[0.06794,3.01789]],[[171.49901,231.6303],[0.398,-3.13281],[-1.05292,8.28788]],[[159.43986,255.10484],[5.83466,-5.82979],[-2.58087,2.57872]],[[150.85287,260.3235],[2.81824,-2.00101],[-0.84247,0.59817]],[[148.83106,262.67303],[0.82171,-0.62637],[-1.31015,0.9987]],[[144.52364,265.10055],[1.39392,-0.87512],[0.95367,-0.01044]],[[147.35941,265.25103],[-0.92034,-0.22425],[1.04911,0.25563]],[[150.27269,266.66759],[-1.00307,-0.39978],[4.038,1.60936]],[[162.72168,268.25933],[-4.21912,-1.12889],[8.02939,2.14839]],[[188.18174,272.54257],[-8.59712,1.51238],[1.41944,-0.2497]],[[192.72886,270.64677],[-1.55608,0.93509],[1.17213,-0.94793]],[[196.2571,268.16634],[-1.03596,0.67403],[0.73771,-0.58813]],[[198.33065,266.4031],[-0.63698,0.57651],[0.35036,-0.51221]],[[199.58154,265.22421],[-0.56399,0.14846],[0.03389,-0.03332]],[[199.68226,265.12479],[-0.03326,0.03296],[0.48277,-0.48277]],[[202.24997,262.55708],[0,0],[0.45241,-0.45241]],[[204.01774,261.82484],[-0.69036,0],[1.38071,0]],[[206.51774,264.32484],[0,-1.38071],[0,0.69036]],[[205.78551,266.09261],[0.45241,-0.45241],[0,0]],[[203.11884,268.75928],[0,0],[-0.5386,0.88774]],[[200.84804,270.8221],[0.90494,-0.55251],[-1.14814,0.9824]],[[197.12054,273.70088],[1.31758,-0.90764],[-0.10231,0.13435]],[[196.79369,274.09541],[0.1152,-0.12596],[0.56714,0.28341]],[[198.4983,274.96104],[-0.59835,-0.20175],[1.13754,0.38355]],[[201.98987,275.84358],[-1.19188,-0.14327],[2.87747,0.34589]],[[210.68441,275.82484],[-2.89819,0],[5.22222,0]],[[226.35107,275.82484],[-5.22222,0],[2.16578,0]],[[234.0573,275.90477],[-2.04446,0.62598],[2.04968,-0.62757]],[[239.71908,272.85528],[-1.91942,0.95439],[2.03248,-1.48297]],[[245.67366,268.2169],[-2.15479,1.29887],[0.75356,-0.45423]],[[248.18232,267.31639],[-0.80648,0.34081],[0.37942,-0.39433]],[[249.51732,265.96461],[-0.47036,0.45452],[0.17247,-0.46705]],[[249.98964,264.52974],[-0.19957,0.4468],[0,0]],[250.36771,264.34148],[250.24997,264.22374],[252.58331,261.89041],[253.48308,262.79018],[[255.81285,261.63007],[0,0],[-0.11674,0.87305]],[[255.60528,264.28528],[0.05597,-0.88841],[0,0]],[256.58714,264.77621],[255.25381,267.44288],[[255.14309,267.38752],[0,0],[-0.0494,0.16463]],[[254.97752,267.87702],[0.06123,-0.16164],[-0.80566,2.1267]],[[248.20189,273.31161],[1.68215,-1.31737],[-0.21337,0.1671]],[[247.15987,274.48922],[0.46114,-0.51173],[0.06393,0.00188]],[[247.35107,274.49151],[-0.06352,0.00046],[3.41147,-0.02464]],[[256.4182,275.52379],[-3.26687,-0.60032],[2.43219,0.44694]],[[264.35107,275.49151],[-2.48045,0],[6.33333,0]],[[283.35107,275.49151],[-6.33333,0],[3.76437,0]],[[294.54616,275.162],[-3.74505,0.1759],[0.70514,-0.03312]],[[296.66187,275.25506],[-0.67504,0.20649],[2.53288,-0.77481]],[[301.69764,270.47403],[-1.45825,1.79214],[0.56388,-0.69299]],[[303.70804,268.70147],[-0.38463,0.80638],[0.29449,-0.61741]],[[303.51774,266.65818],[0.02762,0.68349],[-0.08523,-2.10939]],[[303.51774,260.32484],[0,2.11111],[0,-9.16242]],[[300.29746,234.06812],[3.24676,8.63855],[-0.7327,-3.50598]],[[294.25079,224.34753],[1.89993,3.20966],[-0.43628,-0.73703]],[[293.00679,222.09933],[0.73178,0.44502],[-1.74536,-1.0614]],[[287.29053,222.47658],[1.6646,-0.18707],[-2.1183,0.23805]],[[280.93075,223.14601],[2.12235,-0.19882],[-2.1221,0.1988]],[[274.53672,223.10372],[2.07564,-0.4843],[-1.06569,0.24866]],[[271.53672,224.43705],[1.06596,-0.2475],[-2.64198,0.61342]],[[263.08486,225.1259],[2.67162,-0.47396],[-1.03789,0.18413]],[[260.08486,226.1259],[1.03815,-0.18262],[-5.04486,0.88746]],[[244.75153,228.1259],[4.8727,-1.62423],[-4.21966,0]],[[232.3232,230.13945],[4.18122,-0.62429],[-2.05209,0.3064]],[[226.12418,230.7023],[1.98276,-0.61123],[-1.01433,0.31269]],[[223.25879,232.0913],[1.03531,-0.23406],[-2.67439,0.60461]],[[214.01774,232.15818],[2.76155,0],[-5.43254,0]],[[196.58398,232.12026],[5.3057,1.10204],[-2.70534,-0.56192]],[[188.86078,229.10963],[2.68863,0.6371],[-1.09056,-0.25842]],[[185.50001,229.00886],[1.06277,0.35586],[-0.91611,-0.30675]],[[183.21917,227.22059],[0.86523,0.42979],[-0.78158,-0.38824]],[[180.67302,226.61113],[0.84872,0.20315],[-3.26164,-2.13593]]],&quot;closed&quot;:true}]}" fill="#c9ad79" stroke="none" stroke-width="0.5"/><path d="M216.36752,234.8019c1.20576,-0.04357 2.47519,-0.46243 3.67733,-0.32447c2.44484,0.28056 5.63295,1.37015 8.15283,0.71862c2.27378,-0.58791 4.19574,-2.28585 6.50726,-2.70126c0.37125,-0.06672 5.20206,-0.01744 5.76166,-0.01355c4.64167,-1.16042 9.31271,0.19076 13.905,-0.65312c5.56831,-1.02323 10.76364,-2.06953 16.461,-2.68402c3.03653,-0.32751 5.42516,-2.21056 8.34141,-2.94234c6.7242,-1.68732 14.33899,-2.38238 21.26472,-2.40592c1.73136,0 3.5029,0.41681 5.1939,0.04511c1.1688,-0.25692 2.15833,-1.10647 3.33333,-1.33333c1.85471,-0.3581 3.77817,0.3691 5.66215,0.23197c1.05303,-0.07664 -0.50236,-2.4006 -1.47942,-2.80072c-0.53073,-0.21734 -1.13699,0.16539 -1.70996,0.1903c-2.87463,0.12499 -5.78935,0 -8.66667,0c-3.29451,0 -7.32768,-0.63331 -10.55394,-0.04012c-0.93368,0.17167 -1.73234,0.83185 -2.66667,1c-3.83365,0.68994 -7.63092,-0.16941 -11.5066,0.69186c-3.60798,-0.04415 -4.47102,1.35064 -7.55801,2.78461c-2.70707,1.25749 -5.48001,1.35082 -8.26872,1.85687c-1.06196,0.19271 -1.98824,1.08807 -3.06646,1.03969c-1.52235,-0.06831 -3.04409,-0.60549 -4.3606,-1.37294c-2.5117,-1.46419 -3.23967,-3.49923 -4.74753,-5.71285c-2.22441,-3.26556 -3.811,-6.06363 -3.05376,-10.24977c0.59214,-3.27341 2.59952,-6.45781 2.96768,-9.80279c0.40404,-3.67104 -0.01873,-7.66636 -0.01873,-11.36121c0.00346,-3.44141 -0.5152,-6.79526 -0.66451,-10.22944c-0.18166,-4.17809 0.74247,-8.91488 0.03012,-13.03677c-0.17951,-1.0387 -0.82319,-1.96084 -1,-3c-0.50872,-2.98992 -0.41961,-6.83679 -0.69043,-9.86092c-0.17901,-1.99891 0.50159,-4.06605 0.04594,-6.02056c-0.23817,-1.02161 -1.02547,-1.85335 -1.30089,-2.86555c-0.6323,-2.32378 -0.25418,-5.12529 -0.69452,-7.44662c-0.49938,-2.63251 -1.95381,-5.27645 -2.6356,-7.87496c-0.12168,-0.46377 -1.18403,-6.53405 -1.3125,-7.262c-1.78449,-3.95702 -3.07985,-8.47168 -5.14847,-12.22353c-0.67452,-1.22338 -2.08159,-2.03351 -2.49383,-3.3683c-0.72337,-2.34221 0.86619,-5.06354 -0.00703,-7.3541c-0.35304,-0.92608 -1.42793,-1.42895 -1.85608,-2.32279c-0.67502,-1.40926 -0.8216,-3.02218 -1.39952,-4.47395c-0.76118,-1.91213 -2.25162,-3.47571 -3.02145,-5.38438c-0.4806,-1.19159 -0.56792,-2.51447 -1.01993,-3.71719c-0.90766,-2.41508 -1.9583,-3.58845 -3.3345,-5.72985c-0.25747,-0.40064 -0.28639,-1.04355 -0.72386,-1.23176c-1.34443,-0.5784 -2.84842,0.70348 -4.30082,0.88396c-2.61556,0.32503 -5.22406,-0.95295 -1.91731,1.76141c3.12365,6.71162 6.4148,13.56755 8.35174,20.74687c0.91277,3.38321 0.42091,7.24033 1.60137,10.46715c0.97157,2.65579 2.00728,5.21966 2.44102,8.04064c0.39354,2.55956 -0.35756,5.20673 0.01877,7.76888c0.28889,1.96678 1.65423,3.66211 1.99217,5.62106c0.18568,1.07635 -0.19611,2.20029 -0.01094,3.27673c0.71775,4.17251 2.67609,7.33828 2.68544,11.76888c1.46699,4.40098 1.27531,9.09624 2.00475,13.69716c0.84107,5.30497 2.1106,10.43675 2.99525,15.63618c0.81915,4.81444 0.03228,10.51169 0.03228,15.40046c0,7.63298 0.66667,15.10515 0.66667,22.66667c-0.07868,1.24235 0.36046,2.63443 -0.23603,3.72706c-2.41367,4.42129 -8.53441,2.99955 -12.64352,4.02806c-4.65912,1.16618 -9.49849,0.59512 -14.10147,1.69042c-1.06459,0.25333 -1.92967,1.10548 -3,1.33333c-2.43225,0.51779 -3.60303,-0.23892 -5.88019,0.03573c-2.21906,0.26765 -4.10626,1.52719 -6.14826,2.25685c5.83905,1.79317 11.21351,4.55798 16.8276,6.96402zM188.51607,222.63898c2.11136,-0.43757 4.30278,-0.38378 6.41999,-0.7921c2.68654,-0.51811 5.01599,-2.33357 7.86387,-2.69899c1.80297,-0.23135 3.68294,0.44877 5.45315,0.03573c1.06569,-0.24866 1.93419,-1.08518 3,-1.33333c3.57622,-0.83264 7.55007,-0.037 11.11852,-0.68885c2.26049,-0.41292 4.41855,-1.31172 6.68833,-1.67008c0.03416,-0.00539 5.37215,-0.16003 5.44816,-0.58925c0.09436,-0.53289 -0.15735,-1.07085 -0.23603,-1.60628c0,-7.55151 -0.66667,-15.03894 -0.66667,-22.66667c0,-4.56457 0.85478,-10.12361 0.03228,-14.59954c-0.95734,-5.20972 -2.1501,-10.37044 -3.00475,-15.69716c-0.73492,-4.58046 -0.53625,-9.25919 -1.99525,-13.63618c0.00949,-4.3853 -1.89669,-7.40142 -2.64789,-11.56446c-0.20066,-1.11203 0.16774,-2.27417 -0.01094,-3.38994c-0.31914,-1.9929 -1.70371,-3.71703 -2.00783,-5.71227c-0.37995,-2.4927 0.42382,-5.07571 0.01877,-7.56446c-0.41973,-2.57895 -1.4045,-4.88979 -2.22565,-7.29269c-1.22468,-3.58373 -0.72117,-7.20573 -1.73196,-10.86618c-1.83713,-6.65298 -4.87369,-12.96302 -7.64826,-19.25313c-0.76996,-0.87088 -2.07526,-1.47413 -2.30987,-2.61265c-1.34144,-6.50991 3.36318,-6.4109 7.72589,-6.95928c2.72779,-0.34287 3.90234,-1.78913 7.03251,-0.44937c1.16579,0.49898 1.82121,1.77491 2.60947,2.76824c2.66577,3.35931 3.45975,6.71982 4.9789,10.55296c0.74476,1.8792 2.22481,3.40668 2.97855,5.28229c0.54441,1.35471 0.64229,2.87318 1.26715,4.19271c0.52726,1.11344 1.75354,1.84206 2.14392,3.01054c0.7724,2.31191 -0.7732,4.99858 -0.00703,7.31256c0.35757,1.07993 1.61704,1.63912 2.17284,2.6317c2.24082,4.00175 3.65613,8.86602 5.5182,13.10981c0.45973,2.46668 0.71365,4.97864 1.35417,7.40467c0.70919,2.68616 2.17694,5.40051 2.69773,8.12504c0.45362,2.37312 -0.0213,4.89589 0.63881,7.22004c0.31138,1.09633 1.12786,2.01986 1.36578,3.13445c1.09224,5.11687 -0.25623,10.9755 0.68885,16.11852c0.19051,1.03673 0.83216,1.95936 1,3c0.70471,4.36942 -0.16179,9.21595 0.03012,13.62989c0.15227,3.50215 0.66558,6.92575 0.66883,10.43723c0,3.87925 0.45608,8.12309 -0.01873,11.97212c-0.31059,2.5178 -1.41369,5.56855 -2.06829,8.01507c-0.60305,2.25385 -1.68713,3.85633 -0.47503,6.30149c0.43124,0.86994 1.23635,1.50029 1.79057,2.29754c1.18064,1.69835 1.54238,3.05993 3.25247,4.28715c1.06172,0.76192 2.62353,-0.08355 3.90628,-0.33326c2.39123,-0.46549 4.72826,-0.38028 7.06461,-1.47647c3.29988,-1.54826 5.2101,-3.17434 9.10866,-3.21539c3.73761,-0.83058 7.51806,0.07383 11.16006,-0.64148c0.93154,-0.18296 1.73078,-0.84075 2.66667,-1c4.51507,-0.76827 9.85945,-0.04012 14.44606,-0.04012c2.18406,0 7.36592,-0.7525 9.29004,0.1903c4.49347,2.20175 7.03167,8.59972 1.85391,11.86595c-1.56026,0.98424 -5.19494,-0.14439 -7.00452,0.23197c-1.17163,0.24368 -2.16044,1.09579 -3.33333,1.33333c-0.27973,0.05665 -5.44919,0.04511 -6.13944,0.04511c-6.50015,-0.02562 -13.75702,0.69038 -20.06862,2.26075c-3.17389,0.78968 -5.64057,2.63566 -8.99193,3.05766c-2.50777,0.31577 -5.30763,0.13439 -7.77013,0.63054c-2.80097,0.56435 -5.56242,1.52993 -8.43554,2.01877c-4.6983,0.79938 -9.40092,-0.4933 -14.095,0.68022c-1.8572,0.01052 -3.74129,-0.32821 -5.57167,-0.01355c-2.20046,0.37829 -3.9901,2.10365 -6.15941,2.63207c-3.21023,0.78198 -6.7113,-0.23581 -9.84717,-0.61472c-1.77869,-0.21492 -4.57394,0.41856 -6.18444,-0.11336c-1.09702,-0.36233 -1.73279,-1.59676 -2.79661,-2.04735c-0.76631,-0.32457 -1.66755,-0.05986 -2.48928,-0.19151c-2.95438,-0.47333 -6.67112,-1.55406 -9.35525,-2.88706c-3.99401,-1.98353 -6.72981,-4.57844 -11.23495,-4.41245c0,0 -1.51802,0 -2.18827,-1.18289c-0.59492,-0.457 -0.9784,-1.17561 -0.9784,-1.98377c0,-0.90946 0.48562,-1.70549 1.21171,-2.14294l2.62996,-1.64373l0.08137,0.1302z" fill="#754718" stroke="none" stroke-width="0.5"/><path d="M214.06645,233.37531c-5.61409,-2.40604 -10.99674,-5.17638 -16.83579,-6.96954c2.042,-0.72966 3.99156,-2.06735 6.21062,-2.335c2.27716,-0.27465 3.44567,0.48042 5.87792,-0.03737c1.07033,-0.22786 1.93451,-1.0806 2.99911,-1.33393c4.60298,-1.0953 9.4357,-0.52788 14.09482,-1.69406c4.10911,-1.02851 10.22258,0.3906 12.63625,-4.0307c0.59649,-1.09263 0.13002,-2.38851 0.20869,-3.63087c0,-7.56152 -0.67496,-15.03693 -0.67496,-22.6699c0,-4.88877 0.77599,-10.59334 -0.04316,-15.40779c-0.88465,-5.19943 -2.17003,-10.35866 -3.0111,-15.66363c-0.72945,-4.60091 -0.53484,-9.32559 -2.00183,-13.72657c-0.00935,-4.4306 -1.95984,-7.60917 -2.67759,-11.78168c-0.18517,-1.07644 0.19902,-2.20302 0.01334,-3.27938c-0.33794,-1.95895 -1.70094,-3.65653 -1.98983,-5.62331c-0.37633,-2.56214 0.3791,-5.21281 -0.01444,-7.77237c-0.43373,-2.82098 -1.4674,-5.38624 -2.43897,-8.04203c-1.18047,-3.22682 -0.68572,-7.08566 -1.59849,-10.46887c-1.93695,-7.17932 -5.22669,-14.03599 -8.35034,-20.74761c-3.30675,-2.71436 -0.69696,-1.43702 1.9186,-1.76205c1.4524,-0.18048 2.95863,-1.46337 4.30307,-0.88497c0.43747,0.18821 0.46649,0.83108 0.72397,1.23172c1.37621,2.1414 2.42737,3.31456 3.33502,5.72964c0.45202,1.20272 0.53906,2.52571 1.01966,3.7173c0.76982,1.90867 2.26078,3.47204 3.02196,5.38417c0.57792,1.45178 0.72424,3.0648 1.39927,4.47406c0.42815,0.89384 1.53978,1.48971 1.89282,2.4158c0.87322,2.29057 -0.71409,5.01096 0.00928,7.35317c0.41224,1.3348 1.77954,2.05318 2.45407,3.27655c2.06862,3.75184 3.40293,8.35861 5.18742,12.31563c0.12847,0.72795 1.19329,6.7971 1.31497,7.26087c0.68178,2.59851 2.13846,5.24129 2.63784,7.8738c0.44035,2.32133 0.07045,5.11715 0.70275,7.44093c0.27542,1.0122 1.06538,1.84151 1.30355,2.86312c0.45565,1.9545 -0.21217,4.00048 -0.03317,5.99939c0.27082,3.02413 0.17042,6.82244 0.67913,9.81236c0.17681,1.03916 0.81154,1.95372 0.99105,2.99242c0.71235,4.12189 -0.22531,8.85239 -0.04365,13.03048c0.14931,3.43417 0.66295,6.78684 0.65948,10.22824c0,3.69484 0.40692,7.78888 0.00287,11.45992c-0.36816,3.34499 -2.36051,6.43053 -2.95265,9.70394c-0.75725,4.18614 0.82578,6.98375 3.05018,10.24931c1.50786,2.21362 2.23211,4.24846 4.74381,5.71265c1.31651,0.76746 2.83521,1.30467 4.35756,1.37298c1.07822,0.04838 2.00232,-0.84684 3.06428,-1.03955c2.78871,-0.50605 5.55576,-0.59852 8.26283,-1.85601c3.08699,-1.43397 3.94452,-2.82728 7.5525,-2.78313c3.87568,-0.86126 7.66596,0.001 11.49961,-0.68894c0.93432,-0.16815 1.7313,-0.82743 2.66498,-0.9991c3.22626,-0.5932 7.25456,0.04322 10.54907,0.04322c2.87732,0 5.78878,0.12755 8.66342,0.00255c0.57296,-0.02491 1.17861,-0.4071 1.70933,-0.18976c0.97706,0.40012 2.59835,2.79928 1.54533,2.87592c-1.88398,0.13712 -3.8093,-0.58853 -5.66401,-0.23043c-1.175,0.22686 -2.16616,1.07765 -3.33496,1.33456c-1.69099,0.3717 -3.46465,-0.04366 -5.19602,-0.04366c-6.92572,0.02354 -14.55223,0.72418 -21.27643,2.4115c-2.91625,0.73178 -5.31058,2.61633 -8.34711,2.94383c-5.69735,0.61449 -10.90361,1.66174 -16.47192,2.68497c-4.59229,0.84388 -9.27214,-0.50829 -13.91381,0.65213c-0.55961,-0.00389 -5.39385,-0.05399 -5.7651,0.01273c-2.31152,0.41541 -4.23662,2.11237 -6.51039,2.70028c-2.51987,0.65154 -5.71223,-0.43976 -8.15706,-0.72032c-1.20214,-0.13795 -2.47321,0.28012 -3.67896,0.32369z" data-paper-data="{&quot;noHover&quot;:false,&quot;origItem&quot;:[&quot;Path&quot;,{&quot;applyMatrix&quot;:true,&quot;segments&quot;:[[[197.27987,226.49758],[0,0],[1.20576,-0.04357]],[[200.9572,226.17311],[-1.20214,-0.13795],[2.44484,0.28056]],[[209.11003,226.89172],[-2.51987,0.65154],[2.27378,-0.58791]],[[215.61729,224.19046],[-2.31152,0.41541],[0.37125,-0.06672]],[[221.37895,224.17691],[-0.55961,-0.00389],[4.64167,-1.16042]],[[235.28395,223.52379],[-4.59229,0.84388],[5.56831,-1.02323]],[[251.74495,220.83977],[-5.69735,0.61449],[3.03653,-0.32751]],[[260.08636,217.89743],[-2.91625,0.73178],[6.7242,-1.68732]],[[281.35107,215.49151],[-6.92572,0.02354],[1.73136,0]],[[286.54497,215.53662],[-1.69099,0.3717],[1.1688,-0.25692]],[[289.87831,214.20329],[-1.175,0.22686],[1.85471,-0.3581]],[[295.54045,214.43526],[-1.88398,0.13712],[1.05303,-0.07664]],[[294.06103,211.63454],[0.97706,0.40012],[-0.53073,-0.21734]],[[292.35107,211.82484],[0.57296,-0.02491],[-2.87463,0.12499]],[[283.68441,211.82484],[2.87732,0],[-3.29451,0]],[[273.13047,211.78473],[3.22626,-0.5932],[-0.93368,0.17167]],[[270.4638,212.78473],[0.93432,-0.16815],[-3.83365,0.68994]],[[258.9572,213.47658],[3.87568,-0.86126],[-3.60798,-0.04415]],[[251.39919,216.26119],[3.08699,-1.43397],[-2.70707,1.25749]],[[243.13047,218.11806],[2.78871,-0.50605],[-1.06196,0.19271]],[[240.06401,219.15775],[1.07822,0.04838],[-1.52235,-0.06831]],[[235.70341,217.7848],[1.31651,0.76746],[-2.5117,-1.46419]],[[230.95589,212.07195],[1.50786,2.21362],[-2.22441,-3.26556]],[[227.90213,201.82218],[-0.75725,4.18614],[0.59214,-3.27341]],[[230.86981,192.01939],[-0.36816,3.34499],[0.40404,-3.67104]],[[230.85107,180.65818],[0,3.69484],[0.00346,-3.44141]],[[230.18657,170.42874],[0.14931,3.43417],[-0.18166,-4.17809]],[[230.21669,157.39197],[0.71235,4.12189],[-0.17951,-1.0387]],[[229.21669,154.39197],[0.17681,1.03916],[-0.50872,-2.98992]],[[228.52626,144.53105],[0.27082,3.02413],[-0.17901,-1.99891]],[[228.5722,138.51049],[0.45565,1.9545],[-0.23817,-1.02161]],[[227.27131,135.64493],[0.27542,1.0122],[-0.6323,-2.32378]],[[226.57679,128.19831],[0.44035,2.32133],[-0.49938,-2.63251]],[[223.94119,120.32335],[0.68178,2.59851],[-0.12168,-0.46377]],[[222.62869,113.06135],[0.12847,0.72795],[-1.78449,-3.95702]],[[217.48022,100.83782],[2.06862,3.75184],[-0.67452,-1.22338]],[[214.98639,97.46952],[0.41224,1.3348],[-0.72337,-2.34221]],[[214.97937,90.11541],[0.87322,2.29057],[-0.35304,-0.92608]],[[213.12329,87.79262],[0.42815,0.89384],[-0.67502,-1.40926]],[[211.72377,83.31867],[0.57792,1.45178],[-0.76118,-1.91213]],[[208.70232,77.93429],[0.76982,1.90867],[-0.4806,-1.19159]],[[207.68239,74.2171],[0.45202,1.20272],[-0.90766,-2.41508]],[[204.34788,68.48725],[1.37621,2.1414],[-0.25747,-0.40064]],[[203.62402,67.25548],[0.43747,0.18821],[-1.34443,-0.5784]],[[199.3232,68.13945],[1.4524,-0.18048],[-2.61556,0.32503]],[[197.40589,69.90086],[-3.30675,-2.71436],[3.12365,6.71162]],[[205.75763,90.64772],[-1.93695,-7.17932],[0.91277,3.38321]],[[207.359,101.11487],[-1.18047,-3.22682],[0.97157,2.65579]],[[209.80002,109.15551],[-0.43373,-2.82098],[0.39354,2.55956]],[[209.81879,116.92439],[-0.37633,-2.56214],[0.28889,1.96678]],[[211.81096,122.54545],[-0.33794,-1.95895],[0.18568,1.07635]],[[211.80002,125.82218],[-0.18517,-1.07644],[0.71775,4.17251]],[[214.48546,137.59106],[-0.00935,-4.4306],[1.46699,4.40098]],[[216.49021,151.28821],[-0.72945,-4.60091],[0.84107,5.30497]],[[219.48546,166.92439],[-0.88465,-5.19943],[0.81915,4.81444]],[[219.51774,182.32484],[0,-4.88877],[0,7.63298]],[[220.18441,204.99151],[0,-7.56152],[-0.07868,1.24235]],[[219.94838,208.71857],[0.59649,-1.09263],[-2.41367,4.42129]],[[207.30486,212.74663],[4.10911,-1.02851],[-4.65912,1.16618]],[[193.20339,214.43705],[4.60298,-1.0953],[-1.06459,0.25333]],[[190.20339,215.77038],[1.07033,-0.22786],[-2.43225,0.51779]],[[184.3232,215.80611],[2.27716,-0.27465],[-2.21906,0.26765]],[[178.17493,218.06296],[2.042,-0.72966],[5.83905,1.79317]],[[195.00254,225.02698],[-5.61409,-2.40604],[0,0]]],&quot;closed&quot;:true}]}" fill="#a06122" stroke="none" stroke-width="0.5"/><path d="M233.76042,80.71403l2.39807,-0.1457c2.06196,1.57532 3.87211,3.54964 5.24781,5.74981c0.5464,2.15385 1.7905,5.63281 0.56995,7.82398c-0.6141,1.10245 -5.09021,3.63793 -6.48115,4.56517c-4.36839,2.9121 -9.08182,5.11816 -14.32258,6.05624c-0.86002,0.15394 -1.76116,-0.16245 -2.62106,-0.00784c-1.73759,0.31242 -3.27948,1.31141 -4.94506,1.89678c-0.57056,0.20052 -3.72969,1.04077 -4.46179,1.80424c-1.32914,1.38608 -1.89557,3.64732 -3.11214,5.09837c-0.66858,0.79743 -1.68794,1.24756 -2.36512,2.0377c-2.79235,3.25816 -5.25331,6.8744 -8.64598,9.64231c-2.23892,4.0842 -3.89255,8.44945 -6.54178,12.17131c-0.80774,1.13477 -1.26182,2.60832 -2.38634,3.43026c-1.41243,1.03239 -3.17958,2.23316 -4.89556,1.89226c-1.59819,-0.31751 -2.2748,-2.33424 -3.37572,-3.53547c-1.91099,-2.0851 -3.52607,-4.26103 -5.32942,-6.32846c-2.10701,-2.41556 -4.89605,-3.09045 -4.88715,-6.90252c0.00319,-1.3641 0.73647,-2.67303 1.48514,-3.81332c0.52139,-0.79412 1.71507,-0.99203 2.20445,-1.80625c0.48263,-0.80299 0.12997,-1.91561 0.53912,-2.75841c0.58782,-1.21083 1.51961,-2.22715 2.38264,-3.26002c2.56104,-3.06503 5.95859,-4.82417 8.46652,-7.80866c4.10204,-3.43758 8.03397,-6.8598 12.19907,-10.17645c1.97186,-1.57018 3.03466,-3.69079 5.18015,-5.13066c1.08495,-0.72812 2.44005,-0.94168 3.62254,-1.49754c1.89014,-0.88851 3.36848,-2.47874 5.15013,-3.56861c2.68459,-1.64224 6.0719,-1.92659 8.94907,-3.1433c5.15738,-2.18098 8.91154,-3.47958 14.59724,-2.85482c0,0 0.74908,0.08323 1.37895,0.56959z" fill="#d4d4d4" stroke="none" stroke-width="0.5"/><path d="M256.21906,100.30529c0.00788,0.012 0.01538,0.0236 0.02251,0.03477c3.96837,1.6284 7.73453,2.88966 4.52324,8.46536c-1.78429,3.09803 -6.97457,2.73443 -9.68576,3.79299c-0.86562,0.33797 -1.41682,1.24075 -2.25888,1.63375c-2.63308,1.22886 -5.81908,1.89507 -8.33855,3.48409c-1.22031,0.76964 -2.69296,3.24413 -3.73279,4.13014c-3.01587,2.56973 -6.76697,4.99838 -9.40653,8.07005c-1.90537,2.21728 -3.66395,4.66073 -5.60208,6.92092c-2.96025,4.12644 -6.70968,7.68806 -9.58265,11.88624c-1.87269,2.73651 -3.42218,7.09038 -6.76213,8.54858c-1.81245,0.7913 -7.23394,0.4883 -9.29004,0.1903c-1.71863,-0.24908 -4.0676,0.28205 -5.0871,-1.12377c-1.05079,-1.44896 1.44424,-6.18197 2.23995,-7.59912c2.17754,-3.87817 4.87867,-7.78596 7.54331,-11.31564c0.49559,-0.65647 1.39023,-0.97718 1.79501,-1.69322c0.46873,-0.82915 0.2181,-1.95742 0.72472,-2.76398c0.54803,-0.87251 1.53665,-1.37301 2.30498,-2.05951c1.43775,-1.92224 3.33628,-3.45436 4.9265,-5.25251c0.84684,-0.95756 1.22707,-2.29514 2.16075,-3.16824c1.58874,-1.48565 3.77213,-2.23051 5.3727,-3.7034c3.11558,-2.86705 5.4164,-6.97296 9.4161,-8.80528c0.76316,-0.34961 1.75336,0.11322 2.5047,-0.26112c0.76007,-0.37869 1.03208,-1.39465 1.74491,-1.85615c0.7969,-0.51593 1.876,-0.47457 2.66667,-1c1.81959,-1.20919 3.21934,-3.02014 5.13057,-4.07855c2.19056,-1.21311 5.94572,-3.07357 8.4558,-3.61493c0.75322,-0.16245 1.58496,0.35164 2.30985,0.09038c0.79839,-0.28775 1.30482,-1.08553 1.95724,-1.62829c0,0 2,-1.5 3.5,0.5c0.62816,0.83755 0.64252,1.58741 0.44701,2.17614z" fill="#d4d4d4" stroke="none" stroke-width="0.5"/></g></g></svg>