<svg version="1.1" xmlns="http://www.w3.org/2000/svg" xmlns:xlink="http://www.w3.org/1999/xlink" width="100.3454" height="136.5251" viewBox="0,0,100.3454,136.5251"><g transform="translate(-196.09415,-89.56508)"><g data-paper-data="{&quot;isPaintingLayer&quot;:true}" fill-rule="nonzero" stroke="none" stroke-linecap="butt" stroke-linejoin="miter" stroke-miterlimit="10" stroke-dasharray="" stroke-dashoffset="0" style="mix-blend-mode: normal"><path d="M261.52104,196.36096l2.11953,-0.70651l0.80138,-0.06164l0.77975,-0.19494h1.6099l1.07327,-0.26832h0.13932l0.14019,-0.03115l0.04673,0.03115h3.16187l2.13411,0.53353l0.10196,-0.00566l0.02492,0.03738l0.23901,0.05975l1.19505,2.09133l1.3361,2.00416l-0.05344,0.2405l0.02229,0.03901l-0.05066,0.08866l-0.4772,2.14741l-0.53663,1.07327l-0.52307,0.61025l-0.41353,0.68921l-0.53663,0.53663l-0.15263,0.09158l-0.18785,0.44615l-0.53444,0.71259l-0.33501,0.67001l-0.34617,0.40386l-0.22163,0.48355l-0.51424,0.6428v1.33173l-0.04879,0.19516l0.07576,0.15152l-0.37881,1.06066l-0.27316,1.09265l-0.14709,0.08405l-0.06766,0.18945l-0.53663,0.80495l-0.3685,0.335l-0.25622,0.42704l-1.07327,1.07327l-0.42704,0.25622l-0.335,0.3685l-1.6099,1.07327l-0.18945,0.06766l-0.08405,0.14709l-1.09265,0.27316l-1.06066,0.37881l-0.14678,-0.07339l-0.11037,0.05519l-1.12151,0.24922l-1.11456,0.27864h-0.13932l-0.14019,0.03115l-0.04673,-0.03115h-8.52176l-0.84015,0.28005l-0.80138,0.06164l-0.77975,0.19494h-11.80592l-0.95696,-0.23924l-0.36886,0.1006l-0.5509,-0.33054l-0.62327,-0.15582l-0.18969,-0.33196l-0.84584,-0.50751l-0.3697,-0.3697l-0.17578,-0.10547l-0.35146,-0.08786l-0.02507,-0.01337l-0.08807,0.02402l-1.06488,-0.63893l-0.09258,-0.04938l-0.37551,-0.0751l-0.878,-0.41589l-0.81748,-0.29196h-1.34868l-0.77975,-0.19494l-0.80138,-0.06164l-0.62278,-0.20759l-0.28982,-0.07246h-1.75346l-0.00802,0.00606l-0.03756,-0.00606h-0.53691l-0.9762,-0.24405l-0.9934,-0.16023l-0.4935,-0.2115l-0.03691,-0.00923l-0.00499,-0.00873l-1.28679,-0.55148l-1.28498,-0.51399l-0.59646,-0.43077l-0.34168,-0.01898l-0.46279,-0.53992l-1.00973,-0.40389l-0.0097,0.00265l-0.03262,-0.01957l-0.49851,-0.1994l-0.81574,-0.58914l-0.86284,-0.51771l-0.07925,-0.07925l-0.06542,-0.02617l-0.32878,0.08967l-0.5509,-0.33054l-0.62327,-0.15582l-0.10283,-0.17995h-0.34865l-0.95696,-0.23924l-0.36886,0.1006l-0.5509,-0.33054l-0.62327,-0.15582l-0.18969,-0.33196l-0.84584,-0.50751l-3.13187,-3.13187l-0.07226,-0.01775l-0.66098,-1.14569l-0.68052,-1.1342l0.01958,-0.07179l-0.38211,-1.33738l-0.17776,-0.29627l-0.3685,-0.335l-0.19659,-0.29488l-0.29488,-0.19659l-0.52599,-0.57859l-0.33855,-0.09522l-0.35766,-0.67061l-0.51125,-0.56237l0.0242,-0.35085l-0.36797,-0.68994l-0.26832,-1.07327v-0.61553l-0.14929,-0.59715v-1.6099l0.625,-2.5l1.19318,-0.68182l0.68182,-1.19318l2.5,-0.625h4.56138l0.27314,0.06829l0.27901,-0.0377l2.41485,0.26832l0.31959,0.11871h0.34093l0.47612,0.11903h1.59286l-0.84207,-1.12275l-1,-2.375l0.15385,-0.35577l-0.15385,-0.26923l0.83995,-1.46991l-0.30331,-1.21326v-4.02474l0.625,-2.5l0.67734,-0.38705l0.21121,-0.75099l2.27377,-1.21268l1.07327,-0.26832h0.61553l0.59715,-0.14929h1.07327l0.58888,0.14722l0.29138,-0.10865l0.77975,0.37643l0.84,0.21l0.15429,0.27l0.54664,0.26389l0.95852,0.79876l1.35261,0.50723l0.04599,0.03171l0.05535,0.00755l3.1307,1.25228h6.06874l-0.02487,-0.0995l-0.33054,-0.5509l0.1006,-0.36886l-0.22067,-0.88267l-0.11099,-0.18498l-0.00827,-0.02719l-0.07926,-0.04529l-0.30119,-1.20477l-0.36158,-1.18804l0.04466,-0.07962l-0.00689,-0.02757v-1.10738l-0.79577,0.24219l-0.01817,-0.01019l-0.37859,0.15144l-0.93827,0.12795l-0.91868,0.22967h-2.14653l-0.77975,-0.19494l-0.80138,-0.06164l-0.43277,-0.14426l-0.72395,-0.12066l-0.02367,0.01184l-0.08286,-0.02959l-0.39245,-0.06541l-0.9628,-0.41861l-0.9887,-0.35311l-0.33104,-0.22069l-0.08069,-0.03508l-0.00918,-0.02483l-0.38404,-0.25603l-0.56946,-0.62641l-0.65703,-0.53384l-0.80495,-1.07327l-1,-2.375l0.07836,-0.18122l-0.10952,-0.16428l0.55902,-2.51558l0.26832,-0.53663l1.67705,-1.95656l0.19713,-0.01095l0.09795,-0.17142l2.07877,-0.51969l0.71081,-0.28432l0.0687,-0.00937l0.06644,-0.07751l0.38902,-0.02161l1.19339,-0.63647l1.16072,-0.29018l0.00454,-0.00454l0.84584,-0.50751l0.18969,-0.33196l0.62327,-0.15582l0.5509,-0.33054l0.36886,0.1006l0.95696,-0.23924h3.89006l0.20531,-0.34218l0.5844,-1.09575l0.02332,-0.00656l0.46554,-0.77591l0.5844,-1.09575l0.08788,-0.02472l0.01462,-0.02437l1.6099,-1.6099l0.1725,-0.1035l0.05357,-0.16071l1.01786,-0.48214l0.96577,-0.57946l0.12295,0.03353l0.82762,-0.75238l5.02697,0.34669l2.25347,4.50694l-0.56342,1.57759l0.12584,0.46143l0.86209,0.21552l0.04529,0.07926l0.02719,0.00827l1.34158,0.80495l0.30581,0.30581l0.25532,0.03563l0.5712,0.79089l0.68984,0.68984l-0.00548,0.25773l0.25322,0.35061l0.53663,1.34158l0.12795,0.93827l0.22967,0.91868v1.6099l-0.19494,0.77975l-0.06164,0.80138l-0.28005,0.84015v1.33514l-0.04879,0.19516l0.07576,0.15152l-0.37881,1.06066l-0.27316,1.09265l-0.14709,0.08405l-0.02694,0.07544l-0.3626,1.4504l-1.19318,0.68182l-0.68182,1.19318l-2.5,0.625h-2.25479l2.09983,2.56646l0.02094,0.0444h0.34441l0.04673,-0.03115l0.14019,0.03115h0.13932l1.11456,0.27864l1.12151,0.24922l0.12461,0.06231l0.04345,0.01086l0.01238,-0.04402l1.09575,-0.5844l1.06488,-0.63893l0.08807,0.02402l0.02507,-0.01337l1.07327,-0.26832h0.61553l0.59715,-0.14929h0.80495l0.77975,0.19494l0.80138,0.06164l0.80495,0.26832l2.17407,1.3835l0.1142,0.57101l0.05034,0.02877l0.37331,-0.09333h0.13932l0.14019,-0.03115l0.04673,0.03115h2.35693l0.2698,-0.06745l0.5509,-0.33054l0.36886,0.1006l0.95696,-0.23924h1.44626l1.10042,-0.31441l0.36478,-0.12159l0.21881,-0.1094l2.14741,-0.4772l0.08866,-0.05066l0.03901,0.02229l0.2405,-0.05344l2.00416,1.3361l1.18757,0.67861l0.0643,0.01754l0.00621,0.02275l0.83326,0.47615l0.05975,0.23901l0.03738,0.02492l-0.00566,0.10196l0.53353,2.13411v0.53663l-0.23924,0.95696l0.1006,0.36886l-0.33054,0.5509l-0.15582,0.62327l-0.33196,0.18969l-0.50751,0.84584l-0.80495,0.80495l-0.52781,0.31669l-0.43524,0.43524l-1.34158,0.80495l-0.38732,0.11788l-0.32821,0.23704l-0.07736,0.03094l-0.24032,0.40054l-0.5844,1.09575l-0.08788,0.02472l-0.01462,0.02437l-0.53663,0.53663l-0.84584,0.50751l-0.18969,0.33196l-0.62327,0.15582l-0.5509,0.33054l-0.36886,-0.1006l-0.95696,0.23924h-7.51286l-0.36633,-0.09158v0.13167l0.03115,0.04673l-0.03115,0.14019v0.13932l-0.27864,1.11456l-0.0486,0.21872l0.77872,0.19468l0.99596,1.74292zM249.61902,191.79306l-0.1317,0.05268l0.11958,0.19931l0.15047,-0.20063v-0.02061z" fill="#a3782e" stroke-width="0.5"/><path d="M281.48858,195.99288c1.48335,2.78127 1.73552,6.36388 1.63355,9.49743c0.49615,0.77641 0.78372,1.69899 0.78372,2.68873c0,0.78089 -0.17901,1.51996 -0.49824,2.17843l0.00518,0.07504l-0.09926,0.10919c-0.40177,0.74796 -0.98837,1.38186 -1.6987,1.84061l-0.55988,0.37326l-1.17215,0.93772l-0.20114,0.09219l-0.14884,0.16372l-4.82969,3.2198l-0.54312,0.19397l-0.47476,0.32742l-2.03855,0.76446l-1.35027,0.57869l-2.83783,1.89189l-0.8377,0.29918l-0.79061,0.40766l-4.56138,1.07327l-0.06062,-0.00084l-0.05452,0.02651l-5.09801,1.07327l-0.52265,-0.0196l-0.5074,0.12685h-24.6851l-0.77975,-0.19494l-0.80138,-0.06164l-2.33017,-0.77672l-4.47575,-1.3164l-0.50551,-0.29689l-0.56435,-0.15872l-1.44835,-0.82763l-1.14021,-0.38007l-0.30362,-0.19321l-0.35131,-0.07807l-3.4386,-1.7193l-2.07774,-0.69258l-0.12684,-0.08072l-0.14897,-0.02031l-2.54674,-1.0187l-2.27545,-0.75848l-0.46456,-0.29563l-0.52678,-0.16033l-1.34158,-0.80495l-0.43524,-0.43524l-0.52781,-0.31669l-0.87745,-0.87745l-1.12534,-0.90027l-0.3077,-0.40386l-0.40993,-0.29956l-1.34158,-1.6099l-0.16995,-0.35203l-0.27641,-0.27641l-0.80495,-1.34158l-0.10014,-0.32904l-0.20812,-0.27384l-0.80495,-1.87821l-0.05601,-0.34725l-0.17209,-0.30676l-0.80495,-2.95148l-0.01421,-0.66769l-0.16197,-0.6479v-8.31781l0.625,-2.5l0.17142,-0.09795l0.01095,-0.19713l1.95656,-1.67705l0.53663,-0.26832l0.35131,-0.07807l0.30362,-0.19321l0.80495,-0.26832l0.80138,-0.06164l0.77975,-0.19494h3.5504c-0.50375,-1.72684 -0.30815,-3.75268 0.39241,-5.28117c2.54642,-5.55583 4.82009,-10.16537 10.10765,-11.79549v-9.58467l0.625,-2.5l0.92918,-0.53096l0.30171,-0.352l0.41353,-0.68921l0.13425,-0.13425l0.09633,-0.16858l0.09633,-0.02408l0.20972,-0.20972l0.84584,-0.50751l0.18969,-0.33196l0.62327,-0.15582l0.5509,-0.33054l0.36886,0.1006l0.95696,-0.23924h2.8444l0.01754,-0.00877l0.35131,-0.07807l0.30362,-0.19321l1.27279,-0.42426l0.75544,-0.37772l0.53753,-0.11945l0.48586,-0.25913l0.09371,-0.02343l0.2655,-0.19913l0.37624,-0.15842l0.12376,-0.21658l0.96154,-0.24038l0.91346,-0.38462l0.22442,0.09705l0.07615,-0.03046l0.54422,-0.40817l0.74077,-0.3119l0.67809,-0.43151l0.83268,-0.27756l0.84466,-0.98543l0.26136,-0.52272l0.52307,-0.61025l0.41353,-0.68921l0.64457,-0.64457l1.19638,-1.43566l0.71819,-0.52483l0.64222,-0.61546l0.97978,-0.55987l0.2575,-0.34333l0.06788,-0.40727l0.12783,-0.29402l-0.05722,-0.20981l0.53909,-0.89849l0.41779,-0.96092l0.20399,-0.07539l0.16495,-0.27491l0.50099,-0.50099l1.01621,-1.5969l1.08957,-0.21791l0.68921,-0.7703l1.58114,0.31623l1.58114,-0.31623l0.68921,0.7703l1.08957,0.21791l1.3835,2.17407l0.26832,0.80495l0.05079,0.66021l0.02432,0.10944l0.19321,0.30362l0.26832,0.80495l0.06164,0.80138l0.19494,0.77975v1.12024l0.17122,0.39952l0.00873,0.00499l0.00923,0.03691l0.2115,0.4935l0.16023,0.9934l0.05635,0.22541l0.31888,0.63776l0.04876,0.02786l0.03483,0.13932l0.06231,0.12461l0.24922,1.12151l0.27864,1.11456v0.13932l0.02606,0.11728l0.38769,0.23261l0.93893,0.93893l1.66365,1.03978l0.10947,0.11352l0.14673,0.0578l1.87821,1.34158l0.271,0.31812l0.35835,0.21501l0.57426,0.57426l0.05507,0.01101l0.0771,0.12116l0.09851,0.09851l0.59109,0.98514l0.24951,0.39208l0.23267,0.23267l0.50751,0.84584l0.33196,0.18969l0.15582,0.62327l0.33054,0.5509l-0.05031,0.18447l0.03694,0.06156l0.33196,0.18969l0.15582,0.62327l0.33054,0.5509l-0.1006,0.36886l0.23924,0.95696v1.01534l0.03115,0.04673l-0.03115,0.14019v0.13932l-0.27864,1.11456l-0.24922,1.12151l-0.06231,0.12461l-0.03483,0.13932l-0.04876,0.02786l-0.12242,0.24484l-0.26567,0.30995l-0.01384,0.24907l-0.75252,0.64502l-0.10102,0.11786l-0.09622,0.1512l0.00859,0.03151l-0.06017,0.10028l-0.06074,0.27333l-0.26832,0.53663l-0.52307,0.61025l-0.41353,0.68921l-1.07327,1.07327l-0.14303,0.08582l1.83847,0.5014h8.18485l0.40542,0.10136l0.41657,-0.03333l1.6099,0.26832l0.18689,0.08126h0.20379l0.47612,0.11903h0.99437l2.03305,0.50826l0.22042,-0.0152l0.10667,0.09697l0.13986,0.03496l0.10962,0.19183l0.5348,0.48618l0.75142,0.18786l0.68994,0.36797l0.35085,-0.0242l0.56237,0.51125l0.67061,0.35766l0.09522,0.33855l0.57859,0.52599l0.53663,0.80495l0.28779,0.80582l0.40267,0.755l0.26832,1.07327v0.61553l0.14929,0.59715v6.97622l-0.19494,0.77975l-0.06164,0.80138l-0.20759,0.62278l-0.22174,0.88697l-0.01337,0.02507l0.02402,0.08807l-0.63893,1.06488l-0.5844,1.09575l-0.08788,0.02472l-0.01462,0.02437l-1.56303,1.56303c0.21194,0.82774 1.05711,1.09437 1.41517,1.76574zM273.07413,202.32015c-0.19825,-0.6808 -0.99938,-2.17114 -1.78034,-3.89852h-19.21958l-0.70787,-0.17697l-0.72887,-0.0339l-2.68316,-0.80495l-0.06685,-0.03975l-0.07755,-0.00597l-1.18218,-0.39406l-1.4319,-0.20456l-0.13157,-0.0536l-0.14191,0.00676l-3.53926,-0.70785h-8.62766l-0.77975,-0.19494l-0.80138,-0.06164l-2.17015,-0.72338l-1.62727,-0.36161h-10.07672l-0.01754,0.00877l-1.12151,0.24922l-1.11456,0.27864h-0.13932l-0.14019,0.03115l-0.04673,-0.03115h-1.98688l-1.29759,0.48659l-0.88826,0.10152l-0.86735,0.21684h-3.58612v3.18485l0.53743,1.97056l0.53453,1.24723l0.43147,0.71912l0.77082,0.92498l0.94724,0.75779l0.17063,0.22395l0.24143,0.14486l0.63802,0.63802l0.34313,0.20588l1.89415,0.63138l0.12684,0.08072l0.14897,0.02031l2.54674,1.0187l2.27545,0.75848l0.30362,0.19321l0.35131,0.07807l3.4386,1.7193l1.27279,0.42426l0.42015,0.26737l0.47941,0.13483l1.36995,0.78283l3.99977,1.1764l0.07898,0.04639l0.09133,0.00703l1.6451,0.54837h23.3531l4.53084,-0.95386l3.62606,-0.85319l2.46939,-1.64626l0.43562,-0.15558l0.36828,-0.27989l1.87821,-0.80495l0.11668,-0.01882l0.0973,-0.0671l1.60758,-0.60284l2.03754,-1.35836c0.58421,-1.47283 1.98403,-2.85036 1.40154,-4.85067zM217.87256,179.67924c-1.03956,1.26871 -1.38841,3.19936 -1.88489,5.019l0.13217,-0.03304h0.13932l0.14019,-0.03115l0.04673,0.03115h11.47968l0.5342,0.13355l0.55045,-0.01449l2.41485,0.53663l0.23477,0.11739l0.26171,0.02013l1.6451,0.54837h8.31137l0.48314,0.12078l0.49744,-0.02369l3.88866,0.77773l1.74083,0.24869l0.42089,0.17147l0.45314,0.03486l1.53804,0.51268l1.90772,0.57232h18.9636l0.17185,-0.06874l0.207,-0.34501l1.47041,-1.47041l0.00487,-0.06331l0.01173,-0.0352v-4.08688l-0.20495,0.01413l-0.50729,-0.46118h-0.59845l-0.87955,-0.21989l-1.00475,-0.16746h-8.44063l-0.6479,-0.16197l-0.66769,-0.01421l-2.30548,-0.62877h-8.18485l-0.55368,-0.13842l-0.57062,0.01037l-2.93325,-0.6769h-3.4553l-0.70787,-0.17697l-0.72887,-0.0339l-1.98027,-0.59408h-3.2909l-0.70787,-0.17697l-0.72887,-0.0339l-1.98027,-0.59408h-2.21764l-0.6479,-0.16197l-0.66769,-0.01421l-2.78534,-0.75964l-0.597,-0.1194c-2.52232,1.26028 -5.90932,0.16559 -7.77011,2.43655zM254.30702,163.39896l0.35855,-0.56343l0.08648,-0.24214l-0.02634,-0.04389l0.05031,-0.18447l-0.12052,-0.20086l-0.22953,-0.36069l-1.37607,-0.9829l-2.01579,-1.25987l-0.39615,-0.41083l-0.48938,-0.29363l-0.99149,-0.99149l-0.393,-0.262l-0.56946,-0.62641l-0.65703,-0.53384l-0.43934,-0.58579l-0.00364,-0.00102l-0.00707,-0.01325l-0.3549,-0.4732l-0.38447,-0.91312l-0.46624,-0.8742l-0.14346,-0.57383l-0.00583,-0.01384l0.0015,-0.00347l-0.12053,-0.48212v-0.35343l-0.16262,0.19514l-0.18664,0.13639l-0.11893,0.19822l-0.23121,0.23121l-0.17377,0.34754l-0.40058,0.46734l-0.27527,0.55055l-1.6099,1.87821l-0.15988,0.11346l-0.10087,0.16811l-0.53663,0.53663l-0.68921,0.41353l-0.61025,0.52307l-0.53663,0.26832l-0.27333,0.06074l-0.10028,0.06017l-0.03151,-0.00859l-0.24981,0.15897l-0.84015,0.28005l-0.42415,0.31812l-0.60813,0.25605l-0.53492,0.38633l-1.34158,0.53663l-0.63362,0.0864l-0.10155,0.07616l-0.91312,0.38447l-0.8742,0.46624l-0.54079,0.1352l-0.58235,0.29117l-0.35131,0.07807l-0.30362,0.19321l-1.27279,0.42426l-0.46364,0.23182l-0.02786,0.04876l-0.13932,0.03483l-0.12461,0.06231l-1.12151,0.24922l-1.11456,0.27864h-0.13932l-0.14019,0.03115l-0.04673,-0.03115h-0.04009v3.39131l0.45148,0.11287l0.08405,0.14709l0.18945,0.06766l0.7869,0.5246l0.37166,0.07433l0.15905,0.07534l0.17595,0.00374l2.30548,0.62877h2.28189l0.70787,0.17697l0.72887,0.0339l1.98027,0.59408h3.2909l0.70787,0.17697l0.72887,0.0339l1.98027,0.59408h3.2909l0.55368,0.13842l0.57062,-0.01037l0.80787,0.18643l2.27574,-3.98254l0.70152,-0.17538l0.6133,-0.71551l0.07653,-0.00425l0.31657,-0.21105l0.37502,-0.41253l0.84178,-0.98207l0.07653,-0.00425l0.33806,-0.22537l0.02271,-0.02271z" fill="#a36700" stroke-width="0.5"/><path d="M201.43947,133.44712c-2.02087,-4.58082 -2.8701,-9.41897 -2.76393,-14.45137c0.1257,-5.9582 8.88217,-9.21905 9,-14.83333c0.09316,-4.43884 -0.48555,-4.56297 -3.56644,-7.03091c-1.3178,-1.05562 -5.53091,-2.45744 -5.53091,-4.47285c0,-2.35702 0.73657,-3.09359 3.09359,-3.09359c0.72311,0 4.81026,3.11272 5.52683,3.68276c1.38423,1.10117 3.46057,2.30025 4.39038,3.86117c3.93676,6.60876 -1.01261,12.82489 -4.60306,17.83966c-1.01059,1.41149 -3.1306,2.62541 -3.3104,4.54709c-0.314,3.35592 0.75091,9.46149 2.66646,12.57609c1.08769,1.76853 3.51369,4.24123 3.51369,6.25057c0,0.52373 -0.12924,1.05277 -0.34726,1.55423c-0.02246,1.20381 -0.8958,2.19955 -2.04381,2.411c-1.39443,0.88333 -2.88111,0.69447 -2.88111,-1.84978c-0.04876,-0.19487 -0.07464,-0.3988 -0.07464,-0.60878c0,-0.12166 0.00869,-0.2413 0.02549,-0.35831c0.02093,-2.12386 -2.2291,-4.06112 -3.09489,-6.02365z" fill="#79c14d" stroke-width="0.5"/><path d="M225.3422,123.82909c-0.02225,-1.53509 -0.37748,-8.5319 1.3125,-10.75c3.43874,-4.51334 5.68017,-4.92155 5.85417,-11.1735c0.05133,-1.84423 0.02767,-3.69009 0,-5.53483c-0.01138,-0.75877 -2.33913,-1.84589 -2.59735,-2.87875c-0.38916,-1.55666 0.28967,-3.66291 2.43068,-3.66291c5.4289,0 5.18224,10.0106 5.18224,12.52691c0,2.03579 -0.21206,6.1964 -1.32808,8.05642c-1.51539,2.52564 -5.80092,4.21155 -5.85417,7.56479c-0.05426,3.41688 0.43072,4.70548 0.5,7.35188c0.11147,4.25785 3.08362,8.74532 2.7235,12.79672c-0.03597,0.40466 -0.2068,0.76634 -0.46531,1.07329c-0.4467,0.68057 -1.21663,1.12999 -2.09153,1.12999c-0.11996,0 -0.23795,-0.00845 -0.35341,-0.02479c-1.17232,0.03761 -2.22642,-0.5602 -2.11144,-2.05504c-0.02312,-0.13661 -0.03516,-0.27699 -0.03516,-0.42018c0,-0.06301 0.00233,-0.12548 0.00691,-0.18733c0.04264,-3.06262 -3.11206,-9.56891 -3.17358,-13.81267z" fill="#79c14d" stroke-width="0.5"/><path d="M262.17554,130.7077c0.84948,-1.474 1.68709,-6.12509 1.83333,-8.22875c0.16224,-2.33377 1.04721,-5.09389 -0.29189,-7.01212c-1.96399,-2.81339 -6.86652,-3.70909 -7.77751,-7.35304c-0.973,-3.89201 3.80904,-8.2964 5.8481,-11.2656c0.44974,-0.6549 1.3968,-2.7411 2.04134,-3.06337c2.10819,-1.05409 3.0964,-0.72469 4.15049,1.3835c0.77137,1.54274 -5.87203,9.9328 -7.13855,11.5679c-0.43216,0.55793 1.10666,0.88388 1.71546,1.24081c0.81206,0.4761 2.52538,1.78252 2.57232,1.81773c1.77879,1.33425 3.84623,3.64084 3.88024,6.03433c0.13292,9.35381 -0.67073,14.2793 -5.54131,21.50612c-0.69736,1.03472 -1.29061,2.25563 -2.19216,3.07916c-0.45849,0.55847 -1.15424,0.91473 -1.9332,0.91473c-1.38071,0 -2.5,-1.11929 -2.5,-2.5c0,-0.47998 0.13527,-0.92837 0.36976,-1.30913c1.03114,-2.4222 3.78208,-4.76216 4.96358,-6.81226z" fill="#79c14d" stroke-width="0.5"/><path d="M282.00887,141.5143c1.81303,-10.79532 -5.59671,-25.52305 6.91647,-31.72343c1.3706,-0.67914 2.59843,-3.05912 4.42062,-3.05912c2.35702,0 3.09359,0.73657 3.09359,3.09359c0,2.07086 -5.18926,4.15241 -6.63237,4.90764c-3.72465,1.94926 -3.75857,7.95559 -3.13164,11.28835c1.85247,9.84769 0.55149,19.7356 -4.28616,28.50462c-0.64143,1.16269 -1.44924,5.86623 -2.39263,6.40531c-0.43488,0.73685 -1.23698,1.23117 -2.15454,1.23117c-1.38071,0 -2.5,-1.11929 -2.5,-2.5c0,-0.51362 0.15489,-0.99106 0.4205,-1.38817c0.11347,-4.82702 5.45853,-12.07014 6.24617,-16.75996z" fill="#79c14d" stroke-width="0.5"/><text transform="translate(207.02637,199.34428) rotate(19.11248) scale(0.5,0.5)" font-size="40" xml:space="preserve" fill="#79c14d" fill-rule="nonzero" stroke="none" stroke-width="1" stroke-linecap="butt" stroke-linejoin="miter" stroke-miterlimit="10" stroke-dasharray="" stroke-dashoffset="0" font-family="Sans Serif" font-weight="normal" text-anchor="start" style="mix-blend-mode: normal"><tspan x="0" dy="0">kill me</tspan></text></g></g></svg>