<svg version="1.1" xmlns="http://www.w3.org/2000/svg" xmlns:xlink="http://www.w3.org/1999/xlink" width="207" height="292.27727" viewBox="0,0,207,292.27727"><g transform="translate(-136.5,-79)"><g data-paper-data="{&quot;isPaintingLayer&quot;:true}" fill-rule="nonzero" stroke-linecap="butt" stroke-linejoin="miter" stroke-miterlimit="10" stroke-dasharray="" stroke-dashoffset="0" style="mix-blend-mode: normal"><path d="M136.5,360.53838v-281.53838h207v281.53838z" fill="#484848" stroke="none" stroke-width="0"/><path d="M146,227.5v-29.5h186v29.5z" fill="#484848" stroke="#000000" stroke-width="1.825"/><path d="M163,196.5v-37.756h154.5v37.756z" fill="#484848" stroke="#000000" stroke-width="2.5"/><text transform="translate(187.46586,186.45806) scale(0.68418,0.68418)" font-size="40" xml:space="preserve" fill="#ffffff" fill-rule="nonzero" stroke="#000000" stroke-width="2" stroke-linecap="butt" stroke-linejoin="miter" stroke-miterlimit="10" stroke-dasharray="" stroke-dashoffset="0" font-family="Sans Serif" font-weight="normal" text-anchor="start" style="mix-blend-mode: normal"><tspan x="0" dy="0">BROOM</tspan></text><text transform="translate(148.5,219.28094) scale(0.30082,0.54947)" font-size="40" xml:space="preserve" fill="#ffffff" fill-rule="nonzero" stroke="none" stroke-width="1" stroke-linecap="butt" stroke-linejoin="miter" stroke-miterlimit="10" stroke-dasharray="" stroke-dashoffset="0" font-family="Sans Serif" font-weight="normal" text-anchor="start" style="mix-blend-mode: normal"><tspan x="0" dy="0">fill floppa food and clean POOP</tspan></text><path d="M151,305.5v-64h175.5v64z" fill="#29ff00" stroke="none" stroke-width="0"/><text transform="translate(157.5,289.10514) scale(2.26562,1.275)" font-size="40" xml:space="preserve" fill="#000000" fill-rule="nonzero" stroke="none" stroke-width="1" stroke-linecap="butt" stroke-linejoin="miter" stroke-miterlimit="10" stroke-dasharray="" stroke-dashoffset="0" font-family="Sans Serif" font-weight="normal" text-anchor="start" style="mix-blend-mode: normal"><tspan x="0" dy="0">buy</tspan></text><path d="M163.37085,358.028v-49.70539h150.62241v49.70539z" fill="#757575" stroke="#000000" stroke-width="0.5"/><text transform="translate(161.5728,354.91045) scale(1.63161,1.32505)" font-size="40" xml:space="preserve" fill="#29ff00" fill-rule="nonzero" stroke="#000000" stroke-width="1" stroke-linecap="butt" stroke-linejoin="miter" stroke-miterlimit="10" stroke-dasharray="" stroke-dashoffset="0" font-family="Sans Serif" font-weight="normal" text-anchor="start" style="mix-blend-mode: normal"><tspan x="0" dy="0">1000</tspan></text><path d="M164.16798,106.15271c0.09062,-0.05684 0.1932,-0.10553 0.30446,-0.14714c-0.3494,-0.66311 -1.33013,-1.56212 -0.85792,-2.22405c0.70069,-0.98223 3.34322,-1.03896 4.98664,-1.75983c0.40846,-0.17917 0.26637,-0.42305 0.64614,-0.60678c0.47843,-0.23146 1.33529,-0.39157 1.87505,-0.61295c0.97883,-0.40146 1.31797,-0.90367 2.35294,-1.2947c2.47667,-0.93574 5.81597,-1.73222 8.92149,-2.52853c0.90927,-0.23315 4.79535,-1.2401 5.30453,-1.30928c0.97274,-0.13217 2.16519,-0.06182 3.24777,-0.09273c3.72709,0.03101 8.92758,0.24757 11.87959,0.95302c1.12551,0.26897 2.57276,0.55288 2.80196,0.95431c0.17846,0.31255 -2.94336,1.71563 -3.65224,1.9645c-2.07724,0.72925 -5.25341,1.35461 -7.72796,1.98913c-6.35012,1.62828 -12.96421,3.0992 -19.30828,4.7227c-1.99181,0.41733 -4.15587,0.77506 -6.36618,1.10221l-3.21362,-0.29728c0,0 -2.09964,-0.24481 -1.19434,-0.8126zM169.01123,105.85396c0.97304,-0.2146 1.96102,-0.42428 2.95358,-0.63221c6.92992,-1.7808 14.17159,-3.40768 21.13009,-5.19196c2.6778,-0.68663 4.80946,-1.27318 6.9215,-2.07907c0.29928,-0.1142 1.0466,-0.16144 1.08237,-0.30108c0.02474,-0.09659 -0.64933,-0.08163 -0.97386,-0.12254c-0.64329,-0.08107 -1.27959,-0.16632 -1.92955,-0.24339c-2.49968,-0.2964 -4.44425,-0.45511 -7.16058,-0.47056c-2.79833,-0.01908 -5.2484,1.00061 -7.26134,1.51676c-2.32696,0.59667 -4.73039,1.21623 -6.6101,1.9085c-1.00311,0.36943 -1.28176,0.85479 -2.20906,1.23843c-0.47053,0.19467 -1.26879,0.32463 -1.68746,0.52777c-0.41888,0.20324 -0.30286,0.4711 -0.77287,0.66598c-0.95974,0.39794 -4.12495,0.77791 -4.37356,1.32197c-0.2573,0.56307 0.60214,1.301 0.8886,1.85645c0,0 0.00088,0.00171 0.00222,0.00495z" fill="#955228" stroke="none" stroke-width="0.5"/><path d="M168.98305,105.85919c-0.28646,-0.55545 -1.15469,-1.29551 -0.89739,-1.85859c0.24861,-0.54406 3.41169,-0.92476 4.37143,-1.3227c0.47001,-0.19489 0.35017,-0.46443 0.76905,-0.66766c0.41867,-0.20314 1.21451,-0.33462 1.68506,-0.52928c0.92729,-0.38364 1.20751,-0.87828 2.21063,-1.24771c1.87971,-0.69227 4.3341,-1.31876 6.66106,-1.91543c2.01292,-0.51615 4.47772,-1.53425 7.27605,-1.51517c2.71633,0.01545 4.67249,0.17695 7.17217,0.47335c0.64997,0.07707 1.28861,0.16318 1.9319,0.24426c0.32452,0.0409 0.9996,0.02636 0.97487,0.12296c-0.03576,0.13963 -0.78266,0.18707 -1.08195,0.30127c-2.11204,0.80589 -4.23894,1.39556 -6.91673,2.0822c-6.9585,1.78428 -14.26815,3.42484 -21.19808,5.20564c-0.99257,0.20794 -1.98278,0.41723 -2.95582,0.63183c-0.00134,-0.00325 -0.00224,-0.00496 -0.00224,-0.00496z" data-paper-data="{&quot;noHover&quot;:false,&quot;origItem&quot;:[&quot;Path&quot;,{&quot;applyMatrix&quot;:true,&quot;segments&quot;:[[[86.74678,219.58828],[0.01594,-0.02106],[2.73804,0.20484]],[[94.95122,220.32256],[-2.73198,-0.2733],[20.90488,-0.02256]],[[157.36882,221.64968],[-20.9696,0],[8.06958,0]],[[179.9199,219.86422],[-7.8354,1.55102],[1.1103,-0.21978]],[[183.3126,219.72612],[-0.83366,0.76554],[0.5767,-0.52956]],[[182.44904,217.5418],[0.2874,0.72828],[-0.56968,-1.44364]],[[180.74142,213.21034],[0.60256,1.43022],[-2.31736,-5.50034]],[[171.99712,199.67512],[4.22434,4.17776],[-4.33424,-4.32244]],[[152.03548,197.64968],[6.066,0],[-7.01234,0]],[[130.9276,198.90278],[6.83452,-1.2339],[-3.64726,0.65848]],[[120.53164,202.84592],[3.60602,-0.85592],[-1.82978,0.4343]],[[114.91744,203.40382],[1.79466,-0.56208],[-1.79548,0.56232]],[[109.9855,206.14886],[1.83016,-0.43638],[-3.73708,0.89104]],[[95.69004,207.32542],[3.42164,-2.8184],[-3.54124,2.91692]],[[86.77082,219.55588],[2.63594,-3.69032],[0,0]]],&quot;closed&quot;:true,&quot;fillColor&quot;:[0,0,0,1],&quot;strokeWidth&quot;:0.5}]}" fill="#ae602f" stroke="none" stroke-width="0.25"/><path d="M182.38019,108.59763c2.01255,0.49493 3.80402,1.14352 5.61205,1.65916c5.07311,1.44681 10.40235,2.84922 14.46043,4.49507c2.27511,0.92272 2.62309,2.02772 4.18564,3.02002c0.20219,0.0972 0.47024,0.18817 0.7089,0.28193c0.23977,-0.08066 0.49352,-0.15963 0.69527,-0.24552c0.66579,-0.28344 1.18727,-0.59336 1.9502,-0.85829c0.5669,-0.19685 1.41001,-0.32526 2.0064,-0.51563c1.65607,-0.52862 2.21141,-1.23676 3.84103,-1.78019c5.20169,-1.73463 11.55005,-3.68359 18.35906,-5.04842c1.39745,-0.28011 2.91811,-0.52103 4.18037,-0.84469c1.48443,-0.22657 2.6527,-0.58484 4.12333,-0.81789c0.86351,-0.13684 1.97137,-0.1322 2.83009,-0.27124c0.75372,-0.12203 1.17043,-0.36137 1.89841,-0.49435c0.79889,-0.14593 1.81239,-0.18882 2.62033,-0.33106c1.1433,-0.20128 2.28516,-0.83096 3.74002,-0.97328c-0.45027,-0.10958 -0.77843,-0.2607 -1.20739,-0.3785c-1.75853,-0.48291 -3.91985,-0.39531 -6.41292,-0.4133c-5.22853,-0.03773 -10.45685,-0.31316 -15.27237,-0.91947c-2.83836,-0.35737 -4.47035,-0.88965 -7.19775,-1.28326c-3.61961,-1.01077 -7.18175,-2.03658 -10.76183,-3.0576c-2.38378,-0.67984 -5.53219,-1.45778 -6.50438,-2.39907c-0.11985,-0.11604 0.46546,-0.23744 0.31755,-0.35108c-0.09514,-0.0731 -0.34641,0.12372 -0.53866,0.18119c-0.40492,0.12104 -0.82161,0.23932 -1.25143,0.35391c-1.16393,0.31031 -2.5328,0.56737 -3.5699,0.909c-1.06344,0.3503 -1.62809,0.79862 -2.70053,1.14691c-2.21465,0.71925 -5.19673,1.33892 -7.71259,1.98403c-4.75242,1.2186 -9.5856,2.85524 -15.19245,3.76315c-1.07056,0.17335 -2.34745,0.24265 -3.39803,0.42471c-1.43517,0.24871 -2.61063,0.60678 -4.08476,0.83459c0.07038,0.00761 0.12798,0.01329 0.17014,0.01625c0.7298,0.05123 1.51914,0.08841 2.33281,0.12229c0.58837,-0.03594 1.13359,0.01149 1.50068,0.06046c1.87191,0.0763 3.75893,0.169 5.25761,0.40135c1.05671,0.16382 1.86421,0.42408 2.7963,0.63611l1.75857,0.50042c0,0 0.26231,0.07481 0.45976,0.1923zM170.45723,108.08291c-1.90066,-0.09025 -3.85467,-0.16599 -5.73706,-0.39688c-1.50944,-0.18514 -3.97451,-0.20127 -4.38141,-0.63576c-0.98393,-1.05064 5.311,-1.32377 7.21335,-1.71421c2.5284,-0.51893 5.38154,-0.86137 7.77692,-1.4314c4.23162,-1.007 8.21266,-2.10692 12.30401,-3.15602c2.37944,-0.61013 5.23431,-1.19411 7.33072,-1.87334c2.32538,-0.75342 3.90629,-1.48367 6.6523,-2.1666c2.0317,-0.50529 3.81794,-1.12214 7.3868,-0.68189c1.14656,0.14144 0.93898,0.63306 1.48451,0.94027c0.64011,0.36047 1.30802,0.72203 2.18424,1.04414c3.81104,1.401 9.23429,2.60235 13.60122,3.88384c1.54767,0.22336 2.82974,0.56097 4.22974,0.84683c2.9327,0.59884 7.24932,0.77564 10.70986,1.02507c3.58958,0.25873 7.97619,-0.13688 11.44636,0.21864c1.71405,0.17561 7.42174,1.67826 7.10772,2.19176c-0.24346,0.3981 -2.42705,0.47059 -3.5796,0.72687c-4.8642,1.08158 -9.64002,2.0196 -15.08985,2.85141c-1.26226,0.32367 -2.77548,0.56731 -4.18037,0.84469c-3.26573,0.6448 -6.13809,1.58029 -9.07695,2.33387c-1.6729,0.42896 -4.14587,0.88391 -5.48106,1.39177c-2.37733,0.90426 -4.19828,2.0288 -6.83118,2.89505c-0.57564,0.18939 -1.4165,0.31247 -1.97566,0.50544c-1.59424,0.55019 -3.74825,2.26021 -7.44413,2.10138c-0.53917,-0.02317 -3.02166,-1.247 -3.5732,-1.51036c-1.43224,-0.92094 -1.73343,-2.02891 -3.86137,-2.86947c-4.00128,-1.58056 -9.0789,-2.93709 -13.99927,-4.34034c-1.96011,-0.55901 -3.93129,-1.33483 -6.22937,-1.78818c-0.77886,-0.15364 -1.78656,-0.2096 -2.55159,-0.36824c-0.6174,-0.12803 -0.83848,-0.37931 -1.52666,-0.47746c-0.66232,-0.09447 -1.55315,0.02409 -2.23573,-0.05917c-0.63209,-0.0771 -1.15236,-0.20455 -1.67326,-0.33171z" fill="#a16d3d" stroke="none" stroke-width="0.5"/><path d="M181.87613,108.40839l-1.75927,-0.50128c-0.9321,-0.21204 -1.74013,-0.47331 -2.79684,-0.63713c-1.49869,-0.23235 -3.38587,-0.32568 -5.25777,-0.40198c-0.36709,-0.04896 -0.91233,-0.09649 -1.50069,-0.06055c-0.81367,-0.03388 -1.60303,-0.07122 -2.33283,-0.12244c-0.04216,-0.00296 -0.09977,-0.00866 -0.17014,-0.01627c1.47413,-0.22781 2.64963,-0.58683 4.08481,-0.83554c1.05059,-0.18206 2.32766,-0.25196 3.39822,-0.42532c5.60685,-0.90792 10.451,-2.55139 15.20341,-3.77c2.51586,-0.64511 5.51193,-1.26772 7.72659,-1.98697c1.07244,-0.34829 1.64303,-0.79728 2.70647,-1.14758c1.03709,-0.34162 2.41193,-0.59912 3.57587,-0.90943c0.42982,-0.11459 0.84844,-0.23296 1.25336,-0.354c0.19225,-0.05747 0.44435,-0.25432 0.53949,-0.18123c0.14791,0.11364 -0.43805,0.23507 -0.31821,0.35111c0.97219,0.94128 4.13036,1.71914 6.51414,2.39897c3.58007,1.02101 7.17065,2.05025 10.79027,3.06102c2.7274,0.39361 4.36987,0.93003 7.20822,1.2874c4.81551,0.60631 10.04694,0.88482 15.27548,0.92254c2.49307,0.01799 4.65467,-0.06891 6.41321,0.41401c0.42897,0.1178 0.75722,0.26935 1.20749,0.37893c-1.45484,0.14231 -2.59671,0.77309 -3.74001,0.97437c-0.80794,0.14224 -1.82153,0.18559 -2.62043,0.33151c-0.72798,0.13297 -1.14497,0.37301 -1.8987,0.49505c-0.85872,0.13903 -1.96689,0.13492 -2.8304,0.27176c-1.47064,0.23305 -2.64034,0.59288 -4.12477,0.81944c-1.26226,0.32367 -2.78576,0.56645 -4.18322,0.84656c-6.80901,1.36483 -13.19091,3.32037 -18.3926,5.055c-1.62961,0.54343 -2.19089,1.25172 -3.84696,1.78034c-0.59639,0.19037 -1.44192,0.31878 -2.00881,0.51563c-0.76294,0.26493 -1.28642,0.57482 -1.95221,0.85826c-0.20176,0.08589 -0.45618,0.16485 -0.69595,0.24551c-0.23867,-0.09375 -0.50756,-0.18475 -0.70976,-0.28195c-1.56255,-0.99229 -1.918,-2.09767 -4.1931,-3.0204c-4.05808,-1.64585 -9.41399,-3.05365 -14.48709,-4.50046c-1.80804,-0.51564 -3.60463,-1.16736 -5.61719,-1.66229c-0.19745,-0.11749 -0.46008,-0.19262 -0.46008,-0.19262z" data-paper-data="{&quot;noHover&quot;:false,&quot;origItem&quot;:[&quot;Path&quot;,{&quot;applyMatrix&quot;:true,&quot;segments&quot;:[[[46.34754,127.90159],[0.1702,-0.49325],[0.21986,2.96618]],[[46.18441,136.99151],[0,-2.87307],[0,8.06146]],[[45.15213,161.05863],[1.35904,-7.8818],[-0.76192,4.41881]],[[40.07136,173.06812],[1.52082,-4.08687],[-0.10998,0.43729]],[[39.84949,174.42859],[0.07146,-0.45461],[0.41462,-0.05626]],[[41.08418,174.2313],[-0.39901,0.10021],[1.31677,-0.3307]],[[45.01924,173.1803],[-1.34236,0.20332],[0.99742,-0.15107]],[[48.04562,173.17691],[-1.00279,0.10986],[2.78455,-0.30506]],[[56.04562,170.84358],[-2.80478,0.36842],[8.95279,-1.17599]],[[84.65653,169.84358],[-9.19927,-1.11818],[1.88802,0.22949]],[[90.3232,170.51024],[-1.90192,0],[1.80807,0.45202]],[[95.87005,171.21264],[-1.81517,-0.42262],[1.06581,0.24815]],[[98.87005,172.54597],[-1.0681,-0.23811],[0.93751,0.209]],[[101.75153,172.52379],[-0.94752,-0.15753],[1.03982,0.17287]],[[104.75153,173.52379],[-1.03673,-0.19051],[1.46705,0.26959]],[[110.42654,173.48193],[-1.5502,-0.67696],[-0.0524,-0.66024]],[[110.52157,171.4631],[0.01263,0.66833],[-0.05176,-2.73982]],[[106.58331,165.42594],[1.92798,1.92836],[-4.0434,-4.04419]],[[97.02406,151.23864],[2.13391,5.40166],[-1.25777,-3.18385]],[[94.88336,142.05863],[1.0689,3.2067],[-0.05987,-5.68864]],[[94.85107,124.99151],[0,5.68894],[0,-3.78796]],[[96.36466,113.05942],[-1.84731,3.49307],[0.22773,-0.43061]],[[97.59333,112.26827],[-0.19881,0.4447],[0.12788,-0.28605]],[[96.66187,112.39463],[0.31241,-0.02398],[-0.65801,0.0505]],[[94.68441,112.49151],[0.65982,-0.01284],[-1.78674,0.03478]],[[89.3232,112.47278],[1.77323,-0.22208],[-1.81829,0.22773]],[[83.98987,113.80611],[1.81983,-0.21506],[-3.75806,0.44411]],[[72.35107,113.82484],[3.7908,0],[-7.16075,0]],[[49.82819,113.43622],[6.97434,1.55434],[-1.33166,-0.29678]],[[45.95062,112.1259],[1.34005,0.25621],[-1.83059,-0.34999]],[[40.38792,111.50151],[1.80336,0.44062],[0.03467,0.07526]],[[40.4777,111.67718],[-0.02522,-0.0404],[0.43652,0.69934]],[[41.98836,113.79098],[-0.55131,-0.71154],[0.5668,0.33719]],[[43.01082,115.09734],[-0.15503,-0.41983],[1.27293,1.63212]],[[46.06569,120.23028],[-0.54268,-1.80918],[0.38264,1.27563]],[[46.51464,124.20031],[-0.14965,-1.32334],[0,0]],[46.51774,126.99151]],&quot;closed&quot;:true}]}" fill="#de9754" stroke="none" stroke-width="0.5"/><text transform="translate(198.7484,111.70874) rotate(-18.21687) scale(0.21292,0.1289) skewX(45.50488)" font-size="40" xml:space="preserve" fill="#ffffff" fill-rule="nonzero" stroke="#000000" stroke-width="1" stroke-linecap="butt" stroke-linejoin="miter" stroke-miterlimit="10" stroke-dasharray="" stroke-dashoffset="0" font-family="Sans Serif" font-weight="normal" text-anchor="start" style="mix-blend-mode: normal"><tspan x="0" dy="0">floppa</tspan></text><path d="M191.00306,135.09593c-0.04475,0.7465 0.54773,1.48926 0.07308,2.2597c-1.06842,1.73425 -4.88934,3.63121 -9.41712,5.01157c0.11583,-0.53872 0.47998,-0.97796 1.30669,-1.25317c2.41294,-0.80326 2.56148,-1.54394 1.67375,-2.26641c0.91872,-0.56695 1.59448,-1.14155 1.923,-1.69048c0.48208,-0.80551 -0.13346,-1.56653 -0.04125,-2.35752l-0.00002,0c-0.60506,-0.09546 -1.38571,-0.2978 -1.01144,-0.68229c0.58204,-0.59795 2.7932,-0.44056 2.7932,-0.44056l2.47339,0.17988c4.34218,0.05279 7.44029,0.55002 10.87224,1.23565c0.84054,0.06853 1.75336,0.09069 2.52161,0.20558c0.61666,0.09222 0.85664,0.33141 1.51646,0.39831c0.75394,0.07644 1.64032,-0.05846 2.41559,0.00036c2.39999,0.18208 4.43389,0.64501 6.84916,0.81165c1.54586,0.10666 3.18958,0.02403 4.78376,0.04072c3.45256,0.03617 6.90512,0.07233 10.35767,0.1085c2.09887,0.02199 5.33567,0.20902 7.39326,0.094c0.8297,-0.04638 1.47896,-0.23636 2.30071,-0.29214c2.12183,-0.14403 4.37319,-0.05666 6.54742,-0.12212c3.79213,-0.11416 7.44788,-0.41366 11.25509,-0.37378c2.92463,-0.23002 5.1465,-0.07666 8.04327,-0.16661c3.02427,-0.09392 5.85111,-0.29026 8.81799,-0.3993c2.38125,-0.08752 5.18971,0.04477 7.53043,-0.08064c0.98178,-0.0526 1.80268,-0.25474 2.78894,-0.3008c0.75845,-0.03543 5.54939,0.06842 6.34341,0.05598c4.17718,-0.06547 10.08866,-0.56967 13.95397,0.07522c1.20786,0.20152 1.62671,0.62935 2.38593,0.95361c2.08472,0.89037 4.78172,1.76362 5.66259,2.76862c2.79363,2.2848 2.50905,4.50541 2.16755,6.88954c-0.08667,0.60505 0.39866,1.99253 -0.5382,2.54129c-0.50198,0.29404 -1.76599,0.44044 -2.53005,0.68983c-2.00142,0.65326 -3.87981,1.29941 -7.20592,1.5463c-0.94635,0.07025 -1.963,-0.0157 -2.94392,-0.00781c-3.52012,0.02833 -6.96914,0.01045 -10.49595,-0.02649c-5.78811,-0.06063 -11.57622,-0.12126 -17.36433,-0.18189c-2.53068,-0.02651 -5.50773,0.04903 -7.98077,-0.09159c-1.59744,-0.09083 -3.14709,-0.2752 -4.77859,-0.28958c-1.90065,-0.01675 -7.02349,0.10177 -9.14515,-0.40013c-1.50407,0.22277 -2.99222,0.45661 -4.64405,0.56592c-3.31254,0.21922 -8.45439,-0.06878 -11.84753,-0.10432c-6.22151,-0.06517 -13.054,0.07308 -19.16601,-0.2054c-1.65988,-0.07563 -5.52707,-0.40603 -7.05881,-0.71356c-0.60023,-0.12051 -1.38254,-0.23124 -2.03026,-0.36165c-0.65604,0.057 -1.30337,0.10023 -1.93408,0.12671c-7.979,0.3349 -16.24792,-0.53401 -23.68766,-1.20549c0.22333,-0.39914 0.30269,-0.83092 0.29962,-1.27681c7.13306,0.60993 14.90384,1.54734 22.64264,1.2622c1.30608,-0.04812 2.76755,-0.2088 4.22278,-0.425c1.10478,-0.22305 2.34167,-0.42258 3.31231,-0.57924c0.69502,-0.13829 1.35491,-0.27954 1.95746,-0.41592c0.33833,-0.12323 0.66425,-0.24809 1.18494,-0.27938c0.03215,-0.00791 0.06401,-0.01578 0.09557,-0.02361c0.4583,-0.11469 2.43756,-0.61001 2.43756,-0.61001c0.42948,-0.10748 1.01058,-0.17065 1.64151,-0.16404c1.26185,0.01322 2.24516,0.30056 2.19628,0.64179c-0.02444,0.17062 -0.3023,0.3224 -0.73177,0.42988l-2.5315,0.63352c-0.52366,0.21424 -1.30174,0.36019 -2.14834,0.48807c-1.08408,0.2318 -2.27224,0.46408 -3.50852,0.67579c-0.09826,0.03222 -0.20294,0.06435 -0.31268,0.09438c0.50828,0.07547 0.98752,0.17466 1.52723,0.23025c1.02603,0.10568 2.07554,0.20472 3.15974,0.25154c2.61751,0.11303 5.29802,0.05086 7.94671,0.07861c4.77265,0.04999 9.5453,0.09999 14.31796,0.14998c1.97933,0.02073 5.14937,0.22866 7.03999,0.09353c1.89544,-0.13548 3.49436,-0.48196 5.28232,-0.69946c1.91001,-0.34705 3.5909,-0.78896 5.60617,-1.08934c0.70477,-0.10505 1.57546,-0.12203 2.32457,-0.19854c0.36072,-0.09382 0.82196,-0.21347 1.26793,-0.3213c0.17416,-0.11378 0.28425,-0.24159 0.48246,-0.3501l0.35219,-0.04291l-0.10343,-0.03022l2.21506,-0.55433l0.79046,0.23099l2.17027,-0.26441c-0.1376,0.21465 -0.2011,0.4352 -0.2837,0.65423l0.87995,0.13073l-1.31295,0.64628l-0.09923,-0.01474c-0.05098,0.04021 -0.10696,0.08003 -0.16864,0.11939c-0.81159,0.51789 -4.80075,0.96878 -6.38472,1.27825c-0.20092,0.03925 -0.55445,0.15901 -0.994,0.28106c0.05836,0.00108 0.11659,0.0019 0.17466,0.0024c3.11866,0.02657 5.28563,0.16228 8.25001,0.34192c2.20699,0.13374 4.98418,0.04422 7.2511,0.06797c5.78811,0.06063 11.57622,0.12126 17.36433,0.18189c3.4403,0.03604 6.81411,0.03336 10.24298,0.02574c0.64561,-0.00143 1.30604,0.08782 1.93028,0.04325c2.34226,-0.16724 3.37535,-0.70443 4.7715,-1.13339c0.53987,-0.16587 1.52001,-0.22322 1.90008,-0.41883c0.29099,-0.14977 -0.10055,-0.33762 -0.10158,-0.50681c-0.00322,-0.52214 0.14947,-1.04349 0.22421,-1.56524c0.32436,-2.26442 0.64789,-4.35395 -2.01355,-6.51998c-0.54551,-0.87349 -3.55926,-1.64883 -5.18201,-2.46026c-0.37263,-0.18633 -0.40428,-0.45055 -1.05731,-0.56754c-1.55753,-0.27903 -3.70959,0.00822 -5.23751,0.03851c-1.94437,0.03855 -3.8893,0.07574 -5.83598,0.10456c-1.94645,0.02882 -3.92799,-0.17149 -5.84208,-0.07166c-0.98275,0.05125 -1.80598,0.24984 -2.78894,0.3008c-2.43625,0.12631 -5.29024,-0.00223 -7.74864,0.08933c-0.95506,0.03557 -1.82189,0.18323 -2.77714,0.21842c-4.64197,0.17103 -9.5734,-0.00727 -14.08412,0.3475c-3.8564,-0.0404 -7.58631,0.26439 -11.42968,0.37865c-1.88628,0.05608 -3.85157,-0.05232 -5.68527,0.07976c-0.93808,0.06757 -1.71343,0.26791 -2.66789,0.31585c-2.46556,0.12382 -5.92406,-0.0455 -8.44787,-0.07194c-4.96486,-0.05201 -11.12165,0.14688 -15.93158,-0.17627c-2.45255,-0.16477 -4.51713,-0.6348 -6.95175,-0.81799c-0.98753,-0.07431 -2.10921,0.04104 -3.06788,-0.05708c-0.82638,-0.08458 -1.24565,-0.34929 -2.02118,-0.46379c-0.70055,-0.10343 -1.53692,-0.11667 -2.30538,-0.175c-2.90524,-0.5591 -5.21658,-1.01265 -8.63501,-1.10707z" fill="#c9ad79" stroke="none" stroke-width="0.5"/><path d="M199.59822,136.19693c0.76846,0.05833 1.68423,0.08384 2.38478,0.18728c0.77553,0.1145 1.11544,0.36692 1.94182,0.4515c0.95868,0.09812 2.08119,-0.01761 3.06871,0.0567c2.43462,0.18319 4.50007,0.65285 6.95262,0.81762c4.80993,0.32315 10.98267,0.12028 15.94754,0.17229c2.52381,0.02644 6.00378,0.19422 8.46933,0.07039c0.95447,-0.04793 1.73715,-0.24815 2.67523,-0.31572c1.83371,-0.13208 3.81219,-0.02259 5.69846,-0.07867c3.84337,-0.11426 7.58686,-0.41635 11.44326,-0.37596c4.51072,-0.35477 9.44827,-0.17423 14.09024,-0.34527c0.95524,-0.03519 1.82246,-0.18267 2.77751,-0.21824c2.4584,-0.09156 5.31388,0.03777 7.75014,-0.08854c0.98296,-0.05096 1.80626,-0.24952 2.789,-0.30077c1.9141,-0.09982 3.8965,0.10102 5.84295,0.0722c1.94668,-0.02882 3.8921,-0.06567 5.83647,-0.10422c1.52792,-0.0303 3.68038,-0.31724 5.2379,-0.03822c0.65303,0.11699 0.68517,0.38161 1.0578,0.56794c1.62274,0.81143 4.63798,1.58851 5.18349,2.462c2.66144,2.16604 2.33769,4.25969 2.01333,6.52411c-0.07474,0.52175 -0.22819,1.04403 -0.22498,1.56617c0.00105,0.16918 0.39229,0.35732 0.1013,0.50709c-0.38006,0.19561 -1.36058,0.25329 -1.90045,0.41915c-1.39616,0.42895 -2.43045,0.96705 -4.77271,1.13429c-0.62424,0.04457 -1.28482,-0.04459 -1.93043,-0.04316c-3.42887,0.00762 -6.80392,0.01103 -10.24422,-0.02501c-5.78811,-0.06063 -11.58004,-0.11954 -17.36815,-0.18017c-2.26691,-0.02375 -5.04712,0.06679 -7.25411,-0.06695c-2.96438,-0.17964 -5.1361,-0.31411 -8.25475,-0.34068c-0.05807,-0.00049 -0.17492,-0.0203 -0.23328,-0.02138c0.43956,-0.12206 0.7915,-0.24144 0.99243,-0.28069c1.58397,-0.30947 5.56595,-0.75811 6.37754,-1.276c0.06168,-0.03936 0.11731,-0.07903 0.16829,-0.11925l0.09923,0.01474l1.31103,-0.64541l-0.87996,-0.13073c0.0826,-0.21903 0.14463,-0.43877 0.28223,-0.65342l-2.08798,0.27517l-0.79017,-0.23114l-2.21738,0.55543l0.1034,0.03024l-0.35248,0.04303c-0.19821,0.10851 -0.30955,0.23681 -0.48371,0.35059c-0.44596,0.10783 -0.90894,0.22808 -1.26966,0.3219c-0.74912,0.07651 -1.62218,0.09421 -2.32695,0.19925c-2.01527,0.30038 -3.70557,0.7443 -5.61558,1.09135c-1.78797,0.2175 -3.39623,0.56512 -5.29168,0.7006c-1.89062,0.13513 -5.07278,-0.07221 -7.05212,-0.09294c-4.77265,-0.04999 -9.56929,-0.10151 -14.34194,-0.1515c-2.64869,-0.02775 -5.33756,0.03282 -7.95507,-0.08021c-1.0842,-0.04682 -2.13663,-0.14663 -3.16266,-0.25231c-0.5397,-0.05559 -1.02044,-0.15523 -1.52872,-0.2307c0.10974,-0.03003 0.28414,-0.07816 0.3824,-0.11038c1.23628,-0.2117 2.42407,-0.4441 3.50815,-0.6759c0.84659,-0.12789 1.5557,-0.25759 2.07935,-0.47183l2.53137,-0.63356c0.42948,-0.10748 0.70635,-0.25959 0.73079,-0.4302c0.04888,-0.34123 -0.93827,-0.63007 -2.20013,-0.64329c-0.63093,-0.00661 -1.13286,0.04418 -1.56234,0.15166c0,0 -1.97991,0.49502 -2.43821,0.60971c-0.03156,0.00783 -0.06344,0.01569 -0.09559,0.0236c-0.52069,0.03129 -0.84684,0.15605 -1.18516,0.27928c-0.60255,0.13638 -1.26265,0.27754 -1.95768,0.41583c-0.97064,0.15666 -2.28475,0.36944 -3.38953,0.5925c-1.45522,0.2162 -2.91727,0.37663 -4.22335,0.42475c-7.72283,0.28455 -15.48223,-0.65138 -22.60343,-1.26154c-0.00686,-1.38858 -0.81683,-2.91497 -0.56956,-4.01862c4.5071,-1.38019 8.30649,-3.27338 9.37108,-5.0014c0.47464,-0.77044 -0.11509,-1.51482 -0.07034,-2.26132c3.41842,0.09442 5.73004,0.54783 8.63528,1.10694z" data-paper-data="{&quot;noHover&quot;:false,&quot;origItem&quot;:[&quot;Path&quot;,{&quot;applyMatrix&quot;:true,&quot;segments&quot;:[[[171.06552,222.5038],[3.7496,0.23681],[0.06794,3.01789]],[[171.49901,231.6303],[0.398,-3.13281],[-1.05292,8.28788]],[[159.43986,255.10484],[5.83466,-5.82979],[-2.58087,2.57872]],[[150.85287,260.3235],[2.81824,-2.00101],[-0.84247,0.59817]],[[148.83106,262.67303],[0.82171,-0.62637],[-1.31015,0.9987]],[[144.52364,265.10055],[1.39392,-0.87512],[0.95367,-0.01044]],[[147.35941,265.25103],[-0.92034,-0.22425],[1.04911,0.25563]],[[150.27269,266.66759],[-1.00307,-0.39978],[4.038,1.60936]],[[162.72168,268.25933],[-4.21912,-1.12889],[8.02939,2.14839]],[[188.18174,272.54257],[-8.59712,1.51238],[1.41944,-0.2497]],[[192.72886,270.64677],[-1.55608,0.93509],[1.17213,-0.94793]],[[196.2571,268.16634],[-1.03596,0.67403],[0.73771,-0.58813]],[[198.33065,266.4031],[-0.63698,0.57651],[0.35036,-0.51221]],[[199.58154,265.22421],[-0.56399,0.14846],[0.03389,-0.03332]],[[199.68226,265.12479],[-0.03326,0.03296],[0.48277,-0.48277]],[[202.24997,262.55708],[0,0],[0.45241,-0.45241]],[[204.01774,261.82484],[-0.69036,0],[1.38071,0]],[[206.51774,264.32484],[0,-1.38071],[0,0.69036]],[[205.78551,266.09261],[0.45241,-0.45241],[0,0]],[[203.11884,268.75928],[0,0],[-0.5386,0.88774]],[[200.84804,270.8221],[0.90494,-0.55251],[-1.14814,0.9824]],[[197.12054,273.70088],[1.31758,-0.90764],[-0.10231,0.13435]],[[196.79369,274.09541],[0.1152,-0.12596],[0.56714,0.28341]],[[198.4983,274.96104],[-0.59835,-0.20175],[1.13754,0.38355]],[[201.98987,275.84358],[-1.19188,-0.14327],[2.87747,0.34589]],[[210.68441,275.82484],[-2.89819,0],[5.22222,0]],[[226.35107,275.82484],[-5.22222,0],[2.16578,0]],[[234.0573,275.90477],[-2.04446,0.62598],[2.04968,-0.62757]],[[239.71908,272.85528],[-1.91942,0.95439],[2.03248,-1.48297]],[[245.67366,268.2169],[-2.15479,1.29887],[0.75356,-0.45423]],[[248.18232,267.31639],[-0.80648,0.34081],[0.37942,-0.39433]],[[249.51732,265.96461],[-0.47036,0.45452],[0.17247,-0.46705]],[[249.98964,264.52974],[-0.19957,0.4468],[0,0]],[250.36771,264.34148],[250.24997,264.22374],[252.58331,261.89041],[253.48308,262.79018],[[255.81285,261.63007],[0,0],[-0.11674,0.87305]],[[255.60528,264.28528],[0.05597,-0.88841],[0,0]],[256.58714,264.77621],[255.25381,267.44288],[[255.14309,267.38752],[0,0],[-0.0494,0.16463]],[[254.97752,267.87702],[0.06123,-0.16164],[-0.80566,2.1267]],[[248.20189,273.31161],[1.68215,-1.31737],[-0.21337,0.1671]],[[247.15987,274.48922],[0.46114,-0.51173],[0.06393,0.00188]],[[247.35107,274.49151],[-0.06352,0.00046],[3.41147,-0.02464]],[[256.4182,275.52379],[-3.26687,-0.60032],[2.43219,0.44694]],[[264.35107,275.49151],[-2.48045,0],[6.33333,0]],[[283.35107,275.49151],[-6.33333,0],[3.76437,0]],[[294.54616,275.162],[-3.74505,0.1759],[0.70514,-0.03312]],[[296.66187,275.25506],[-0.67504,0.20649],[2.53288,-0.77481]],[[301.69764,270.47403],[-1.45825,1.79214],[0.56388,-0.69299]],[[303.70804,268.70147],[-0.38463,0.80638],[0.29449,-0.61741]],[[303.51774,266.65818],[0.02762,0.68349],[-0.08523,-2.10939]],[[303.51774,260.32484],[0,2.11111],[0,-9.16242]],[[300.29746,234.06812],[3.24676,8.63855],[-0.7327,-3.50598]],[[294.25079,224.34753],[1.89993,3.20966],[-0.43628,-0.73703]],[[293.00679,222.09933],[0.73178,0.44502],[-1.74536,-1.0614]],[[287.29053,222.47658],[1.6646,-0.18707],[-2.1183,0.23805]],[[280.93075,223.14601],[2.12235,-0.19882],[-2.1221,0.1988]],[[274.53672,223.10372],[2.07564,-0.4843],[-1.06569,0.24866]],[[271.53672,224.43705],[1.06596,-0.2475],[-2.64198,0.61342]],[[263.08486,225.1259],[2.67162,-0.47396],[-1.03789,0.18413]],[[260.08486,226.1259],[1.03815,-0.18262],[-5.04486,0.88746]],[[244.75153,228.1259],[4.8727,-1.62423],[-4.21966,0]],[[232.3232,230.13945],[4.18122,-0.62429],[-2.05209,0.3064]],[[226.12418,230.7023],[1.98276,-0.61123],[-1.01433,0.31269]],[[223.25879,232.0913],[1.03531,-0.23406],[-2.67439,0.60461]],[[214.01774,232.15818],[2.76155,0],[-5.43254,0]],[[196.58398,232.12026],[5.3057,1.10204],[-2.70534,-0.56192]],[[188.86078,229.10963],[2.68863,0.6371],[-1.09056,-0.25842]],[[185.50001,229.00886],[1.06277,0.35586],[-0.91611,-0.30675]],[[183.21917,227.22059],[0.86523,0.42979],[-0.78158,-0.38824]],[[180.67302,226.61113],[0.84872,0.20315],[-3.26164,-2.13593]]],&quot;closed&quot;:true}]}" fill="#c9ad79" stroke="none" stroke-width="0.5"/><path d="M188.05295,135.46482c-0.01343,1.19059 0.27912,2.48951 -0.59136,3.60905c-0.19838,0.25513 -0.8093,0.47746 -1.02012,0.73185c-1.1127,1.34276 0.48669,2.85226 -0.60182,4.20142c-0.69357,0.85965 -4.34033,1.98695 -1.76488,2.82121c1.38316,0.08767 2.64772,0.28766 4.03348,0.37229c2.42075,0.14783 5.22367,0.09158 7.64368,0.24779c1.55695,0.1005 3.08604,0.26961 4.68585,0.28396c1.55586,0.01395 3.07807,0.12936 4.60076,0.2169c0.04522,0.0026 0.09627,0.00533 0.15001,0.00767c-0.15362,-0.54328 0.405,-1.11914 0.50217,-1.75256c0.0681,-0.47542 0.1362,-0.95083 0.2043,-1.42625l0.24321,-0.13098c0.54163,-0.07148 1.40009,0.03631 2.05927,0.03135l2.26708,0.1475c-0.08971,0.62632 -0.09709,1.261 -0.18938,1.89172c-0.04472,0.08672 -0.08858,0.16596 -0.12893,0.23507c-0.23568,0.40381 -1.21214,0.86583 -0.07887,1.21685c-0.01774,0.16282 -0.11935,0.31622 -0.48619,0.4376c-0.89923,0.29754 -1.63444,0.45979 -2.31099,0.53813c-1.44114,-0.3847 -1.9654,-0.77723 -2.08167,-1.18843c0.24001,0.01043 0.53344,0.01291 0.59861,-0.04007c0.42025,-0.34174 -0.2387,-0.71936 -0.18715,-1.07922c0.03024,-0.21109 0.06047,-0.42218 0.09071,-0.63327c0.00132,-0.00858 0.00255,-0.01717 0.00369,-0.02578c0.06574,-0.49434 -0.97577,-1.10676 0.21241,-1.48286c0.06782,-0.02147 0.14564,-0.03728 0.23141,-0.0486l2.23628,-1.20437c0.70062,0.43361 1.65482,0.84334 2.10187,1.30084c0.44466,0.45504 0.10191,1.38641 -0.20118,1.9741c-0.04455,0.30446 -0.10889,0.60799 -0.21183,0.90923c-0.05883,0.17215 0.0236,0.36315 0.00403,0.5427c0.13632,0.04222 0.30315,0.08284 0.50546,0.12155c1.25404,0.23997 2.41806,0.53035 3.83354,0.69181c0.62167,0.07092 1.34911,-0.01282 2.02377,-0.01055c2.53691,0.00852 5.08062,0.05322 7.61593,0.07978c6.09275,0.06382 12.18549,0.12764 18.27824,0.19146c2.98532,0.03769 6.09892,-0.054 8.90022,-0.26926c0.19365,-0.01488 0.44356,0.00067 0.67001,0.00798c0.14023,-0.26106 0.39073,-0.54123 0.65232,-0.81409c-0.065,-0.11686 -0.1193,-0.23323 -0.10353,-0.34497c0.10079,-0.71398 0.20454,-1.42794 0.30681,-2.1419l2.05861,-1.24733c1.13466,0.39805 2.62924,0.73731 3.404,1.19414c0.39562,0.23328 -0.04242,0.51317 -0.07353,0.76967c-0.08616,0.71053 -0.06359,0.92905 -0.5671,1.65322c-0.13158,0.18923 -0.41623,0.37315 -0.68495,0.55682c-0.12997,0.27161 -0.11863,0.56541 -0.40221,0.82394c0.45798,0.08059 1.61669,-0.01853 2.28977,-0.0159c1.72739,0.00673 3.45256,0.03617 5.17884,0.05425c8.99023,0.09417 17.98095,0.18541 26.97058,0.28371c4.90687,-0.11391 9.37531,-0.22776 13.95425,-0.70868c1.58609,-0.16659 3.45641,-0.10853 4.96372,-0.32201c2.39584,-0.33931 2.01531,-1.56403 1.97118,-2.13718c-0.15423,-2.00301 -0.00483,-4.04772 0.64561,-6.04894c-1.87423,-0.82467 -2.77093,-1.72064 -4.0827,-2.59408c-0.38588,-0.25694 -2.36277,-0.82229 -2.7636,-1.03188c-0.47162,-0.24661 -0.41385,-0.56041 -1.00582,-0.78725c-0.65838,-0.2523 -3.45019,0.02765 -3.71588,0.03378c-2.57507,0.05941 -4.67609,0.23889 -7.21105,0.33075c-4.3163,0.15642 -8.88944,-0.21253 -13.22866,-0.13328c-1.6509,0.03015 -3.07359,0.34806 -4.69752,0.4339c-1.78878,0.09455 -3.66592,0.01889 -5.44991,0.11984c-5.00573,-0.04953 -9.37262,0.44811 -14.23595,0.66687c-1.88297,0.0847 -3.82244,-0.00842 -5.72526,0.03252c-2.70371,0.05817 -5.20578,0.23206 -7.82033,0.32437c-4.57965,0.16169 -9.80467,-0.09277 -14.4224,-0.14114c-5.31616,-0.05569 -10.91481,0.0297 -16.06632,-0.337c-2.32091,-0.02315 -4.05106,0.00061 -6.36509,-0.27304c-3.26015,-0.38553 -5.814,-1.18378 -9.28189,-1.47549c-2.46564,-0.2074 -5.62596,-0.20491 -8.33357,-0.24126zM186.57702,134.24276l0.07934,-0.00782c3.51012,0.02146 7.72207,0.0111 11.07409,0.2891c3.68481,0.30561 6.41866,1.10975 9.81368,1.52969c1.39949,0.17311 3.66775,0.16136 5.16393,0.17775c4.99465,0.35553 10.41362,0.2704 15.56876,0.3244c4.30969,0.04514 9.35162,0.31815 13.60423,0.15243c2.71594,-0.10584 5.33291,-0.27463 8.13882,-0.3335c1.74996,-0.03672 3.53639,0.06454 5.26528,-0.01736c4.97401,-0.23563 9.49857,-0.7377 14.63596,-0.68078c1.62125,-0.09174 3.3289,-0.01591 4.95496,-0.10119c1.78524,-0.09363 3.38076,-0.41011 5.19248,-0.45255c4.23606,-0.09925 8.77732,0.30039 12.97015,0.14116c4.27755,-0.16245 10.89338,-1.01644 14.757,-0.02646c1.03934,0.26631 1.08602,0.7185 1.78095,1.05704c0.85572,0.41686 2.32354,0.73611 3.02234,1.17384c1.46996,0.92079 2.48498,1.86712 4.3012,2.77403c-0.06852,1.8798 -0.87,3.77427 -0.7254,5.65234c0.07923,1.02896 0.85267,2.20534 -1.35174,3.13432c-2.37063,0.99902 -4.72064,0.78657 -8.24109,1.16375c-5.10733,0.54719 -10.08681,0.67051 -15.55054,0.79735c-8.17145,-0.08221 -16.34216,-0.16999 -24.51313,-0.25558c-2.63781,-0.02763 -5.28515,-0.04211 -7.92057,-0.08297c-1.04449,-0.01619 -2.18604,0.0596 -3.13014,-0.06231c-0.90952,-0.11744 -1.87798,-0.26452 -2.59245,-0.46188c-0.00442,0.00052 -0.00884,0.00103 -0.01325,0.00155c-3.15259,0.36987 -7.29293,0.38032 -10.71457,0.35032c-6.90512,-0.07233 -13.81022,-0.14466 -20.71534,-0.21699c-5.20993,-0.05457 -9.5884,-0.02715 -13.73172,-1.00902c-0.15169,-0.03595 -0.29491,-0.07196 -0.43006,-0.10803c-1.51622,0.17555 -2.73784,-0.07034 -4.85084,-0.1593c-1.86685,-0.0786 -3.81373,0.03792 -5.66256,-0.06732c-0.75734,-0.04311 -1.34496,-0.22012 -2.09706,-0.26948c-2.36886,-0.15547 -5.15512,-0.09314 -7.54099,-0.24129c-1.93615,-0.12023 -3.70971,-0.38589 -5.59692,-0.55363c-0.88078,-0.30563 -2.13102,-0.55492 -2.64232,-0.91689c-1.6304,-1.15423 1.66272,-2.14839 2.47794,-3.1755c0.84192,-1.06076 0.28664,-2.35691 0.46374,-3.44372c0.08259,-0.50689 0.74793,-0.99446 1.1582,-1.48956c0.81807,-0.98721 0.55835,-2.16547 0.51748,-3.24545c-0.30095,-0.06064 -0.57379,-0.15327 -0.77057,-0.29204c-0.65136,-0.45934 0.567,-0.69336 1.09218,-0.76983c0.2962,-0.15778 0.8904,-0.31945 2.08054,-0.30699c0.25427,0.00266 0.47914,0.01268 0.67801,0.02839z" data-paper-data="{&quot;index&quot;:null}" fill="#927e58" stroke="none" stroke-width="0.5"/><path d="M214.81929,136.33392c1.1035,0.00078 2.27848,-0.09059 3.37224,-0.04499c2.22444,0.09274 5.09952,0.39255 7.42553,0.25565c2.09885,-0.12353 3.91546,-0.52476 6.04269,-0.6053c0.34165,-0.01294 4.75484,0.04549 5.26613,0.05181c4.28316,-0.24235 8.50424,0.1363 12.73107,-0.0283c5.12517,-0.19958 9.91028,-0.40843 15.13892,-0.50575c2.78672,-0.05187 5.03637,-0.49439 7.72748,-0.64732c6.20506,-0.35264 13.18891,-0.45152 19.51925,-0.39103c1.58231,0.01657 3.18659,0.13655 4.74517,0.06087c1.07728,-0.05231 2.01169,-0.25279 3.09357,-0.29761c1.70772,-0.07075 3.43985,0.12739 5.16649,0.11153c0.96509,-0.00886 -0.37413,-0.5981 -1.25291,-0.70634c-0.47735,-0.05879 -1.04496,0.02999 -1.56949,0.03066c-2.63158,0.00337 -5.29096,-0.05542 -7.92057,-0.08297c-3.01089,-0.03154 -6.67443,-0.22667 -9.64395,-0.11095c-0.85938,0.03349 -1.61265,0.189 -2.4725,0.22161c-3.52804,0.13381 -6.96799,-0.11492 -10.54051,0.06083c-3.29581,-0.04545 -4.13393,0.291 -7.00593,0.61584c-2.51854,0.28486 -5.05607,0.28138 -7.62262,0.37975c-0.97736,0.03746 -1.8556,0.24987 -2.83928,0.2276c-1.38888,-0.03146 -2.7606,-0.17878 -3.9366,-0.38106c-2.24364,-0.38591 -2.8369,-0.89582 -4.13658,-1.45734c-1.91731,-0.82835 -3.26826,-1.53507 -2.42802,-2.56239c0.65705,-0.80333 2.60435,-1.57111 3.05923,-2.39428c0.49922,-0.9034 0.25428,-1.89486 0.38508,-2.80802c0.12499,-0.85049 -0.23029,-1.68433 -0.24517,-2.53449c-0.01811,-1.03432 0.99415,-2.19614 0.48904,-3.22165c-0.12729,-0.25843 -0.68291,-0.49249 -0.80771,-0.751c-0.35908,-0.74381 -0.14146,-1.69368 -0.28191,-2.44366c-0.09284,-0.49573 0.60235,-1.00009 0.25512,-1.4875c-0.1815,-0.25476 -0.87158,-0.46786 -1.08746,-0.72065c-0.4956,-0.58036 -0.05086,-1.26911 -0.37111,-1.84703c-0.3632,-0.65539 -1.59882,-1.32274 -2.12992,-1.97147c-0.09479,-0.11578 -0.85079,-1.62618 -0.94243,-1.80731c-1.49078,-0.99503 -2.51481,-2.1232 -4.27252,-3.07024c-0.57314,-0.30881 -1.8304,-0.52249 -2.1599,-0.85632c-0.57818,-0.58578 0.97088,-1.24312 0.25392,-1.81758c-0.28986,-0.23225 -1.25442,-0.36682 -1.61406,-0.59183c-0.56702,-0.35475 -0.64388,-0.75477 -1.12066,-1.1191c-0.62796,-0.47986 -1.93474,-0.88055 -2.57073,-1.35963c-0.39704,-0.29909 -0.43001,-0.62687 -0.80053,-0.92844c-0.74403,-0.60556 -1.66268,-0.90561 -2.8446,-1.44801c-0.22112,-0.10148 -0.22479,-0.26065 -0.61794,-0.31135c-1.20821,-0.15582 -2.62811,0.14659 -3.96186,0.17729c-2.4019,0.05529 -4.7406,-0.28553 -1.81461,0.41696c2.61714,1.68863 5.38226,3.41453 6.89829,5.20739c0.71442,0.84487 0.12836,1.79342 1.09296,2.60221c0.79391,0.66566 1.6497,1.30922 1.94623,2.01055c0.26905,0.63634 -0.5111,1.28338 -0.25787,1.9202c0.19439,0.48884 1.38218,0.9209 1.62168,1.40828c0.13159,0.26779 -0.25712,0.54191 -0.126,0.80971c0.50825,1.03808 2.18593,1.83922 2.03763,2.9343c1.1849,1.10171 0.8435,2.26028 1.34727,3.40434c0.58086,1.31914 1.55943,2.59957 2.18386,3.89304c0.57819,1.1977 -0.34262,2.5982 -0.51569,3.80642c-0.27022,1.88643 0.07454,3.73951 -0.19315,5.60828c-0.11589,0.30628 0.23617,0.65453 -0.34765,0.91886c-2.3624,1.06958 -7.90589,0.65961 -11.69766,0.87447c-4.29931,0.24361 -8.70185,0.05615 -12.94734,0.28278c-0.98191,0.05242 -1.80268,0.25474 -2.78894,0.3008c-2.24119,0.10468 -3.28439,-0.09354 -5.37524,-0.04746c-2.0375,0.0449 -3.80682,0.33812 -5.69886,0.49891c5.2729,0.49907 10.0868,1.23382 15.13241,1.8822zM189.79609,133.06131c1.94509,-0.08793 3.94595,-0.05366 5.89535,-0.1343c2.4736,-0.10233 4.66678,-0.52871 7.28243,-0.59175c1.65595,-0.03992 3.35,0.14617 4.98243,0.06103c0.98275,-0.05125 1.8061,-0.24968 2.78894,-0.3008c3.29783,-0.17154 6.90141,0.06313 10.18573,-0.0638c2.08051,-0.08041 4.0846,-0.28188 6.17167,-0.34872c0.03141,-0.00101 4.91534,0.01188 5,-0.09347c0.1051,-0.1308 -0.10589,-0.26616 -0.15885,-0.39924c0.26733,-1.8663 -0.07688,-3.72315 0.19315,-5.60828c0.16159,-1.1281 1.13958,-2.49379 0.54634,-3.60786c-0.6905,-1.29671 -1.59788,-2.58356 -2.19038,-3.9082c-0.5095,-1.13906 -0.1623,-2.29347 -1.34075,-3.38918c0.16392,-1.0837 -1.47139,-1.84736 -2.01054,-2.88342c-0.14402,-0.27675 0.23381,-0.56044 0.11001,-0.8379c-0.22112,-0.49559 -1.42545,-0.93495 -1.63276,-1.43097c-0.259,-0.61969 0.56702,-1.25037 0.28494,-1.86932c-0.2923,-0.64139 -1.11049,-1.22192 -1.77588,-1.82364c-0.99238,-0.89742 -0.404,-1.78775 -1.19819,-2.70208c-1.44345,-1.66182 -3.99522,-3.25037 -6.30826,-4.83149c-0.67285,-0.2226 -1.84442,-0.38419 -2.01853,-0.66781c-0.9955,-1.62172 3.3006,-1.55221 7.30715,-1.64597c2.5051,-0.05862 3.62973,-0.40481 6.443,-0.04373c1.04777,0.13448 1.60159,0.45609 2.28683,0.70913c2.31736,0.85575 2.92402,1.69387 4.17669,2.65575c0.61412,0.47156 1.91268,0.86323 2.53513,1.33399c0.44958,0.34002 0.48528,0.71623 1.00964,1.04833c0.44245,0.28023 1.53737,0.47204 1.85278,0.76456c0.62406,0.57877 -0.88359,1.22796 -0.2653,1.80718c0.28856,0.27032 1.41981,0.42058 1.89262,0.67121c1.90625,1.01045 3.02751,2.22617 4.57905,3.29282c0.33283,0.61402 0.47596,1.23727 0.97546,1.84297c0.55304,0.67065 1.79835,1.35554 2.17785,2.03387c0.33056,0.59084 -0.19279,1.20978 0.32822,1.7905c0.24576,0.27393 0.95926,0.50999 1.13724,0.78773c0.81707,1.27505 -0.62272,2.71006 0.05894,3.99017c0.13741,0.25804 0.69116,0.49221 0.80771,0.751c0.48936,1.08662 -0.47412,2.27611 -0.45499,3.36882c0.01518,0.86699 0.3631,1.71802 0.24176,2.58589c-0.13733,0.95873 0.12925,2.01193 -0.44094,2.95864c-0.37298,0.61928 -1.48912,1.36269 -2.17398,1.96107c-0.63092,0.55125 -1.67841,0.93691 -0.65721,1.55282c0.36332,0.21913 1.0768,0.38262 1.55509,0.58496c1.01888,0.43104 1.30127,0.771 2.8207,1.09067c0.94335,0.19847 2.40063,0.00447 3.58179,-0.04497c2.20185,-0.09215 4.33468,-0.04872 6.5087,-0.29727c3.07061,-0.35105 4.87395,-0.73464 8.43834,-0.70746c3.44525,-0.16949 6.86823,0.09022 10.22202,-0.0517c0.85782,-0.0363 1.61154,-0.19122 2.4725,-0.22161c4.15357,-0.14665 9.01209,0.08447 13.20385,0.12838c1.99604,0.02091 6.75844,-0.11546 8.48354,0.13597c4.02869,0.58716 6.12189,2.19267 1.27424,2.95033c-1.46078,0.22831 -4.74261,-0.08542 -6.40973,-0.00973c-1.07939,0.04901 -2.01324,0.25013 -3.09357,0.29761c-0.25765,0.01132 -4.98168,-0.04102 -5.6125,-0.04763c-5.93966,-0.06856 -12.59715,0.03892 -18.42099,0.36661c-2.92861,0.16478 -5.24829,0.59739 -8.32608,0.6696c-2.30306,0.05403 -4.85546,-0.0176 -7.12354,0.08145c-2.57982,0.11266 -5.13772,0.32486 -7.78081,0.41817c-4.32213,0.15258 -8.57415,-0.21191 -12.90567,0.03318c-1.69769,-0.01518 -3.40759,-0.11693 -5.09154,-0.05669c-2.02442,0.07243 -3.72107,0.4817 -5.72234,0.59153c-2.96155,0.16253 -6.12519,-0.12253 -8.97768,-0.24619c-1.61796,-0.07014 -4.195,0.05966 -5.64802,-0.08722c-0.98975,-0.10005 -1.52709,-0.41122 -2.48338,-0.53276c-0.68885,-0.08755 -1.52187,-0.03076 -2.2682,-0.07116c-2.68329,-0.14526 -6.0418,-0.44794 -8.44767,-0.80308c-3.57995,-0.52845 -5.98837,-1.19595 -10.11155,-1.19806c0,0 -1.38734,-0.01453 -1.95801,-0.31329c-0.52753,-0.11864 -0.85255,-0.29991 -0.82394,-0.49964c0.0322,-0.22477 0.50419,-0.41685 1.18326,-0.51801l2.46174,-0.38106l0.06976,0.03296z" fill="#754718" stroke="none" stroke-width="0.5"/><path d="M212.76681,135.95932c-5.04561,-0.64838 -9.8668,-1.38458 -15.1397,-1.88364c1.89204,-0.16078 3.72112,-0.47272 5.75862,-0.51762c2.09085,-0.04608 3.13203,0.15172 5.37322,0.04704c0.98625,-0.04607 1.80623,-0.24854 2.78815,-0.30096c4.24549,-0.22663 8.64209,-0.04013 12.9414,-0.28374c3.79178,-0.21485 9.32871,0.1944 11.69111,-0.87519c0.58382,-0.26433 0.20338,-0.58906 0.31926,-0.89534c0.26769,-1.86877 -0.08453,-3.72273 0.18568,-5.60916c0.17307,-1.20822 1.0842,-2.61064 0.50601,-3.80833c-0.62443,-1.29347 -1.61651,-2.58084 -2.19737,-3.89998c-0.50378,-1.14406 -0.15866,-2.30987 -1.34356,-3.41158c0.1483,-1.09508 -1.52175,-1.89931 -2.03,-2.93739c-0.13112,-0.26781 0.25988,-0.54255 0.12829,-0.81035c-0.2395,-0.48738 -1.42506,-0.91997 -1.61946,-1.40881c-0.25323,-0.63682 0.531,-1.28468 0.26195,-1.92102c-0.29653,-0.70134 -1.1504,-1.34522 -1.94431,-2.01088c-0.96461,-0.80879 -0.37585,-1.75773 -1.09027,-2.60261c-1.51605,-1.79286 -4.27985,-3.51893 -6.89699,-5.20756c-2.92599,-0.70249 -0.58609,-0.36182 1.81581,-0.41711c1.33375,-0.0307 2.75573,-0.33334 3.96396,-0.17752c0.39315,0.0507 0.39691,0.20986 0.61804,0.31134c1.18193,0.54241 2.10106,0.84241 2.84508,1.44797c0.37053,0.30157 0.40324,0.62937 0.80028,0.92846c0.63598,0.47908 1.94324,0.87973 2.5712,1.35959c0.47677,0.36433 0.55339,0.76438 1.12042,1.11913c0.35965,0.225 1.35449,0.38291 1.64435,0.61517c0.71696,0.57446 -0.83001,1.23159 -0.25183,1.81737c0.3295,0.33383 1.55366,0.52446 2.12681,0.83327c1.75772,0.94704 2.81408,2.09835 4.30486,3.09338c0.09164,0.18114 0.84994,1.69128 0.94472,1.80706c0.5311,0.64873 1.76882,1.31582 2.13201,1.9712c0.32026,0.57792 -0.11677,1.26534 0.37884,1.8457c0.21588,0.25279 0.90847,0.46531 1.08997,0.72008c0.34723,0.4874 -0.33553,0.98666 -0.2427,1.48239c0.14045,0.74998 -0.08577,1.68775 0.2733,2.43155c0.1248,0.25851 0.67251,0.49062 0.7998,0.74904c0.50511,1.02551 -0.5193,2.18565 -0.50118,3.21997c0.01488,0.85016 0.36562,1.68366 0.24062,2.53415c-0.1308,0.91315 0.09615,1.92886 -0.40307,2.83226c-0.45488,0.82317 -2.38495,1.56666 -3.04199,2.36999c-0.84025,1.02732 0.50746,1.73389 2.42476,2.56224c1.29969,0.56151 1.88955,1.07134 4.13319,1.45725c1.17601,0.20228 2.54495,0.34958 3.93382,0.38104c0.98369,0.02228 1.85992,-0.19012 2.83728,-0.22758c2.56655,-0.09837 5.09866,-0.09473 7.6172,-0.3796c2.872,-0.32484 3.70503,-0.66098 7.00085,-0.61553c3.57252,-0.17575 7.00598,0.07364 10.53402,-0.06018c0.85984,-0.03261 1.61155,-0.18792 2.47093,-0.22141c2.96952,-0.11572 6.6285,0.08013 9.63939,0.11167c2.62962,0.02755 5.28592,0.08694 7.91751,0.08357c0.52452,-0.00067 1.09156,-0.08933 1.56889,-0.03053c0.87878,0.10824 2.27557,0.7167 1.31049,0.72556c-1.72665,0.01585 -3.46053,-0.18192 -5.16825,-0.11117c-1.08188,0.04482 -2.01783,0.2456 -3.0951,0.2979c-1.55857,0.07567 -3.16484,-0.04396 -4.74716,-0.06053c-6.33033,-0.06048 -13.32509,0.03966 -19.53015,0.3923c-2.6911,0.15294 -4.94602,0.59577 -7.73274,0.64764c-5.22863,0.09732 -10.02377,0.3063 -15.14894,0.50588c-4.22682,0.1646 -8.45593,-0.21438 -12.73908,0.02797c-0.5113,-0.00632 -4.92759,-0.06498 -5.26924,-0.05204c-2.12723,0.08054 -3.94668,0.4815 -6.04552,0.60503c-2.326,0.1369 -5.20491,-0.16337 -7.42933,-0.25611c-1.09377,-0.0456 -2.27021,0.04555 -3.3737,0.04478z" data-paper-data="{&quot;noHover&quot;:false,&quot;origItem&quot;:[&quot;Path&quot;,{&quot;applyMatrix&quot;:true,&quot;segments&quot;:[[[197.27987,226.49758],[0,0],[1.20576,-0.04357]],[[200.9572,226.17311],[-1.20214,-0.13795],[2.44484,0.28056]],[[209.11003,226.89172],[-2.51987,0.65154],[2.27378,-0.58791]],[[215.61729,224.19046],[-2.31152,0.41541],[0.37125,-0.06672]],[[221.37895,224.17691],[-0.55961,-0.00389],[4.64167,-1.16042]],[[235.28395,223.52379],[-4.59229,0.84388],[5.56831,-1.02323]],[[251.74495,220.83977],[-5.69735,0.61449],[3.03653,-0.32751]],[[260.08636,217.89743],[-2.91625,0.73178],[6.7242,-1.68732]],[[281.35107,215.49151],[-6.92572,0.02354],[1.73136,0]],[[286.54497,215.53662],[-1.69099,0.3717],[1.1688,-0.25692]],[[289.87831,214.20329],[-1.175,0.22686],[1.85471,-0.3581]],[[295.54045,214.43526],[-1.88398,0.13712],[1.05303,-0.07664]],[[294.06103,211.63454],[0.97706,0.40012],[-0.53073,-0.21734]],[[292.35107,211.82484],[0.57296,-0.02491],[-2.87463,0.12499]],[[283.68441,211.82484],[2.87732,0],[-3.29451,0]],[[273.13047,211.78473],[3.22626,-0.5932],[-0.93368,0.17167]],[[270.4638,212.78473],[0.93432,-0.16815],[-3.83365,0.68994]],[[258.9572,213.47658],[3.87568,-0.86126],[-3.60798,-0.04415]],[[251.39919,216.26119],[3.08699,-1.43397],[-2.70707,1.25749]],[[243.13047,218.11806],[2.78871,-0.50605],[-1.06196,0.19271]],[[240.06401,219.15775],[1.07822,0.04838],[-1.52235,-0.06831]],[[235.70341,217.7848],[1.31651,0.76746],[-2.5117,-1.46419]],[[230.95589,212.07195],[1.50786,2.21362],[-2.22441,-3.26556]],[[227.90213,201.82218],[-0.75725,4.18614],[0.59214,-3.27341]],[[230.86981,192.01939],[-0.36816,3.34499],[0.40404,-3.67104]],[[230.85107,180.65818],[0,3.69484],[0.00346,-3.44141]],[[230.18657,170.42874],[0.14931,3.43417],[-0.18166,-4.17809]],[[230.21669,157.39197],[0.71235,4.12189],[-0.17951,-1.0387]],[[229.21669,154.39197],[0.17681,1.03916],[-0.50872,-2.98992]],[[228.52626,144.53105],[0.27082,3.02413],[-0.17901,-1.99891]],[[228.5722,138.51049],[0.45565,1.9545],[-0.23817,-1.02161]],[[227.27131,135.64493],[0.27542,1.0122],[-0.6323,-2.32378]],[[226.57679,128.19831],[0.44035,2.32133],[-0.49938,-2.63251]],[[223.94119,120.32335],[0.68178,2.59851],[-0.12168,-0.46377]],[[222.62869,113.06135],[0.12847,0.72795],[-1.78449,-3.95702]],[[217.48022,100.83782],[2.06862,3.75184],[-0.67452,-1.22338]],[[214.98639,97.46952],[0.41224,1.3348],[-0.72337,-2.34221]],[[214.97937,90.11541],[0.87322,2.29057],[-0.35304,-0.92608]],[[213.12329,87.79262],[0.42815,0.89384],[-0.67502,-1.40926]],[[211.72377,83.31867],[0.57792,1.45178],[-0.76118,-1.91213]],[[208.70232,77.93429],[0.76982,1.90867],[-0.4806,-1.19159]],[[207.68239,74.2171],[0.45202,1.20272],[-0.90766,-2.41508]],[[204.34788,68.48725],[1.37621,2.1414],[-0.25747,-0.40064]],[[203.62402,67.25548],[0.43747,0.18821],[-1.34443,-0.5784]],[[199.3232,68.13945],[1.4524,-0.18048],[-2.61556,0.32503]],[[197.40589,69.90086],[-3.30675,-2.71436],[3.12365,6.71162]],[[205.75763,90.64772],[-1.93695,-7.17932],[0.91277,3.38321]],[[207.359,101.11487],[-1.18047,-3.22682],[0.97157,2.65579]],[[209.80002,109.15551],[-0.43373,-2.82098],[0.39354,2.55956]],[[209.81879,116.92439],[-0.37633,-2.56214],[0.28889,1.96678]],[[211.81096,122.54545],[-0.33794,-1.95895],[0.18568,1.07635]],[[211.80002,125.82218],[-0.18517,-1.07644],[0.71775,4.17251]],[[214.48546,137.59106],[-0.00935,-4.4306],[1.46699,4.40098]],[[216.49021,151.28821],[-0.72945,-4.60091],[0.84107,5.30497]],[[219.48546,166.92439],[-0.88465,-5.19943],[0.81915,4.81444]],[[219.51774,182.32484],[0,-4.88877],[0,7.63298]],[[220.18441,204.99151],[0,-7.56152],[-0.07868,1.24235]],[[219.94838,208.71857],[0.59649,-1.09263],[-2.41367,4.42129]],[[207.30486,212.74663],[4.10911,-1.02851],[-4.65912,1.16618]],[[193.20339,214.43705],[4.60298,-1.0953],[-1.06459,0.25333]],[[190.20339,215.77038],[1.07033,-0.22786],[-2.43225,0.51779]],[[184.3232,215.80611],[2.27716,-0.27465],[-2.21906,0.26765]],[[178.17493,218.06296],[2.042,-0.72966],[5.83905,1.79317]],[[195.00254,225.02698],[-5.61409,-2.40604],[0,0]]],&quot;closed&quot;:true}]}" fill="#a06122" stroke="none" stroke-width="0.5"/><path d="M236.16973,98.41875l2.19678,-0.01305c1.82868,0.40907 3.41311,0.91434 4.59249,1.47126c0.42311,0.53754 1.43695,1.40925 0.24391,1.9391c-0.60026,0.26658 -4.78079,0.85036 -6.08481,1.0662c-4.09542,0.67788 -8.48117,1.17797 -13.30397,1.35964c-0.79143,0.02981 -1.60379,-0.05701 -2.39514,-0.02703c-1.59906,0.06058 -3.04358,0.29271 -4.5865,0.42143c-0.52854,0.04409 -3.44545,0.22151 -4.14156,0.40319c-1.26379,0.32984 -1.8615,0.88326 -3.02471,1.23023c-0.63925,0.19068 -1.58679,0.29217 -2.23365,0.48096c-2.6673,0.7785 -5.04442,1.64867 -8.24301,2.30026c-2.19076,0.98795 -3.85657,2.05095 -6.40949,2.94542c-0.77838,0.27272 -1.24553,0.63255 -2.30234,0.82492c-1.32738,0.24163 -2.98491,0.52147 -4.5411,0.42079c-1.44936,-0.09377 -1.99633,-0.59867 -2.95995,-0.90608c-1.67266,-0.53361 -3.07167,-1.08684 -4.64659,-1.61505c-1.84011,-0.61716 -4.36515,-0.81065 -4.22207,-1.75269c0.05121,-0.3371 0.7677,-0.65357 1.49228,-0.92822c0.50462,-0.19127 1.60254,-0.22875 2.07862,-0.4253c0.46951,-0.19383 0.1866,-0.47218 0.59036,-0.67656c0.58008,-0.29362 1.46763,-0.53588 2.29293,-0.78288c2.44907,-0.73298 5.61641,-1.13521 8.01409,-1.8488c3.8706,-0.8103 7.58519,-1.61844 11.50913,-2.39825c1.85769,-0.36918 2.90407,-0.8831 4.91583,-1.21841c1.01732,-0.16956 2.26333,-0.20937 3.3637,-0.33543c1.75888,-0.20149 3.16624,-0.58036 4.8331,-0.83265c2.51162,-0.38017 5.61739,-0.41801 8.28994,-0.69117c4.7906,-0.48964 8.26754,-0.77464 13.44166,-0.5658c0,0 0.68165,0.02774 1.24007,0.15397z" fill="#d4d4d4" stroke="none" stroke-width="0.5"/><path d="M256.0014,103.47559c0.00678,0.00304 0.01322,0.00598 0.01934,0.00881c3.56909,0.44044 6.96638,0.7882 3.83416,2.13545c-1.74036,0.74857 -6.47094,0.60902 -8.98621,0.84469c-0.80306,0.07524 -1.33877,0.29308 -2.12225,0.38214c-2.44991,0.2785 -5.38521,0.41265 -7.74404,0.78124c-1.1425,0.17853 -2.57597,0.77598 -3.55765,0.985c-2.84721,0.60622 -6.36136,1.17053 -8.88243,1.9044c-1.81983,0.52974 -3.51352,1.11679 -5.36482,1.65682c-2.85149,0.99148 -6.40422,1.83581 -9.17848,2.84586c-1.80835,0.65838 -3.37858,1.71957 -6.48262,2.04798c-1.68443,0.17821 -6.62847,0.05143 -8.49702,-0.0419c-1.56186,-0.07801 -3.72741,0.03077 -4.60938,-0.32643c-0.90903,-0.36816 1.53876,-1.514 2.31613,-1.85662c2.12737,-0.93761 4.73431,-1.87754 7.29451,-2.72436c0.47617,-0.1575 1.30514,-0.22819 1.70042,-0.40128c0.45773,-0.20043 0.26862,-0.48167 0.76018,-0.67616c0.53174,-0.21039 1.45297,-0.32462 2.17946,-0.48693c1.38203,-0.4613 3.17135,-0.82178 4.68833,-1.25096c0.80784,-0.22855 1.20268,-0.55548 2.08689,-0.76232c1.50456,-0.35196 3.52636,-0.51514 5.04128,-0.86383c2.94886,-0.67874 5.19696,-1.67146 8.9172,-2.08602c0.70984,-0.0791 1.59841,0.04477 2.29832,-0.04056c0.70804,-0.08631 0.9926,-0.3348 1.6604,-0.44203c0.74656,-0.11988 1.7313,-0.09933 2.4725,-0.22161c1.70575,-0.28142 3.04911,-0.71559 4.83327,-0.95887c2.04492,-0.27884 5.54267,-0.70269 7.85583,-0.81245c0.69413,-0.03294 1.43607,0.10208 2.1078,0.04445c0.73984,-0.06347 1.23092,-0.25579 1.84639,-0.38368c0,0 1.88093,-0.35157 3.18099,0.15708c0.54443,0.21301 0.53101,0.39847 0.33149,0.5421z" fill="#d4d4d4" stroke="none" stroke-width="0.5"/></g></g></svg>