<svg version="1.1" xmlns="http://www.w3.org/2000/svg" xmlns:xlink="http://www.w3.org/1999/xlink" width="260.87042" height="297.4332" viewBox="0,0,260.87042,297.4332"><g transform="translate(-110.05415,-34.09447)"><g data-paper-data="{&quot;isPaintingLayer&quot;:true}" fill-rule="nonzero" stroke-linejoin="miter" stroke-miterlimit="10" stroke-dasharray="" stroke-dashoffset="0" style="mix-blend-mode: normal"><path d="M136.5,269.96618v-235.87171h207v235.87171z" fill="#484848" stroke="none" stroke-width="0" stroke-linecap="butt"/><path d="M189.60299,69.77394c0.65425,-2.21486 1.89393,-4.30264 3.45241,-6.00698c0.81727,-0.89376 -1.07696,-6.29404 0.44972,-8.07113c4.71151,-5.48429 13.14726,-4.87536 19.46245,-4.91803c11.21194,-0.07575 22.41197,-1.01533 33.62383,-0.92665c3.73613,0.02955 7.30258,2.54136 10.90704,2.77992c5.89339,0.39004 18.24423,-0.83574 21.29374,2.722c0.79953,0.93279 2.01425,1.52961 2.60618,2.60618c1.26557,2.30172 2.40865,17.26307 0.06515,19.26475c-4.55004,3.88637 -11.2155,3.37223 -16.6674,2.00926c-12.16815,-3.04204 -19.99329,0.47203 -30.51318,0.73371c-10.84847,0.26985 -22.03907,0.98366 -31.98639,-3.36978c-1.45509,-0.63682 -5.33694,0.70004 -6.22143,0.11038z" fill="#000000" stroke="none" stroke-width="0.5" stroke-linecap="butt"/><path d="M178.4833,91.54999c1.41598,-3.78178 3.63102,-5.8188 6.41214,-6.92932c3.35335,-1.33902 7.52971,-1.33104 12.12067,-1.41045c15.58055,-0.2695 31.16701,0.1968 46.74865,0c1.85333,-0.02341 3.6992,-1.35436 5.60656,-1.38996c9.32269,-0.17397 10.19608,0.14632 16.14514,0.46332c5.78713,0.30836 11.22035,2.69073 16.95177,2.77992c1.46895,0.02286 4.9447,-0.24023 6.05367,0.86873c1.65083,1.65083 3.4749,3.74645 3.4749,6.08108c0,5.17751 -3.29001,6.50709 -6.94981,6.94981c-4.91362,0.59439 -14.23643,-2.67611 -18.20121,-2.77992c-5.62516,-0.14729 -10.20913,-0.51893 -16.34667,-0.46332c-1.87819,0.01701 -3.80366,1.37987 -5.761,1.38996c-14.89224,0.07675 -29.7849,-0.01929 -44.67733,0c-1.47159,0.0019 -15.07692,2.13508 -16.07942,1.23811z" fill="#333333" stroke="none" stroke-width="0.5" stroke-linecap="butt"/><path d="M188.67636,83.67354v-10.65636h95.90733v10.65636z" fill="#ffffff" stroke="none" stroke-width="0" stroke-linecap="butt"/><path d="M296.16668,98.96311l-120.00001,-1.85328l2.31661,-12.97297l112.58687,0.46332z" fill="none" stroke="#000000" stroke-width="5" stroke-linecap="round"/><path d="M184.96978,82.28358l11.58302,-29.6525l82.47104,0.46333l8.80308,29.18919" fill="none" stroke="#000000" stroke-width="5" stroke-linecap="round"/><path d="M146,182.59448v-29.5h186v29.5z" fill="#484848" stroke="#000000" stroke-width="1.825" stroke-linecap="butt"/><path d="M163,151.59447v-37.756h154.5v37.756z" fill="#484848" stroke="#000000" stroke-width="2.5" stroke-linecap="butt"/><text transform="translate(182.59507,139.96948) scale(0.68418,0.68418)" font-size="40" xml:space="preserve" fill="#ffffff" fill-rule="nonzero" stroke="#000000" stroke-width="2" stroke-linecap="butt" stroke-linejoin="miter" stroke-miterlimit="10" stroke-dasharray="" stroke-dashoffset="0" font-family="Sans Serif" font-weight="normal" text-anchor="start" style="mix-blend-mode: normal"><tspan x="0" dy="0">cool hat</tspan></text><text transform="translate(180.50001,173.59448) scale(0.43318,0.5)" font-size="40" xml:space="preserve" fill="#ffffff" fill-rule="nonzero" stroke="none" stroke-width="1" stroke-linecap="butt" stroke-linejoin="miter" stroke-miterlimit="10" stroke-dasharray="" stroke-dashoffset="0" font-family="Sans Serif" font-weight="normal" text-anchor="start" style="mix-blend-mode: normal"><tspan x="0" dy="0">4$ every click</tspan></text><path d="M151,260.59448v-64h175.5v64z" fill="#29ff00" stroke="none" stroke-width="0" stroke-linecap="butt"/><text transform="translate(157.5,244.19962) scale(2.26562,1.275)" font-size="40" xml:space="preserve" fill="#000000" fill-rule="nonzero" stroke="none" stroke-width="1" stroke-linecap="butt" stroke-linejoin="miter" stroke-miterlimit="10" stroke-dasharray="" stroke-dashoffset="0" font-family="Sans Serif" font-weight="normal" text-anchor="start" style="mix-blend-mode: normal"><tspan x="0" dy="0">buy</tspan></text><text transform="translate(111.81559,317.20834) scale(0.70457,0.98754)" font-size="40" xml:space="preserve" fill="#ff0000" fill-rule="nonzero" stroke="#ff0000" stroke-width="5" stroke-linecap="butt" stroke-linejoin="miter" stroke-miterlimit="10" stroke-dasharray="" stroke-dashoffset="0" font-family="Sans Serif" font-weight="normal" text-anchor="start" style="mix-blend-mode: normal"><tspan x="0" dy="0">not enough money</tspan></text></g></g></svg>