<svg version="1.1" xmlns="http://www.w3.org/2000/svg" xmlns:xlink="http://www.w3.org/1999/xlink" width="1056.5" height="534.33335" viewBox="0,0,1056.5,534.33335"><g transform="translate(417.5,46.33334)"><g data-paper-data="{&quot;isPaintingLayer&quot;:true}" fill-rule="nonzero" stroke-linecap="butt" stroke-linejoin="miter" stroke-miterlimit="10" stroke-dasharray="" stroke-dashoffset="0" style="mix-blend-mode: normal"><path d="M-104.5,488.00001v-523.5h743.5v523.5z" fill="#fff1b7" stroke="none" stroke-width="0"/><path d="M-19,389.00001v-83.5h523.5v83.5z" fill="#5fbcff" stroke="#000000" stroke-width="2.5"/><path d="M9,335.66673v-21.5h38v21.5z" fill="#75c5ff" stroke="none" stroke-width="0"/><path d="M-417.5,-32.33334v-14h2v14z" fill="#a7daff" stroke="none" stroke-width="0"/><path d="M15,331.66666v-11h25v11z" fill="#87cdff" stroke="none" stroke-width="0"/><path d="M61.5,337.66673v-21.5h38v21.5z" fill="#75c5ff" stroke="none" stroke-width="0"/><path d="M67.5,333.66666v-11h25v11z" fill="#87cdff" stroke="none" stroke-width="0"/><path d="M111,337.66673v-21.5h38v21.5z" fill="#75c5ff" stroke="none" stroke-width="0"/><path d="M117,333.66666v-11h25v11z" fill="#87cdff" stroke="none" stroke-width="0"/><path d="M162.5,336.16673v-21.5h38v21.5z" fill="#75c5ff" stroke="none" stroke-width="0"/><path d="M168.5,332.16666v-11h25v11z" fill="#87cdff" stroke="none" stroke-width="0"/><path d="M216.5,336.66673v-21.5h38v21.5z" fill="#75c5ff" stroke="none" stroke-width="0"/><path d="M222.5,332.66666v-11h25v11z" fill="#87cdff" stroke="none" stroke-width="0"/><path d="M272.5,336.16673v-21.5h38v21.5z" fill="#75c5ff" stroke="none" stroke-width="0"/><path d="M278.5,332.16666v-11h25v11z" fill="#87cdff" stroke="none" stroke-width="0"/><path d="M330,333.66666v-21.5h38v21.5z" fill="#75c5ff" stroke="none" stroke-width="0"/><path d="M336,329.66666v-11h25v11z" fill="#87cdff" stroke="none" stroke-width="0"/><path d="M392.5,333.16666v-21.5h38v21.5z" fill="#75c5ff" stroke="none" stroke-width="0"/><path d="M398.5,329.16666v-11h25v11z" fill="#87cdff" stroke="none" stroke-width="0"/><path d="M456.5,332.16666v-21.5h38v21.5z" fill="#75c5ff" stroke="none" stroke-width="0"/><path d="M462.5,328.16666v-11h25v11z" fill="#87cdff" stroke="none" stroke-width="0"/><path d="M6.5,372.16673v-21.5h38v21.5z" fill="#75c5ff" stroke="none" stroke-width="0"/><path d="M12.5,368.16673v-11h25v11z" fill="#87cdff" stroke="none" stroke-width="0"/><path d="M59,374.16673v-21.5h38v21.5z" fill="#75c5ff" stroke="none" stroke-width="0"/><path d="M65,370.16673v-11h25v11z" fill="#87cdff" stroke="none" stroke-width="0"/><path d="M108.5,374.16673v-21.5h38v21.5z" fill="#75c5ff" stroke="none" stroke-width="0"/><path d="M114.5,370.16673v-11h25v11z" fill="#87cdff" stroke="none" stroke-width="0"/><path d="M160,372.66673v-21.5h38v21.5z" fill="#75c5ff" stroke="none" stroke-width="0"/><path d="M166,368.66673v-11h25v11z" fill="#87cdff" stroke="none" stroke-width="0"/><path d="M214,373.16673v-21.5h38v21.5z" fill="#75c5ff" stroke="none" stroke-width="0"/><path d="M220,369.16673v-11h25v11z" fill="#87cdff" stroke="none" stroke-width="0"/><path d="M270,372.66673v-21.5h38v21.5z" fill="#75c5ff" stroke="none" stroke-width="0"/><path d="M276,368.66673v-11h25v11z" fill="#87cdff" stroke="none" stroke-width="0"/><path d="M327.5,370.16673v-21.5h38v21.5z" fill="#75c5ff" stroke="none" stroke-width="0"/><path d="M333.5,366.16673v-11h25v11z" fill="#87cdff" stroke="none" stroke-width="0"/><path d="M390,369.66673v-21.5h38v21.5z" fill="#75c5ff" stroke="none" stroke-width="0"/><path d="M396,365.66673v-11h25v11z" fill="#87cdff" stroke="none" stroke-width="0"/><path d="M454,368.66673v-21.5h38v21.5z" fill="#75c5ff" stroke="none" stroke-width="0"/><path d="M460,364.66673v-11h25v11z" fill="#87cdff" stroke="none" stroke-width="0"/></g></g></svg>